Exo-Black.ufo
<glyph name=".notdef" format="1">
  <advance width="670"/>
  <unicode hex="0000"/>
  <outline>
    <contour>
      <point x="56" y="0" type="line"/>
      <point x="56" y="531" type="line"/>
      <point x="614" y="531" type="line"/>
      <point x="614" y="0" type="line"/>
    </contour>
    <contour>
      <point x="591" y="518" type="line"/>
      <point x="80" y="518" type="line"/>
      <point x="337" y="276" type="line"/>
    </contour>
    <contour>
      <point x="70" y="22" type="line"/>
      <point x="326" y="266" type="line"/>
      <point x="70" y="507" type="line"/>
    </contour>
    <contour>
      <point x="83" y="13" type="line"/>
      <point x="590" y="13" type="line"/>
      <point x="337" y="256" type="line"/>
    </contour>
    <contour>
      <point x="600" y="506" type="line"/>
      <point x="348" y="266" type="line"/>
      <point x="600" y="25" type="line"/>
    </contour>
  </outline>
</glyph>
<glyph name="exclam" format="1">
  <advance width="277"/>
  <unicode hex="0021"/>
  <outline>
    <contour>
      <point x="46" y="731" type="line"/>
      <point x="230" y="731" type="line"/>
      <point x="209" y="196" type="line"/>
      <point x="63" y="196" type="line"/>
    </contour>
    <contour>
      <point x="54" y="23" type="curve" smooth="yes"/>
      <point x="54" y="140" type="line" smooth="yes"/>
      <point x="54" y="155"/>
      <point x="62" y="165"/>
      <point x="78" y="165" type="curve" smooth="yes"/>
      <point x="193" y="165" type="line" smooth="yes"/>
      <point x="208" y="165"/>
      <point x="216" y="154"/>
      <point x="216" y="140" type="curve" smooth="yes"/>
      <point x="216" y="23" type="line" smooth="yes"/>
      <point x="216" y="8"/>
      <point x="207" y="0"/>
      <point x="193" y="0" type="curve" smooth="yes"/>
      <point x="78" y="0" type="line" smooth="yes"/>
      <point x="64" y="0"/>
      <point x="54" y="9"/>
    </contour>
  </outline>
</glyph>
<glyph name="quotedbl" format="1">
  <advance width="497"/>
  <unicode hex="0022"/>
  <outline>
    <contour>
      <point x="266" y="665" type="line"/>
      <point x="266" y="732" type="line"/>
      <point x="450" y="732" type="line"/>
      <point x="450" y="665" type="line"/>
      <point x="440" y="531" type="line"/>
      <point x="276" y="531" type="line"/>
    </contour>
    <contour>
      <point x="48" y="665" type="line"/>
      <point x="48" y="732" type="line"/>
      <point x="232" y="732" type="line"/>
      <point x="232" y="665" type="line"/>
      <point x="222" y="531" type="line"/>
      <point x="60" y="531" type="line"/>
    </contour>
  </outline>
</glyph>
<glyph name="dollar" format="1">
  <advance width="566"/>
  <unicode hex="0024"/>
  <outline>
    <contour>
      <point x="31" y="479" type="curve" smooth="yes"/>
      <point x="31" y="540" type="line" smooth="yes"/>
      <point x="31" y="684"/>
      <point x="122" y="734"/>
      <point x="233" y="738" type="curve"/>
      <point x="233" y="824" type="line"/>
      <point x="341" y="824" type="line"/>
      <point x="341" y="738" type="line"/>
      <point x="414" y="735"/>
      <point x="456" y="724"/>
      <point x="509" y="705" type="curve"/>
      <point x="509" y="554" type="line"/>
      <point x="445" y="561"/>
      <point x="365" y="564"/>
      <point x="299" y="564" type="curve" smooth="yes"/>
      <point x="245" y="564"/>
      <point x="225" y="562"/>
      <point x="225" y="520" type="curve" smooth="yes"/>
      <point x="225" y="509" type="line" smooth="yes"/>
      <point x="225" y="478"/>
      <point x="231" y="461"/>
      <point x="285" y="461" type="curve" smooth="yes"/>
      <point x="349" y="461" type="line" smooth="yes"/>
      <point x="501" y="461"/>
      <point x="536" y="329"/>
      <point x="536" y="249" type="curve" smooth="yes"/>
      <point x="536" y="216" type="line" smooth="yes"/>
      <point x="536" y="35"/>
      <point x="438" y="-6"/>
      <point x="341" y="-8" type="curve"/>
      <point x="341" y="-90" type="line"/>
      <point x="233" y="-90" type="line"/>
      <point x="233" y="-8" type="line"/>
      <point x="145" y="-7"/>
      <point x="132" y="0"/>
      <point x="54" y="26" type="curve"/>
      <point x="54" y="177" type="line"/>
      <point x="94" y="173"/>
      <point x="190" y="166"/>
      <point x="283" y="166" type="curve" smooth="yes"/>
      <point x="326" y="166"/>
      <point x="342" y="177"/>
      <point x="342" y="207" type="curve" smooth="yes"/>
      <point x="342" y="223" type="line" smooth="yes"/>
      <point x="342" y="252"/>
      <point x="333" y="267"/>
      <point x="289" y="267" type="curve" smooth="yes"/>
      <point x="229" y="267" type="line" smooth="yes"/>
      <point x="39" y="267"/>
      <point x="31" y="432"/>
    </contour>
  </outline>
</glyph>
<glyph name="percent" format="1">
  <advance width="968"/>
  <unicode hex="0025"/>
  <outline>
    <contour>
      <point x="693" y="168" type="line" smooth="yes"/>
      <point x="693" y="146"/>
      <point x="697" y="128"/>
      <point x="730" y="128" type="curve" smooth="yes"/>
      <point x="780" y="128" type="line" smooth="yes"/>
      <point x="814" y="128"/>
      <point x="820" y="146"/>
      <point x="820" y="168" type="curve" smooth="yes"/>
      <point x="820" y="221" type="line" smooth="yes"/>
      <point x="820" y="254"/>
      <point x="807" y="261"/>
      <point x="782" y="261" type="curve" smooth="yes"/>
      <point x="732" y="261" type="line" smooth="yes"/>
      <point x="710" y="261"/>
      <point x="693" y="255"/>
      <point x="693" y="221" type="curve" smooth="yes"/>
    </contour>
    <contour>
      <point x="568" y="138" type="curve" smooth="yes"/>
      <point x="568" y="251" type="line" smooth="yes"/>
      <point x="568" y="336"/>
      <point x="605" y="386"/>
      <point x="706" y="386" type="curve" smooth="yes"/>
      <point x="808" y="386" type="line" smooth="yes"/>
      <point x="906" y="386"/>
      <point x="945" y="336"/>
      <point x="945" y="251" type="curve" smooth="yes"/>
      <point x="945" y="138" type="line" smooth="yes"/>
      <point x="945" y="53"/>
      <point x="907" y="3"/>
      <point x="806" y="3" type="curve" smooth="yes"/>
      <point x="704" y="3" type="line" smooth="yes"/>
      <point x="606" y="3"/>
      <point x="568" y="53"/>
    </contour>
    <contour>
      <point x="192" y="0" type="line"/>
      <point x="646" y="732" type="line"/>
      <point x="770" y="732" type="line"/>
      <point x="323" y="0" type="line"/>
    </contour>
    <contour>
      <point x="149" y="514" type="line" smooth="yes"/>
      <point x="149" y="492"/>
      <point x="153" y="474"/>
      <point x="186" y="474" type="curve" smooth="yes"/>
      <point x="237" y="474" type="line" smooth="yes"/>
      <point x="271" y="474"/>
      <point x="276" y="492"/>
      <point x="276" y="514" type="curve" smooth="yes"/>
      <point x="276" y="567" type="line" smooth="yes"/>
      <point x="276" y="600"/>
      <point x="264" y="607"/>
      <point x="239" y="607" type="curve" smooth="yes"/>
      <point x="188" y="607" type="line" smooth="yes"/>
      <point x="166" y="607"/>
      <point x="149" y="601"/>
      <point x="149" y="567" type="curve" smooth="yes"/>
    </contour>
    <contour>
      <point x="24" y="484" type="curve" smooth="yes"/>
      <point x="24" y="597" type="line" smooth="yes"/>
      <point x="24" y="682"/>
      <point x="62" y="732"/>
      <point x="163" y="732" type="curve" smooth="yes"/>
      <point x="264" y="732" type="line" smooth="yes"/>
      <point x="362" y="732"/>
      <point x="401" y="682"/>
      <point x="401" y="597" type="curve" smooth="yes"/>
      <point x="401" y="484" type="line" smooth="yes"/>
      <point x="401" y="399"/>
      <point x="363" y="349"/>
      <point x="262" y="349" type="curve" smooth="yes"/>
      <point x="161" y="349" type="line" smooth="yes"/>
      <point x="63" y="349"/>
      <point x="24" y="399"/>
    </contour>
  </outline>
</glyph>
<glyph name="ampersand" format="1">
  <advance width="715"/>
  <unicode hex="0026"/>
  <note>
    GF Latin Plus glyph
  </note>
  <outline>
    <contour>
      <point x="253" y="171" type="curve" smooth="yes"/>
      <point x="227" y="171"/>
      <point x="211" y="190"/>
      <point x="211" y="212" type="curve" smooth="yes"/>
      <point x="211" y="232"/>
      <point x="217" y="245"/>
      <point x="234" y="261" type="curve" smooth="yes"/>
      <point x="264" y="290" type="line"/>
      <point x="324" y="213" type="line"/>
      <point x="301" y="189" type="line" smooth="yes"/>
      <point x="288" y="176"/>
      <point x="272" y="171"/>
    </contour>
    <contour>
      <point x="218" y="-5" type="curve" smooth="yes"/>
      <point x="288" y="-5"/>
      <point x="338" y="11"/>
      <point x="385" y="51" type="curve" smooth="yes"/>
      <point x="424" y="84" type="line"/>
      <point x="494" y="0" type="line"/>
      <point x="682" y="0" type="line"/>
      <point x="539" y="188" type="line"/>
      <point x="595" y="242" type="line"/>
      <point x="662" y="350" type="line"/>
      <point x="592" y="438" type="line"/>
      <point x="446" y="311" type="line"/>
      <point x="328" y="475" type="line" smooth="yes"/>
      <point x="302" y="511"/>
      <point x="291" y="530"/>
      <point x="291" y="544" type="curve" smooth="yes"/>
      <point x="291" y="559"/>
      <point x="304" y="568"/>
      <point x="339" y="568" type="curve" smooth="yes"/>
      <point x="523" y="568" type="line"/>
      <point x="523" y="710" type="line"/>
      <point x="480" y="725"/>
      <point x="389" y="739"/>
      <point x="313" y="739" type="curve" smooth="yes"/>
      <point x="191" y="739"/>
      <point x="97" y="696"/>
      <point x="97" y="586" type="curve" smooth="yes"/>
      <point x="97" y="550"/>
      <point x="109" y="519"/>
      <point x="157" y="445" type="curve" smooth="yes"/>
      <point x="172" y="422" type="line"/>
      <point x="116" y="374" type="line" smooth="yes"/>
      <point x="61" y="327"/>
      <point x="29" y="262"/>
      <point x="29" y="187" type="curve" smooth="yes"/>
      <point x="29" y="75"/>
      <point x="108" y="-5"/>
    </contour>
  </outline>
</glyph>
<glyph name="quotesingle" format="1">
  <advance width="256"/>
  <unicode hex="0027"/>
  <note>
    GF Latin Plus glyph
  </note>
  <outline>
    <contour>
      <point x="31" y="692" type="line"/>
      <point x="42" y="491" type="line"/>
      <point x="206" y="491" type="line"/>
      <point x="216" y="692" type="line"/>
      <point x="216" y="759" type="line"/>
      <point x="31" y="759" type="line"/>
    </contour>
  </outline>
</glyph>
<glyph name="parenleft" format="1">
  <advance width="413"/>
  <unicode hex="0028"/>
  <outline>
    <contour>
      <point x="42" y="326" type="curve" smooth="yes"/>
      <point x="42" y="49"/>
      <point x="133" y="-107"/>
      <point x="231" y="-210" type="curve"/>
      <point x="402" y="-210" type="line"/>
      <point x="300" y="-46"/>
      <point x="236" y="99"/>
      <point x="236" y="326" type="curve" smooth="yes"/>
      <point x="236" y="556"/>
      <point x="320" y="729"/>
      <point x="402" y="860" type="curve"/>
      <point x="231" y="860" type="line"/>
      <point x="139" y="757"/>
      <point x="42" y="587"/>
    </contour>
  </outline>
</glyph>
<glyph name="parenright" format="1">
  <advance width="413"/>
  <unicode hex="0029"/>
  <outline>
    <contour>
      <point x="11" y="-210" type="line"/>
      <point x="11" y="-210"/>
      <point x="177" y="10"/>
      <point x="177" y="326" type="curve" smooth="yes"/>
      <point x="177" y="616"/>
      <point x="11" y="860"/>
      <point x="11" y="860" type="curve"/>
      <point x="182" y="860" type="line"/>
      <point x="182" y="860"/>
      <point x="371" y="692"/>
      <point x="371" y="326" type="curve" smooth="yes"/>
      <point x="371" y="-71"/>
      <point x="182" y="-210"/>
      <point x="182" y="-210" type="curve"/>
    </contour>
  </outline>
</glyph>
<glyph name="asterisk" format="1">
  <advance width="418"/>
  <unicode hex="002A"/>
  <outline>
    <contour>
      <point x="230" y="571" type="line"/>
      <point x="349" y="652" type="line"/>
      <point x="390" y="595" type="line"/>
      <point x="289" y="498" type="line"/>
    </contour>
    <contour>
      <point x="176" y="459" type="line"/>
      <point x="227" y="538" type="line"/>
      <point x="341" y="449" type="line"/>
      <point x="299" y="393" type="line"/>
    </contour>
    <contour>
      <point x="157" y="722" type="line"/>
      <point x="224" y="744" type="line"/>
      <point x="285" y="618" type="line"/>
      <point x="197" y="584" type="line"/>
    </contour>
    <contour>
      <point x="76" y="418" type="line"/>
      <point x="101" y="556" type="line"/>
      <point x="192" y="532" type="line"/>
      <point x="143" y="397" type="line"/>
    </contour>
    <contour>
      <point x="28" y="566" type="line"/>
      <point x="28" y="636" type="line"/>
      <point x="167" y="655" type="line"/>
      <point x="172" y="561" type="line"/>
    </contour>
  </outline>
</glyph>
<glyph name="plus" format="1">
  <advance width="456"/>
  <unicode hex="002B"/>
  <outline>
    <contour>
      <point x="20" y="279" type="line"/>
      <point x="20" y="433" type="line"/>
      <point x="150" y="433" type="line"/>
      <point x="150" y="564" type="line"/>
      <point x="304" y="564" type="line"/>
      <point x="304" y="433" type="line"/>
      <point x="436" y="433" type="line"/>
      <point x="436" y="279" type="line"/>
      <point x="304" y="279" type="line"/>
      <point x="304" y="148" type="line"/>
      <point x="150" y="148" type="line"/>
      <point x="150" y="279" type="line"/>
    </contour>
  </outline>
</glyph>
<glyph name="comma" format="1">
  <advance width="255"/>
  <unicode hex="002C"/>
  <outline>
    <contour>
      <point x="48" y="25" type="curve" smooth="yes"/>
      <point x="48" y="139" type="line" smooth="yes"/>
      <point x="48" y="157"/>
      <point x="57" y="166"/>
      <point x="73" y="166" type="curve" smooth="yes"/>
      <point x="184" y="166" type="line" smooth="yes"/>
      <point x="202" y="166"/>
      <point x="208" y="154"/>
      <point x="208" y="139" type="curve" smooth="yes"/>
      <point x="208" y="-11" type="line" smooth="yes"/>
      <point x="208" y="-135"/>
      <point x="53" y="-88"/>
      <point x="53" y="-88" type="curve"/>
      <point x="53" y="-26" type="line"/>
      <point x="83" y="-27"/>
      <point x="84" y="-15"/>
      <point x="84" y="-5" type="curve" smooth="yes"/>
      <point x="84" y="0" type="line"/>
      <point x="73" y="0" type="line" smooth="yes"/>
      <point x="59" y="0"/>
      <point x="48" y="8"/>
    </contour>
  </outline>
</glyph>
<glyph name="hyphen" format="1">
  <advance width="354"/>
  <unicode hex="002D"/>
  <note>
    GF Latin Plus glyph
  </note>
  <outline>
    <contour>
      <point x="20" y="213" type="line"/>
      <point x="334" y="213" type="line"/>
      <point x="334" y="367" type="line"/>
      <point x="20" y="367" type="line"/>
    </contour>
  </outline>
</glyph>
<glyph name="period" format="1">
  <advance width="257"/>
  <unicode hex="002E"/>
  <outline>
    <contour>
      <point x="48" y="23" type="curve" smooth="yes"/>
      <point x="48" y="140" type="line" smooth="yes"/>
      <point x="48" y="155"/>
      <point x="56" y="165"/>
      <point x="72" y="165" type="curve" smooth="yes"/>
      <point x="185" y="165" type="line" smooth="yes"/>
      <point x="203" y="165"/>
      <point x="210" y="156"/>
      <point x="210" y="140" type="curve" smooth="yes"/>
      <point x="210" y="23" type="line" smooth="yes"/>
      <point x="210" y="5"/>
      <point x="199" y="0"/>
      <point x="185" y="0" type="curve" smooth="yes"/>
      <point x="72" y="0" type="line" smooth="yes"/>
      <point x="58" y="0"/>
      <point x="48" y="9"/>
    </contour>
  </outline>
</glyph>
<glyph name="slash" format="1">
  <advance width="502"/>
  <unicode hex="002F"/>
  <outline>
    <contour>
      <point x="11" y="-72" type="line"/>
      <point x="292" y="770" type="line"/>
      <point x="491" y="770" type="line"/>
      <point x="210" y="-72" type="line"/>
    </contour>
  </outline>
</glyph>
<glyph name="zero" format="1">
  <advance width="621"/>
  <unicode hex="0030"/>
  <outline>
    <contour>
      <point x="233" y="233" type="line" smooth="yes"/>
      <point x="233" y="177"/>
      <point x="268" y="174"/>
      <point x="290" y="174" type="curve" smooth="yes"/>
      <point x="332" y="174" type="line" smooth="yes"/>
      <point x="365" y="174"/>
      <point x="388" y="178"/>
      <point x="388" y="232" type="curve" smooth="yes"/>
      <point x="388" y="500" type="line" smooth="yes"/>
      <point x="388" y="546"/>
      <point x="367" y="558"/>
      <point x="340" y="558" type="curve" smooth="yes"/>
      <point x="283" y="558" type="line" smooth="yes"/>
      <point x="231" y="558"/>
      <point x="233" y="513"/>
      <point x="233" y="500" type="curve" smooth="yes"/>
    </contour>
    <contour>
      <point x="39" y="192" type="curve" smooth="yes"/>
      <point x="39" y="530" type="line" smooth="yes"/>
      <point x="39" y="660"/>
      <point x="108" y="732"/>
      <point x="233" y="732" type="curve" smooth="yes"/>
      <point x="397" y="732" type="line" smooth="yes"/>
      <point x="542" y="732"/>
      <point x="582" y="644"/>
      <point x="582" y="540" type="curve" smooth="yes"/>
      <point x="582" y="192" type="line" smooth="yes"/>
      <point x="582" y="73"/>
      <point x="516" y="0"/>
      <point x="396" y="0" type="curve" smooth="yes"/>
      <point x="232" y="0" type="line" smooth="yes"/>
      <point x="102" y="0"/>
      <point x="39" y="72"/>
    </contour>
  </outline>
</glyph>
<glyph name="one" format="1">
  <advance width="379"/>
  <unicode hex="0031"/>
  <note>
    GF Latin Plus glyph
  </note>
  <outline>
    <contour>
      <point x="22" y="565" type="line"/>
      <point x="140" y="575" type="line"/>
      <point x="140" y="0" type="line"/>
      <point x="334" y="0" type="line"/>
      <point x="334" y="749" type="line"/>
      <point x="162" y="749" type="line"/>
      <point x="22" y="689" type="line"/>
    </contour>
  </outline>
</glyph>
<glyph name="two" format="1">
  <advance width="582"/>
  <unicode hex="0032"/>
  <outline>
    <contour>
      <point x="22" y="567" type="line"/>
      <point x="22" y="712" type="line"/>
      <point x="104" y="730"/>
      <point x="182" y="742"/>
      <point x="326" y="742" type="curve" smooth="yes"/>
      <point x="482" y="742"/>
      <point x="554" y="642"/>
      <point x="554" y="502" type="curve" smooth="yes"/>
      <point x="554" y="364"/>
      <point x="406" y="230"/>
      <point x="344" y="174" type="curve"/>
      <point x="554" y="174" type="line"/>
      <point x="554" y="0" type="line"/>
      <point x="30" y="0" type="line"/>
      <point x="30" y="168" type="line"/>
      <point x="111" y="222"/>
      <point x="360" y="424"/>
      <point x="360" y="499" type="curve" smooth="yes"/>
      <point x="360" y="560"/>
      <point x="327" y="567"/>
      <point x="246" y="567" type="curve" smooth="yes"/>
    </contour>
  </outline>
</glyph>
<glyph name="three" format="1">
  <advance width="575"/>
  <unicode hex="0033"/>
  <outline>
    <contour>
      <point x="44" y="575" type="line"/>
      <point x="248" y="575" type="line" smooth="yes"/>
      <point x="300" y="575"/>
      <point x="342" y="565"/>
      <point x="342" y="514" type="curve" smooth="yes"/>
      <point x="342" y="505" type="line" smooth="yes"/>
      <point x="342" y="474"/>
      <point x="317" y="457"/>
      <point x="264" y="454" type="curve" smooth="yes"/>
      <point x="95" y="443" type="line"/>
      <point x="95" y="303" type="line"/>
      <point x="248" y="296" type="line" smooth="yes"/>
      <point x="312" y="293"/>
      <point x="350" y="270"/>
      <point x="350" y="235" type="curve" smooth="yes"/>
      <point x="350" y="216" type="line" smooth="yes"/>
      <point x="350" y="179"/>
      <point x="330" y="167"/>
      <point x="252" y="167" type="curve" smooth="yes"/>
      <point x="34" y="167" type="line"/>
      <point x="34" y="21" type="line"/>
      <point x="119" y="4"/>
      <point x="221" y="-6"/>
      <point x="328" y="-6" type="curve" smooth="yes"/>
      <point x="462" y="-6"/>
      <point x="544" y="60"/>
      <point x="544" y="181" type="curve" smooth="yes"/>
      <point x="544" y="210" type="line" smooth="yes"/>
      <point x="544" y="290"/>
      <point x="513" y="353"/>
      <point x="450" y="373" type="curve"/>
      <point x="511" y="395"/>
      <point x="534" y="442"/>
      <point x="534" y="510" type="curve" smooth="yes"/>
      <point x="534" y="560" type="line" smooth="yes"/>
      <point x="534" y="688"/>
      <point x="455" y="747"/>
      <point x="327" y="749" type="curve" smooth="yes"/>
      <point x="228" y="751"/>
      <point x="130" y="736"/>
      <point x="44" y="721" type="curve"/>
    </contour>
  </outline>
</glyph>
<glyph name="four" format="1">
  <advance width="635"/>
  <unicode hex="0034"/>
  <outline>
    <contour>
      <point x="11" y="224" type="line"/>
      <point x="222" y="732" type="line"/>
      <point x="430" y="732" type="line"/>
      <point x="273" y="315" type="line"/>
      <point x="370" y="315" type="line"/>
      <point x="370" y="449" type="line"/>
      <point x="397" y="527" type="line"/>
      <point x="564" y="527" type="line"/>
      <point x="564" y="315" type="line"/>
      <point x="624" y="315" type="line"/>
      <point x="624" y="166" type="line"/>
      <point x="564" y="137" type="line"/>
      <point x="564" y="2" type="line"/>
      <point x="370" y="2" type="line"/>
      <point x="370" y="137" type="line"/>
      <point x="45" y="137" type="line"/>
    </contour>
  </outline>
</glyph>
<glyph name="five" format="1">
  <advance width="592"/>
  <unicode hex="0035"/>
  <outline>
    <contour>
      <point x="43" y="14" type="line"/>
      <point x="128" y="5"/>
      <point x="223" y="-6"/>
      <point x="298" y="-6" type="curve" smooth="yes"/>
      <point x="475" y="-6"/>
      <point x="560" y="49"/>
      <point x="560" y="186" type="curve" smooth="yes"/>
      <point x="560" y="295" type="line" smooth="yes"/>
      <point x="560" y="396"/>
      <point x="508.0" y="476"/>
      <point x="392" y="476" type="curve" smooth="yes"/>
      <point x="316" y="476" type="line" smooth="yes"/>
      <point x="291" y="476"/>
      <point x="266" y="470"/>
      <point x="247" y="456" type="curve"/>
      <point x="252" y="569" type="line"/>
      <point x="529" y="569" type="line"/>
      <point x="529" y="743" type="line"/>
      <point x="66" y="743" type="line"/>
      <point x="45" y="277" type="line"/>
      <point x="229" y="277" type="line"/>
      <point x="232" y="300"/>
      <point x="243.5581395348837" y="312"/>
      <point x="276" y="312" type="curve" smooth="yes"/>
      <point x="320" y="312" type="line" smooth="yes"/>
      <point x="356.4166666666667" y="312"/>
      <point x="366" y="292.0"/>
      <point x="366" y="259" type="curve" smooth="yes"/>
      <point x="366" y="228" type="line" smooth="yes"/>
      <point x="366" y="207.31034482758622"/>
      <point x="369.0" y="168"/>
      <point x="307" y="168" type="curve" smooth="yes"/>
      <point x="43" y="168" type="line"/>
    </contour>
  </outline>
</glyph>
<glyph name="six" format="1">
  <advance width="597"/>
  <unicode hex="0036"/>
  <outline>
    <contour>
      <point x="231" y="294" type="line"/>
      <point x="231" y="188"/>
      <point x="246" y="173"/>
      <point x="311" y="173" type="curve" smooth="yes"/>
      <point x="328" y="173" type="line" smooth="yes"/>
      <point x="361" y="173"/>
      <point x="371" y="182"/>
      <point x="371" y="219" type="curve" smooth="yes"/>
      <point x="371" y="239" type="line" smooth="yes"/>
      <point x="371" y="282"/>
      <point x="370" y="294"/>
      <point x="333" y="294" type="curve" smooth="yes"/>
    </contour>
    <contour>
      <point x="37" y="384" type="curve" smooth="yes"/>
      <point x="37" y="649"/>
      <point x="120" y="719"/>
      <point x="209" y="733" type="curve" smooth="yes"/>
      <point x="309" y="749"/>
      <point x="448" y="732"/>
      <point x="541" y="712" type="curve"/>
      <point x="541" y="564" type="line"/>
      <point x="322" y="564" type="line" smooth="yes"/>
      <point x="231" y="564"/>
      <point x="231" y="510"/>
      <point x="231" y="437" type="curve"/>
      <point x="268" y="456"/>
      <point x="300" y="458"/>
      <point x="384" y="458" type="curve" smooth="yes"/>
      <point x="530" y="458"/>
      <point x="565" y="378"/>
      <point x="565" y="269" type="curve" smooth="yes"/>
      <point x="565" y="178" type="line" smooth="yes"/>
      <point x="565" y="48"/>
      <point x="490" y="-1"/>
      <point x="374" y="-1" type="curve" smooth="yes"/>
      <point x="236" y="-1" type="line" smooth="yes"/>
      <point x="114" y="-1"/>
      <point x="37" y="69"/>
    </contour>
  </outline>
</glyph>
<glyph name="seven" format="1">
  <advance width="561"/>
  <unicode hex="0037"/>
  <outline>
    <contour>
      <point x="17" y="558" type="line"/>
      <point x="17" y="732" type="line"/>
      <point x="498" y="732" type="line"/>
      <point x="545" y="654" type="line"/>
      <point x="316" y="0" type="line"/>
      <point x="110" y="0" type="line"/>
      <point x="308" y="558" type="line"/>
    </contour>
  </outline>
</glyph>
<glyph name="eight" format="1">
  <advance width="618"/>
  <unicode hex="0038"/>
  <note>
    GF Latin Plus glyph
  </note>
  <outline>
    <contour>
      <point x="246" y="515" type="curve" smooth="yes"/>
      <point x="246" y="546" type="line" smooth="yes"/>
      <point x="246" y="583"/>
      <point x="259" y="585"/>
      <point x="283" y="585" type="curve" smooth="yes"/>
      <point x="335" y="585" type="line" smooth="yes"/>
      <point x="354" y="585"/>
      <point x="372" y="584"/>
      <point x="372" y="546" type="curve" smooth="yes"/>
      <point x="372" y="515" type="line" smooth="yes"/>
      <point x="372" y="478"/>
      <point x="370" y="462"/>
      <point x="335" y="462" type="curve" smooth="yes"/>
      <point x="283" y="462" type="line" smooth="yes"/>
      <point x="256" y="462"/>
      <point x="246" y="467"/>
    </contour>
    <contour>
      <point x="236" y="204" type="curve" smooth="yes"/>
      <point x="236" y="251" type="line" smooth="yes"/>
      <point x="236" y="278"/>
      <point x="251" y="298"/>
      <point x="283" y="298" type="curve" smooth="yes"/>
      <point x="337" y="298" type="line" smooth="yes"/>
      <point x="366" y="298"/>
      <point x="382" y="277"/>
      <point x="382" y="251" type="curve" smooth="yes"/>
      <point x="382" y="204" type="line" smooth="yes"/>
      <point x="382" y="176"/>
      <point x="379" y="158"/>
      <point x="335" y="158" type="curve" smooth="yes"/>
      <point x="283" y="158" type="line" smooth="yes"/>
      <point x="248" y="158"/>
      <point x="236" y="169"/>
    </contour>
    <contour>
      <point x="42" y="165" type="line" smooth="yes"/>
      <point x="42" y="19"/>
      <point x="146.05102040816325" y="-6"/>
      <point x="248" y="-6" type="curve" smooth="yes"/>
      <point x="383" y="-6" type="line" smooth="yes"/>
      <point x="485" y="-6"/>
      <point x="576" y="19"/>
      <point x="576" y="165" type="curve" smooth="yes"/>
      <point x="576" y="264" type="line" smooth="yes"/>
      <point x="576" y="301"/>
      <point x="570" y="377"/>
      <point x="501" y="394" type="curve"/>
      <point x="553.5215648221671" y="401.37144769433917"/>
      <point x="561" y="483"/>
      <point x="561" y="510" type="curve" smooth="yes"/>
      <point x="561" y="594" type="line" smooth="yes"/>
      <point x="561" y="708"/>
      <point x="475" y="749"/>
      <point x="380" y="749" type="curve" smooth="yes"/>
      <point x="238" y="749" type="line" smooth="yes"/>
      <point x="143" y="749"/>
      <point x="57" y="708"/>
      <point x="57" y="594" type="curve" smooth="yes"/>
      <point x="57" y="510" type="line" smooth="yes"/>
      <point x="57" y="457"/>
      <point x="55.54157090829882" y="411.6244090633514"/>
      <point x="116" y="380" type="curve"/>
      <point x="60" y="367"/>
      <point x="42" y="311"/>
      <point x="42" y="264" type="curve" smooth="yes"/>
    </contour>
  </outline>
</glyph>
<glyph name="colon" format="1">
  <advance width="257"/>
  <unicode hex="003A"/>
  <outline>
    <contour>
      <point x="48" y="389" type="curve" smooth="yes"/>
      <point x="48" y="506" type="line" smooth="yes"/>
      <point x="48" y="521"/>
      <point x="56" y="531"/>
      <point x="72" y="531" type="curve" smooth="yes"/>
      <point x="185" y="531" type="line" smooth="yes"/>
      <point x="203" y="531"/>
      <point x="210" y="522"/>
      <point x="210" y="506" type="curve" smooth="yes"/>
      <point x="210" y="389" type="line" smooth="yes"/>
      <point x="210" y="371"/>
      <point x="199" y="366"/>
      <point x="185" y="366" type="curve" smooth="yes"/>
      <point x="72" y="366" type="line" smooth="yes"/>
      <point x="58" y="366"/>
      <point x="48" y="375"/>
    </contour>
    <contour>
      <point x="48" y="23" type="curve" smooth="yes"/>
      <point x="48" y="140" type="line" smooth="yes"/>
      <point x="48" y="155"/>
      <point x="56" y="165"/>
      <point x="72" y="165" type="curve" smooth="yes"/>
      <point x="185" y="165" type="line" smooth="yes"/>
      <point x="203" y="165"/>
      <point x="210" y="156"/>
      <point x="210" y="140" type="curve" smooth="yes"/>
      <point x="210" y="23" type="line" smooth="yes"/>
      <point x="210" y="5"/>
      <point x="199" y="0"/>
      <point x="185" y="0" type="curve" smooth="yes"/>
      <point x="72" y="0" type="line" smooth="yes"/>
      <point x="58" y="0"/>
      <point x="48" y="9"/>
    </contour>
  </outline>
</glyph>
<glyph name="semicolon" format="1">
  <advance width="257"/>
  <unicode hex="003B"/>
  <outline>
    <contour>
      <point x="48" y="389" type="curve" smooth="yes"/>
      <point x="48" y="506" type="line" smooth="yes"/>
      <point x="48" y="521"/>
      <point x="56" y="531"/>
      <point x="72" y="531" type="curve" smooth="yes"/>
      <point x="185" y="531" type="line" smooth="yes"/>
      <point x="203" y="531"/>
      <point x="210" y="522"/>
      <point x="210" y="506" type="curve" smooth="yes"/>
      <point x="210" y="389" type="line" smooth="yes"/>
      <point x="210" y="371"/>
      <point x="199" y="366"/>
      <point x="185" y="366" type="curve" smooth="yes"/>
      <point x="72" y="366" type="line" smooth="yes"/>
      <point x="58" y="366"/>
      <point x="48" y="375"/>
    </contour>
    <contour>
      <point x="48" y="25" type="curve" smooth="yes"/>
      <point x="48" y="139" type="line" smooth="yes"/>
      <point x="48" y="157"/>
      <point x="57" y="166"/>
      <point x="73" y="166" type="curve" smooth="yes"/>
      <point x="184" y="166" type="line" smooth="yes"/>
      <point x="202" y="166"/>
      <point x="208" y="154"/>
      <point x="208" y="139" type="curve" smooth="yes"/>
      <point x="208" y="-11" type="line" smooth="yes"/>
      <point x="208" y="-135"/>
      <point x="53" y="-88"/>
      <point x="53" y="-88" type="curve"/>
      <point x="53" y="-26" type="line"/>
      <point x="83" y="-27"/>
      <point x="84" y="-15"/>
      <point x="84" y="-5" type="curve" smooth="yes"/>
      <point x="84" y="0" type="line"/>
      <point x="73" y="0" type="line" smooth="yes"/>
      <point x="59" y="0"/>
      <point x="48" y="8"/>
    </contour>
  </outline>
</glyph>
<glyph name="equal" format="1">
  <advance width="467"/>
  <unicode hex="003D"/>
  <outline>
    <contour>
      <point x="20" y="381" type="line"/>
      <point x="20" y="535" type="line"/>
      <point x="447" y="535" type="line"/>
      <point x="447" y="381" type="line"/>
    </contour>
    <contour>
      <point x="20" y="162" type="line"/>
      <point x="20" y="316" type="line"/>
      <point x="447" y="316" type="line"/>
      <point x="447" y="162" type="line"/>
    </contour>
  </outline>
</glyph>
<glyph name="question" format="1">
  <advance width="544"/>
  <unicode hex="003F"/>
  <outline>
    <contour>
      <point x="155" y="23" type="curve" smooth="yes"/>
      <point x="155" y="140" type="line" smooth="yes"/>
      <point x="155" y="155"/>
      <point x="163" y="165"/>
      <point x="179" y="165" type="curve" smooth="yes"/>
      <point x="292" y="165" type="line" smooth="yes"/>
      <point x="310" y="165"/>
      <point x="317" y="156"/>
      <point x="317" y="140" type="curve" smooth="yes"/>
      <point x="317" y="23" type="line" smooth="yes"/>
      <point x="317" y="5"/>
      <point x="306" y="0"/>
      <point x="292" y="0" type="curve" smooth="yes"/>
      <point x="179" y="0" type="line" smooth="yes"/>
      <point x="165" y="0"/>
      <point x="155" y="9"/>
    </contour>
    <contour>
      <point x="11" y="564" type="line"/>
      <point x="11" y="709" type="line"/>
      <point x="97" y="732"/>
      <point x="178" y="744"/>
      <point x="293" y="739" type="curve"/>
      <point x="445" y="739"/>
      <point x="522" y="632"/>
      <point x="522" y="534" type="curve" smooth="yes"/>
      <point x="522" y="483" type="line" smooth="yes"/>
      <point x="522" y="348"/>
      <point x="475" y="270"/>
      <point x="309" y="276" type="curve"/>
      <point x="309" y="195" type="line"/>
      <point x="164" y="195" type="line"/>
      <point x="164" y="417" type="line"/>
      <point x="256" y="417" type="line"/>
      <point x="305" y="419"/>
      <point x="329" y="434"/>
      <point x="329" y="487" type="curve" smooth="yes"/>
      <point x="329" y="502" type="line" smooth="yes"/>
      <point x="329" y="546"/>
      <point x="299" y="564"/>
      <point x="242" y="564" type="curve" smooth="yes"/>
    </contour>
  </outline>
</glyph>
<glyph name="at" format="1">
  <advance width="888"/>
  <unicode hex="0040"/>
  <outline>
    <contour>
      <point x="389" y="165" type="curve" smooth="yes"/>
      <point x="389" y="177" type="line" smooth="yes"/>
      <point x="389" y="201"/>
      <point x="398" y="204"/>
      <point x="426" y="206" type="curve" smooth="yes"/>
      <point x="497" y="212" type="line"/>
      <point x="497" y="169" type="line"/>
      <point x="483" y="142"/>
      <point x="453" y="135"/>
      <point x="424" y="135" type="curve" smooth="yes"/>
      <point x="397" y="135"/>
      <point x="389" y="144"/>
    </contour>
    <contour>
      <point x="37" y="20" type="line" smooth="yes"/>
      <point x="37" y="-161"/>
      <point x="153" y="-218"/>
      <point x="275" y="-218" type="curve" smooth="yes"/>
      <point x="604" y="-218" type="line" smooth="yes"/>
      <point x="751" y="-218"/>
      <point x="841" y="-148"/>
      <point x="841" y="40" type="curve" smooth="yes"/>
      <point x="841" y="452" type="line" smooth="yes"/>
      <point x="841" y="656"/>
      <point x="709" y="715"/>
      <point x="594" y="715" type="curve" smooth="yes"/>
      <point x="508" y="715" type="line" smooth="yes"/>
      <point x="382" y="715"/>
      <point x="238" y="698"/>
      <point x="190" y="688" type="curve"/>
      <point x="190" y="571" type="line"/>
      <point x="594" y="571" type="line" smooth="yes"/>
      <point x="655" y="571"/>
      <point x="697" y="529"/>
      <point x="697" y="452" type="curve" smooth="yes"/>
      <point x="697" y="40" type="line" smooth="yes"/>
      <point x="697" y="-28"/>
      <point x="676" y="-73"/>
      <point x="594" y="-73" type="curve" smooth="yes"/>
      <point x="275" y="-73" type="line" smooth="yes"/>
      <point x="235" y="-73"/>
      <point x="181" y="-50"/>
      <point x="181" y="40" type="curve" smooth="yes"/>
      <point x="181" y="278" type="line" smooth="yes"/>
      <point x="181" y="358"/>
      <point x="227" y="368"/>
      <point x="275" y="368" type="curve" smooth="yes"/>
      <point x="453" y="368" type="line" smooth="yes"/>
      <point x="484" y="368"/>
      <point x="497" y="363"/>
      <point x="497" y="330" type="curve"/>
      <point x="497" y="314" type="line"/>
      <point x="394" y="314" type="line" smooth="yes"/>
      <point x="294" y="314"/>
      <point x="235" y="269"/>
      <point x="235" y="171" type="curve" smooth="yes"/>
      <point x="235" y="138" type="line" smooth="yes"/>
      <point x="235" y="70"/>
      <point x="269" y="-9"/>
      <point x="363" y="-9" type="curve" smooth="yes"/>
      <point x="454" y="-9"/>
      <point x="497" y="54"/>
      <point x="499" y="54" type="curve"/>
      <point x="523" y="0" type="line"/>
      <point x="641" y="0" type="line"/>
      <point x="641" y="342" type="line" smooth="yes"/>
      <point x="641" y="500"/>
      <point x="544" y="512"/>
      <point x="448" y="512" type="curve" smooth="yes"/>
      <point x="275" y="512" type="line" smooth="yes"/>
      <point x="99" y="512"/>
      <point x="37" y="414"/>
      <point x="37" y="288" type="curve" smooth="yes"/>
    </contour>
  </outline>
</glyph>
<glyph name="A" format="1">
  <advance width="711"/>
  <unicode hex="0041"/>
  <outline>
    <contour>
      <point x="310" y="293" type="line"/>
      <point x="424" y="293" type="line"/>
      <point x="371" y="489" type="line"/>
    </contour>
    <contour>
      <point x="25" y="0" type="line"/>
      <point x="254" y="732" type="line"/>
      <point x="483" y="732" type="line"/>
      <point x="705" y="0" type="line"/>
      <point x="506" y="0" type="line"/>
      <point x="463" y="128" type="line"/>
      <point x="266" y="128" type="line"/>
      <point x="224" y="0" type="line"/>
    </contour>
  </outline>
</glyph>
<glyph name="B" format="1">
  <advance width="637.0"/>
  <unicode hex="0042"/>
  <outline>
    <contour>
      <point x="249" y="450" type="line"/>
      <point x="360" y="450" type="line" smooth="yes"/>
      <point x="388.66666666666663" y="450"/>
      <point x="403.0" y="473.0"/>
      <point x="403" y="503" type="curve" smooth="yes"/>
      <point x="403.0" y="545.0"/>
      <point x="381.0222222222222" y="558"/>
      <point x="360" y="558" type="curve" smooth="yes"/>
      <point x="249" y="558" type="line"/>
    </contour>
    <contour>
      <point x="249" y="174" type="line"/>
      <point x="368" y="174" type="line" smooth="yes"/>
      <point x="402" y="174"/>
      <point x="417" y="200"/>
      <point x="417" y="245" type="curve" smooth="yes"/>
      <point x="417" y="281"/>
      <point x="403" y="316"/>
      <point x="368" y="316" type="curve" smooth="yes"/>
      <point x="249" y="316" type="line"/>
    </contour>
    <contour>
      <point x="55" y="0" type="line"/>
      <point x="55" y="732" type="line"/>
      <point x="373" y="732" type="line" smooth="yes"/>
      <point x="529.0" y="732"/>
      <point x="593.0" y="659.8"/>
      <point x="593" y="542" type="curve" smooth="yes"/>
      <point x="593.0" y="454.60526315789474"/>
      <point x="561.2518548336492" y="396.0619950359752"/>
      <point x="496" y="380" type="curve"/>
      <point x="561.2452091389043" y="363.93964082734664"/>
      <point x="611.0" y="305.51282051282055"/>
      <point x="611" y="214" type="curve" smooth="yes"/>
      <point x="611.0" y="57.321428571428584"/>
      <point x="532.0" y="0"/>
      <point x="378" y="0" type="curve" smooth="yes"/>
    </contour>
  </outline>
</glyph>
<glyph name="C" format="1">
  <advance width="567"/>
  <unicode hex="0043"/>
  <outline>
    <contour>
      <point x="31" y="368" type="curve" smooth="yes"/>
      <point x="31" y="602"/>
      <point x="85" y="740"/>
      <point x="284" y="740" type="curve" smooth="yes"/>
      <point x="428" y="740"/>
      <point x="462" y="732"/>
      <point x="548" y="700" type="curve"/>
      <point x="548" y="549" type="line"/>
      <point x="547" y="549"/>
      <point x="447" y="566"/>
      <point x="344" y="566" type="curve" smooth="yes"/>
      <point x="260" y="566"/>
      <point x="225" y="570"/>
      <point x="225" y="366" type="curve" smooth="yes"/>
      <point x="225" y="202"/>
      <point x="244" y="168"/>
      <point x="345" y="168" type="curve" smooth="yes"/>
      <point x="450" y="168"/>
      <point x="548" y="177"/>
      <point x="548" y="177" type="curve"/>
      <point x="548" y="26" type="line"/>
      <point x="486" y="0"/>
      <point x="432" y="-9"/>
      <point x="284" y="-6" type="curve" smooth="yes"/>
      <point x="99" y="-3"/>
      <point x="31" y="122"/>
    </contour>
  </outline>
</glyph>
<glyph name="D" format="1">
  <advance width="688.0"/>
  <unicode hex="0044"/>
  <outline>
    <contour>
      <point x="249" y="174" type="line"/>
      <point x="249" y="558" type="line"/>
      <point x="363" y="558" type="line" smooth="yes"/>
      <point x="422" y="558"/>
      <point x="458" y="536"/>
      <point x="458" y="363" type="curve" smooth="yes"/>
      <point x="458" y="229"/>
      <point x="436" y="174"/>
      <point x="363" y="174" type="curve" smooth="yes"/>
    </contour>
    <contour>
      <point x="55" y="0" type="line"/>
      <point x="383" y="0" type="line" smooth="yes"/>
      <point x="564" y="0"/>
      <point x="652" y="107"/>
      <point x="652" y="363" type="curve" smooth="yes"/>
      <point x="652" y="570"/>
      <point x="598" y="732"/>
      <point x="383" y="732" type="curve" smooth="yes"/>
      <point x="55" y="732" type="line"/>
    </contour>
    <contour>
      <point x="334" y="850" type="move" name="top"/>
    </contour>
    <contour>
      <point x="290" y="-150" type="move" name="bottom"/>
    </contour>
  </outline>
</glyph>
<glyph name="E" format="1">
  <advance width="567"/>
  <unicode hex="0045"/>
  <outline>
    <contour>
      <point x="40" y="161" type="curve" smooth="yes"/>
      <point x="40" y="562" type="line" smooth="yes"/>
      <point x="40" y="712.773"/>
      <point x="155.3" y="732"/>
      <point x="226" y="732" type="curve"/>
      <point x="226" y="732"/>
      <point x="436" y="732"/>
      <point x="553" y="716" type="curve"/>
      <point x="553" y="553" type="line"/>
      <point x="286" y="553" type="line" smooth="yes"/>
      <point x="234" y="553"/>
      <point x="234" y="524"/>
      <point x="234" y="497" type="curve" smooth="yes"/>
      <point x="234" y="453" type="line"/>
      <point x="503" y="442" type="line"/>
      <point x="503" y="281" type="line"/>
      <point x="234" y="272" type="line"/>
      <point x="234" y="228" type="line" smooth="yes"/>
      <point x="234" y="175"/>
      <point x="267" y="176"/>
      <point x="296" y="176" type="curve" smooth="yes"/>
      <point x="553" y="176" type="line"/>
      <point x="553" y="14" type="line"/>
      <point x="450" y="0"/>
      <point x="236" y="-3"/>
      <point x="236" y="-3" type="curve"/>
      <point x="171.3" y="-5"/>
      <point x="40" y="8"/>
    </contour>
  </outline>
</glyph>
<glyph name="F" format="1">
  <advance width="593.0"/>
  <unicode hex="0046"/>
  <outline>
    <contour>
      <point x="55" y="0" type="line"/>
      <point x="249" y="0" type="line"/>
      <point x="249" y="264" type="line"/>
      <point x="518" y="274" type="line"/>
      <point x="518" y="428" type="line"/>
      <point x="249" y="438" type="line"/>
      <point x="249" y="522" type="line" smooth="yes"/>
      <point x="249" y="542"/>
      <point x="262.42857142857144" y="564"/>
      <point x="296" y="564" type="curve" smooth="yes"/>
      <point x="568" y="564" type="line"/>
      <point x="568" y="727" type="line"/>
      <point x="451.0" y="743.0"/>
      <point x="241" y="743"/>
      <point x="240" y="743" type="curve" smooth="yes"/>
      <point x="156" y="744"/>
      <point x="55" y="706"/>
      <point x="55" y="569" type="curve" smooth="yes"/>
    </contour>
    <contour>
      <point x="314" y="850" type="move" name="top"/>
    </contour>
  </outline>
</glyph>
<glyph name="G" format="1">
  <advance width="615"/>
  <unicode hex="0047"/>
  <outline>
    <contour>
      <point x="31" y="370" type="curve" smooth="yes"/>
      <point x="31" y="593"/>
      <point x="75" y="740"/>
      <point x="274" y="740" type="curve" smooth="yes"/>
      <point x="433" y="740"/>
      <point x="443" y="740"/>
      <point x="578" y="703" type="curve"/>
      <point x="578" y="554" type="line"/>
      <point x="572" y="554"/>
      <point x="461" y="576"/>
      <point x="334" y="576" type="curve" smooth="yes"/>
      <point x="241" y="576"/>
      <point x="225" y="531"/>
      <point x="225" y="368" type="curve" smooth="yes"/>
      <point x="225" y="204"/>
      <point x="231" y="173"/>
      <point x="319" y="173" type="curve" smooth="yes"/>
      <point x="381" y="173"/>
      <point x="391" y="219"/>
      <point x="391" y="219" type="curve"/>
      <point x="391" y="294" type="line"/>
      <point x="342" y="294" type="line"/>
      <point x="342" y="414" type="line"/>
      <point x="387" y="438"/>
      <point x="451" y="439"/>
      <point x="517" y="439" type="curve" smooth="yes"/>
      <point x="538" y="439"/>
      <point x="561" y="438"/>
      <point x="585" y="436" type="curve"/>
      <point x="585" y="0" type="line"/>
      <point x="448" y="0" type="line"/>
      <point x="393" y="49" type="line"/>
      <point x="365" y="12"/>
      <point x="349" y="0"/>
      <point x="269" y="-5" type="curve" smooth="yes"/>
      <point x="62" y="-18"/>
      <point x="31" y="164"/>
    </contour>
  </outline>
</glyph>
<glyph name="H" format="1">
  <advance width="636"/>
  <unicode hex="0048"/>
  <outline>
    <contour>
      <point x="45" y="0" type="line"/>
      <point x="45" y="732" type="line"/>
      <point x="239" y="732" type="line"/>
      <point x="239" y="441" type="line"/>
      <point x="409" y="441" type="line"/>
      <point x="409" y="732" type="line"/>
      <point x="603" y="732" type="line"/>
      <point x="603" y="0" type="line"/>
      <point x="409" y="0" type="line"/>
      <point x="409" y="267" type="line"/>
      <point x="239" y="267" type="line"/>
      <point x="239" y="0" type="line"/>
    </contour>
  </outline>
</glyph>
<glyph name="J" format="1">
  <advance width="355"/>
  <unicode hex="004A"/>
  <outline>
    <contour>
      <point x="20" y="25" type="curve"/>
      <point x="20" y="179" type="line"/>
      <point x="125" y="179"/>
      <point x="128" y="199"/>
      <point x="128" y="276" type="curve" smooth="yes"/>
      <point x="128" y="732" type="line"/>
      <point x="322" y="732" type="line"/>
      <point x="322" y="165" type="line" smooth="yes"/>
      <point x="322" y="118"/>
      <point x="318" y="50"/>
      <point x="268" y="18" type="curve" smooth="yes"/>
      <point x="215" y="-16"/>
      <point x="72" y="-9"/>
    </contour>
  </outline>
</glyph>
<glyph name="K" format="1">
  <advance width="660"/>
  <unicode hex="004B"/>
  <outline>
    <contour>
      <point x="45" y="0" type="line"/>
      <point x="45" y="732" type="line"/>
      <point x="229" y="732" type="line"/>
      <point x="229" y="444" type="line"/>
      <point x="269" y="444" type="line"/>
      <point x="418" y="732" type="line"/>
      <point x="641" y="732" type="line"/>
      <point x="440" y="364" type="line"/>
      <point x="641" y="0" type="line"/>
      <point x="418" y="0" type="line"/>
      <point x="269" y="280" type="line"/>
      <point x="230" y="280" type="line"/>
      <point x="230" y="0" type="line"/>
    </contour>
  </outline>
</glyph>
<glyph name="L" format="1">
  <advance width="537.0"/>
  <unicode hex="004C"/>
  <note>
    GF Latin Plus glyph
  </note>
  <outline>
    <contour>
      <point x="55" y="183" type="line" smooth="yes"/>
      <point x="55" y="55"/>
      <point x="110" y="0"/>
      <point x="238" y="0" type="curve" smooth="yes"/>
      <point x="517" y="0" type="line"/>
      <point x="517" y="174" type="line"/>
      <point x="301" y="174" type="line" smooth="yes"/>
      <point x="266" y="174"/>
      <point x="249" y="191"/>
      <point x="249" y="226" type="curve" smooth="yes"/>
      <point x="249" y="743" type="line"/>
      <point x="55" y="743" type="line"/>
    </contour>
    <contour>
      <point x="152" y="810" type="move" name="top"/>
    </contour>
    <contour>
      <point x="300" y="-150" type="move" name="bottom"/>
    </contour>
  </outline>
</glyph>
<glyph name="M" format="1">
  <advance width="886"/>
  <unicode hex="004D"/>
  <outline>
    <contour>
      <point x="31" y="0" type="line"/>
      <point x="109" y="732" type="line"/>
      <point x="379" y="732" type="line"/>
      <point x="441" y="321" type="line"/>
      <point x="507" y="732" type="line"/>
      <point x="777" y="732" type="line"/>
      <point x="856" y="0" type="line"/>
      <point x="665" y="0" type="line"/>
      <point x="615" y="399" type="line"/>
      <point x="554" y="0" type="line"/>
      <point x="332" y="0" type="line"/>
      <point x="268" y="399" type="line"/>
      <point x="222" y="0" type="line"/>
    </contour>
  </outline>
</glyph>
<glyph name="N" format="1">
  <advance width="677"/>
  <unicode hex="004E"/>
  <outline>
    <contour>
      <point x="45" y="0" type="line"/>
      <point x="45" y="732" type="line"/>
      <point x="241" y="732" type="line"/>
      <point x="450" y="358" type="line"/>
      <point x="450" y="732" type="line"/>
      <point x="644" y="732" type="line"/>
      <point x="644" y="0" type="line"/>
      <point x="450" y="0" type="line"/>
      <point x="240" y="364" type="line"/>
      <point x="240" y="0" type="line"/>
    </contour>
  </outline>
</glyph>
<glyph name="O" format="1">
  <advance width="667"/>
  <unicode hex="004F"/>
  <outline>
    <contour>
      <point x="231" y="361" type="curve" smooth="yes"/>
      <point x="231" y="208"/>
      <point x="242" y="170"/>
      <point x="340" y="170" type="curve" smooth="yes"/>
      <point x="426" y="170"/>
      <point x="449" y="206"/>
      <point x="449" y="361" type="curve" smooth="yes"/>
      <point x="449" y="531"/>
      <point x="431" y="563"/>
      <point x="340" y="563" type="curve" smooth="yes"/>
      <point x="252" y="563"/>
      <point x="231" y="540"/>
    </contour>
    <contour>
      <point x="37" y="361" type="curve" smooth="yes"/>
      <point x="37" y="704"/>
      <point x="172" y="737"/>
      <point x="340" y="737" type="curve" smooth="yes"/>
      <point x="513" y="737"/>
      <point x="643" y="704"/>
      <point x="643" y="361" type="curve" smooth="yes"/>
      <point x="643" y="38"/>
      <point x="520" y="-4"/>
      <point x="340" y="-4" type="curve" smooth="yes"/>
      <point x="160" y="-4"/>
      <point x="37" y="28"/>
    </contour>
  </outline>
</glyph>
<glyph name="P" format="1">
  <advance width="620"/>
  <unicode hex="0050"/>
  <outline>
    <contour>
      <point x="238" y="412" type="line"/>
      <point x="350" y="412" type="line" smooth="yes"/>
      <point x="388" y="412"/>
      <point x="401" y="441"/>
      <point x="401" y="492" type="curve" smooth="yes"/>
      <point x="401" y="542"/>
      <point x="385" y="567"/>
      <point x="350" y="567" type="curve" smooth="yes"/>
      <point x="238" y="567" type="line"/>
    </contour>
    <contour>
      <point x="44" y="0" type="line"/>
      <point x="44" y="732" type="line"/>
      <point x="370" y="732" type="line" smooth="yes"/>
      <point x="472" y="732"/>
      <point x="596" y="707"/>
      <point x="596" y="495" type="curve" smooth="yes"/>
      <point x="596" y="260"/>
      <point x="462" y="241"/>
      <point x="370" y="248" type="curve" smooth="yes"/>
      <point x="330" y="251"/>
      <point x="243" y="265"/>
      <point x="238" y="268" type="curve"/>
      <point x="238" y="0" type="line"/>
    </contour>
  </outline>
</glyph>
<glyph name="Q" format="1">
  <advance width="667"/>
  <unicode hex="0051"/>
  <outline>
    <contour>
      <point x="286" y="-33" type="curve"/>
      <point x="388" y="-33" type="line"/>
      <point x="394" y="-94"/>
      <point x="486" y="-80"/>
      <point x="546" y="-68" type="curve"/>
      <point x="546" y="-208" type="line"/>
      <point x="422" y="-226"/>
      <point x="287" y="-184"/>
    </contour>
    <contour>
      <point x="231" y="361" type="curve" smooth="yes"/>
      <point x="231" y="208"/>
      <point x="242" y="170"/>
      <point x="340" y="170" type="curve" smooth="yes"/>
      <point x="426" y="170"/>
      <point x="449" y="206"/>
      <point x="449" y="361" type="curve" smooth="yes"/>
      <point x="449" y="531"/>
      <point x="431" y="563"/>
      <point x="340" y="563" type="curve" smooth="yes"/>
      <point x="252" y="563"/>
      <point x="231" y="540"/>
    </contour>
    <contour>
      <point x="37" y="361" type="curve" smooth="yes"/>
      <point x="37" y="704"/>
      <point x="172" y="737"/>
      <point x="340" y="737" type="curve" smooth="yes"/>
      <point x="513" y="737"/>
      <point x="643" y="704"/>
      <point x="643" y="361" type="curve" smooth="yes"/>
      <point x="643" y="38"/>
      <point x="520" y="-2"/>
      <point x="340" y="-4" type="curve"/>
      <point x="160" y="-4"/>
      <point x="37" y="28"/>
    </contour>
  </outline>
</glyph>
<glyph name="R" format="1">
  <advance width="619"/>
  <unicode hex="0052"/>
  <outline>
    <contour>
      <point x="239" y="419" type="line"/>
      <point x="346" y="419" type="line" smooth="yes"/>
      <point x="397" y="419"/>
      <point x="400" y="445"/>
      <point x="400" y="497" type="curve" smooth="yes"/>
      <point x="400" y="541"/>
      <point x="390" y="567"/>
      <point x="346" y="567" type="curve" smooth="yes"/>
      <point x="239" y="567" type="line"/>
    </contour>
    <contour>
      <point x="44" y="0" type="line"/>
      <point x="44" y="732" type="line"/>
      <point x="371" y="732" type="line" smooth="yes"/>
      <point x="501" y="732"/>
      <point x="595" y="679"/>
      <point x="595" y="497" type="curve" smooth="yes"/>
      <point x="595" y="323"/>
      <point x="538" y="297"/>
      <point x="487" y="277" type="curve"/>
      <point x="613" y="0" type="line"/>
      <point x="392" y="0" type="line"/>
      <point x="298" y="259" type="line"/>
      <point x="238" y="273" type="line"/>
      <point x="238" y="0" type="line"/>
    </contour>
  </outline>
</glyph>
<glyph name="S" format="1">
  <advance width="596"/>
  <unicode hex="0053"/>
  <outline>
    <contour>
      <point x="37" y="479" type="curve" smooth="yes"/>
      <point x="37" y="540" type="line" smooth="yes"/>
      <point x="37" y="671"/>
      <point x="123" y="731"/>
      <point x="235" y="738" type="curve" smooth="yes"/>
      <point x="382.766" y="747.235"/>
      <point x="471" y="732"/>
      <point x="545" y="705" type="curve"/>
      <point x="545" y="554" type="line"/>
      <point x="481" y="561"/>
      <point x="371" y="564"/>
      <point x="305" y="564" type="curve" smooth="yes"/>
      <point x="251" y="564"/>
      <point x="231" y="562"/>
      <point x="231" y="520" type="curve" smooth="yes"/>
      <point x="231" y="509" type="line" smooth="yes"/>
      <point x="231" y="478"/>
      <point x="237" y="461"/>
      <point x="291" y="461" type="curve" smooth="yes"/>
      <point x="385" y="461" type="line" smooth="yes"/>
      <point x="537" y="461"/>
      <point x="572" y="329"/>
      <point x="572" y="249" type="curve" smooth="yes"/>
      <point x="572" y="216" type="line" smooth="yes"/>
      <point x="572" y="30"/>
      <point x="468" y="-8"/>
      <point x="369" y="-8" type="curve" smooth="yes"/>
      <point x="182" y="-8"/>
      <point x="160" y="-8"/>
      <point x="60" y="26" type="curve"/>
      <point x="60" y="177" type="line"/>
      <point x="100" y="173"/>
      <point x="226" y="166"/>
      <point x="319" y="166" type="curve" smooth="yes"/>
      <point x="362" y="166"/>
      <point x="378" y="177"/>
      <point x="378" y="207" type="curve" smooth="yes"/>
      <point x="378" y="223" type="line" smooth="yes"/>
      <point x="378" y="252"/>
      <point x="369" y="267"/>
      <point x="325" y="267" type="curve" smooth="yes"/>
      <point x="235" y="267" type="line" smooth="yes"/>
      <point x="45" y="267"/>
      <point x="37" y="432"/>
    </contour>
  </outline>
</glyph>
<glyph name="T" format="1">
  <advance width="607"/>
  <unicode hex="0054"/>
  <outline>
    <contour>
      <point x="20" y="558" type="line"/>
      <point x="20" y="732" type="line"/>
      <point x="588" y="732" type="line"/>
      <point x="588" y="558" type="line"/>
      <point x="398" y="558" type="line"/>
      <point x="398" y="0" type="line"/>
      <point x="204" y="0" type="line"/>
      <point x="204" y="558" type="line"/>
    </contour>
  </outline>
</glyph>
<glyph name="U" format="1">
  <advance width="712.0"/>
  <unicode hex="0055"/>
  <outline>
    <contour>
      <point x="55" y="245" type="line" smooth="yes"/>
      <point x="55" y="36.964285714285694"/>
      <point x="191.53608247422682" y="-5.0"/>
      <point x="356" y="-5" type="curve" smooth="yes"/>
      <point x="520.4639175257732" y="-5.0"/>
      <point x="657" y="37.0"/>
      <point x="657" y="245" type="curve" smooth="yes"/>
      <point x="657" y="743" type="line"/>
      <point x="463" y="743" type="line"/>
      <point x="463" y="246" type="line" smooth="yes"/>
      <point x="463" y="194.0"/>
      <point x="424.3917525773196" y="169.0"/>
      <point x="356" y="169" type="curve" smooth="yes"/>
      <point x="287.6082474226804" y="169.0"/>
      <point x="249" y="194.18691588785046"/>
      <point x="249" y="246" type="curve" smooth="yes"/>
      <point x="249" y="743" type="line"/>
      <point x="55" y="743" type="line"/>
    </contour>
    <contour>
      <point x="344" y="850" type="move" name="top"/>
    </contour>
    <contour>
      <point x="344" y="-150" type="move" name="bottom"/>
    </contour>
    <contour>
      <point x="432" y="0" type="move" name="ogonek"/>
    </contour>
  </outline>
</glyph>
<glyph name="V" format="1">
  <advance width="692.0"/>
  <unicode hex="0056"/>
  <outline>
    <contour>
      <point x="5" y="743" type="line"/>
      <point x="235" y="0" type="line"/>
      <point x="457" y="0" type="line"/>
      <point x="687" y="743" type="line"/>
      <point x="488" y="743" type="line"/>
      <point x="348" y="221" type="line"/>
      <point x="206" y="743" type="line"/>
    </contour>
  </outline>
</glyph>
<glyph name="W" format="1">
  <advance width="1018"/>
  <unicode hex="0057"/>
  <outline>
    <contour>
      <point x="25" y="732" type="line"/>
      <point x="229" y="732" type="line"/>
      <point x="350" y="238" type="line"/>
      <point x="441" y="732" type="line"/>
      <point x="645" y="732" type="line"/>
      <point x="608" y="580" type="line"/>
      <point x="710" y="238" type="line"/>
      <point x="801" y="732" type="line"/>
      <point x="1005" y="732" type="line"/>
      <point x="826" y="0" type="line"/>
      <point x="592" y="0" type="line"/>
      <point x="525" y="239" type="line"/>
      <point x="466" y="0" type="line"/>
      <point x="232" y="0" type="line"/>
    </contour>
  </outline>
</glyph>
<glyph name="X" format="1">
  <advance width="679"/>
  <unicode hex="0058"/>
  <outline>
    <contour>
      <point x="25" y="732" type="line"/>
      <point x="240" y="732" type="line"/>
      <point x="345" y="529" type="line"/>
      <point x="450" y="732" type="line"/>
      <point x="665" y="732" type="line"/>
      <point x="442" y="363" type="line"/>
      <point x="660" y="0" type="line"/>
      <point x="445" y="0" type="line"/>
      <point x="345" y="196" type="line"/>
      <point x="243" y="0" type="line"/>
      <point x="28" y="0" type="line"/>
      <point x="247" y="363" type="line"/>
    </contour>
  </outline>
</glyph>
<glyph name="Y" format="1">
  <advance width="679"/>
  <unicode hex="0059"/>
  <outline>
    <contour>
      <point x="25" y="732" type="line"/>
      <point x="236" y="732" type="line"/>
      <point x="341" y="408" type="line"/>
      <point x="454" y="732" type="line"/>
      <point x="665" y="732" type="line"/>
      <point x="434" y="200" type="line"/>
      <point x="434" y="0" type="line"/>
      <point x="240" y="0" type="line"/>
      <point x="240" y="200" type="line"/>
    </contour>
  </outline>
</glyph>
<glyph name="Z" format="1">
  <advance width="583"/>
  <unicode hex="005A"/>
  <note>
    GF Latin Plus glyph
  </note>
  <outline>
    <contour>
      <point x="35" y="0" type="line"/>
      <point x="548" y="0" type="line"/>
      <point x="548" y="174" type="line"/>
      <point x="271" y="174" type="line"/>
      <point x="548" y="589" type="line"/>
      <point x="548" y="743" type="line"/>
      <point x="35" y="743" type="line"/>
      <point x="35" y="569" type="line"/>
      <point x="312" y="569" type="line"/>
      <point x="35" y="154" type="line"/>
    </contour>
    <contour>
      <point x="285" y="810" type="move" name="top"/>
    </contour>
    <contour>
      <point x="285" y="-150" type="move" name="bottom"/>
    </contour>
  </outline>
</glyph>
<glyph name="underscore" format="1">
  <advance width="674"/>
  <unicode hex="005F"/>
  <outline>
    <contour>
      <point x="20" y="-1" type="line"/>
      <point x="20" y="153" type="line"/>
      <point x="654" y="153" type="line"/>
      <point x="654" y="-1" type="line"/>
    </contour>
  </outline>
</glyph>
<glyph name="grave" format="1">
  <advance width="244"/>
  <unicode hex="0060"/>
  <outline>
    <contour>
      <point x="11" y="774" type="line"/>
      <point x="119" y="631" type="line"/>
      <point x="233" y="631" type="line"/>
      <point x="165" y="774" type="line"/>
    </contour>
  </outline>
</glyph>
<glyph name="a" format="1">
  <advance width="519"/>
  <unicode hex="0061"/>
  <outline>
    <contour>
      <point x="216" y="172" type="curve" smooth="yes"/>
      <point x="216" y="183" type="line" smooth="yes"/>
      <point x="216" y="204"/>
      <point x="224" y="220"/>
      <point x="246" y="222" type="curve" smooth="yes"/>
      <point x="298" y="227" type="line"/>
      <point x="298" y="153" type="line"/>
      <point x="288" y="144"/>
      <point x="269" y="138"/>
      <point x="253" y="138" type="curve" smooth="yes"/>
      <point x="229" y="138"/>
      <point x="216" y="146"/>
    </contour>
    <contour>
      <point x="22" y="143" type="line" smooth="yes"/>
      <point x="22" y="57"/>
      <point x="90" y="-6"/>
      <point x="180" y="-6" type="curve" smooth="yes"/>
      <point x="239" y="-6"/>
      <point x="282" y="20"/>
      <point x="308" y="54" type="curve"/>
      <point x="338" y="0" type="line"/>
      <point x="492" y="0" type="line"/>
      <point x="492" y="357" type="line" smooth="yes"/>
      <point x="492" y="506"/>
      <point x="408" y="541"/>
      <point x="278" y="541" type="curve" smooth="yes"/>
      <point x="169" y="541"/>
      <point x="99" y="524"/>
      <point x="40" y="501" type="curve"/>
      <point x="40" y="384" type="line"/>
      <point x="94" y="391"/>
      <point x="211" y="395"/>
      <point x="241" y="395" type="curve" smooth="yes"/>
      <point x="291" y="395"/>
      <point x="298" y="383"/>
      <point x="298" y="343" type="curve" smooth="yes"/>
      <point x="298" y="336" type="line"/>
      <point x="196" y="336" type="line" smooth="yes"/>
      <point x="57" y="336"/>
      <point x="22" y="255"/>
      <point x="22" y="180" type="curve" smooth="yes"/>
    </contour>
  </outline>
</glyph>
<glyph name="b" format="1">
  <advance width="559"/>
  <unicode hex="0062"/>
  <outline>
    <contour>
      <point x="229" y="173" type="line"/>
      <point x="239" y="156"/>
      <point x="263" y="151"/>
      <point x="294" y="151" type="curve" smooth="yes"/>
      <point x="323" y="151"/>
      <point x="338" y="164"/>
      <point x="338" y="273" type="curve" smooth="yes"/>
      <point x="338" y="386"/>
      <point x="322" y="400"/>
      <point x="294" y="400" type="curve" smooth="yes"/>
      <point x="269" y="400"/>
      <point x="239" y="396"/>
      <point x="229" y="385" type="curve"/>
    </contour>
    <contour>
      <point x="34" y="0" type="line"/>
      <point x="34" y="785" type="line"/>
      <point x="228" y="785" type="line"/>
      <point x="228" y="509" type="line"/>
      <point x="264" y="528"/>
      <point x="315" y="539"/>
      <point x="360" y="539" type="curve" smooth="yes"/>
      <point x="504" y="539"/>
      <point x="532" y="452"/>
      <point x="532" y="263" type="curve" smooth="yes"/>
      <point x="532" y="70"/>
      <point x="479" y="-6"/>
      <point x="360" y="-6" type="curve" smooth="yes"/>
      <point x="301" y="-6"/>
      <point x="268" y="16"/>
      <point x="229" y="49" type="curve"/>
      <point x="200" y="0" type="line"/>
    </contour>
  </outline>
</glyph>
<glyph name="c" format="1">
  <advance width="490"/>
  <unicode hex="0063"/>
  <outline>
    <contour>
      <point x="28" y="266" type="curve" smooth="yes"/>
      <point x="28" y="474"/>
      <point x="101" y="536"/>
      <point x="203" y="536" type="curve" smooth="yes"/>
      <point x="255" y="536"/>
      <point x="359" y="541"/>
      <point x="461" y="500" type="curve"/>
      <point x="461" y="386" type="line"/>
      <point x="461" y="386"/>
      <point x="401" y="392"/>
      <point x="312" y="392" type="curve" smooth="yes"/>
      <point x="244" y="392"/>
      <point x="222" y="394"/>
      <point x="222" y="264" type="curve" smooth="yes"/>
      <point x="222" y="142"/>
      <point x="240" y="139"/>
      <point x="312" y="139" type="curve" smooth="yes"/>
      <point x="404" y="139"/>
      <point x="468" y="147"/>
      <point x="468" y="147" type="curve"/>
      <point x="468" y="33" type="line"/>
      <point x="393" y="-20"/>
      <point x="286" y="-4"/>
      <point x="203" y="-5" type="curve"/>
      <point x="104" y="-5"/>
      <point x="28" y="58"/>
    </contour>
  </outline>
</glyph>
<glyph name="d" format="1">
  <advance width="559"/>
  <unicode hex="0064"/>
  <outline>
    <contour>
      <point x="222" y="273" type="curve" smooth="yes"/>
      <point x="222" y="164"/>
      <point x="237" y="151"/>
      <point x="266" y="151" type="curve" smooth="yes"/>
      <point x="297" y="151"/>
      <point x="321" y="156"/>
      <point x="331" y="173" type="curve"/>
      <point x="331" y="385" type="line"/>
      <point x="321" y="396"/>
      <point x="291" y="400"/>
      <point x="266" y="400" type="curve" smooth="yes"/>
      <point x="238" y="400"/>
      <point x="222" y="386"/>
    </contour>
    <contour>
      <point x="28" y="263" type="curve" smooth="yes"/>
      <point x="28" y="460"/>
      <point x="56" y="539"/>
      <point x="200" y="539" type="curve" smooth="yes"/>
      <point x="245" y="539"/>
      <point x="296" y="528"/>
      <point x="332" y="509" type="curve"/>
      <point x="332" y="785" type="line"/>
      <point x="526" y="785" type="line"/>
      <point x="526" y="0" type="line"/>
      <point x="360" y="0" type="line"/>
      <point x="331" y="49" type="line"/>
      <point x="292" y="16"/>
      <point x="259" y="-6"/>
      <point x="200" y="-6" type="curve" smooth="yes"/>
      <point x="81" y="-6"/>
      <point x="28" y="62"/>
    </contour>
  </outline>
</glyph>
<glyph name="e" format="1">
  <advance width="525"/>
  <unicode hex="0065"/>
  <outline>
    <contour>
      <point x="222" y="318" type="curve"/>
      <point x="280" y="318" type="line" smooth="yes"/>
      <point x="297" y="318"/>
      <point x="309" y="331"/>
      <point x="309" y="350" type="curve" smooth="yes"/>
      <point x="309" y="386"/>
      <point x="308" y="401"/>
      <point x="274" y="401" type="curve" smooth="yes"/>
      <point x="232" y="401"/>
      <point x="220" y="394"/>
    </contour>
    <contour>
      <point x="28" y="268" type="curve" smooth="yes"/>
      <point x="28" y="489"/>
      <point x="88" y="535"/>
      <point x="260" y="535" type="curve" smooth="yes"/>
      <point x="437" y="535"/>
      <point x="503" y="513"/>
      <point x="503" y="337" type="curve" smooth="yes"/>
      <point x="503" y="228"/>
      <point x="442" y="195"/>
      <point x="346" y="195" type="curve" smooth="yes"/>
      <point x="222" y="195" type="line"/>
      <point x="222" y="123"/>
      <point x="269" y="138"/>
      <point x="343" y="138" type="curve" smooth="yes"/>
      <point x="415" y="138"/>
      <point x="418" y="138"/>
      <point x="493" y="149" type="curve"/>
      <point x="493" y="23" type="line"/>
      <point x="423" y="-9"/>
      <point x="286" y="-5"/>
      <point x="203" y="-5" type="curve" smooth="yes"/>
      <point x="68" y="-5"/>
      <point x="28" y="84"/>
    </contour>
  </outline>
</glyph>
<glyph name="f" format="1">
  <advance width="407"/>
  <unicode hex="0066"/>
  <outline>
    <contour>
      <point x="11" y="397" type="line"/>
      <point x="11" y="514" type="line"/>
      <point x="83" y="531" type="line"/>
      <point x="83" y="630" type="line" smooth="yes"/>
      <point x="83" y="751"/>
      <point x="147" y="786"/>
      <point x="267" y="786" type="curve" smooth="yes"/>
      <point x="316" y="786"/>
      <point x="357" y="782"/>
      <point x="396" y="762" type="curve"/>
      <point x="396" y="651" type="line"/>
      <point x="395" y="651"/>
      <point x="323" y="652"/>
      <point x="323" y="652" type="curve" smooth="yes"/>
      <point x="273" y="653"/>
      <point x="277" y="632"/>
      <point x="277" y="570" type="curve" smooth="yes"/>
      <point x="277" y="531" type="line"/>
      <point x="375" y="531" type="line"/>
      <point x="375" y="397" type="line"/>
      <point x="277" y="397" type="line"/>
      <point x="277" y="0" type="line"/>
      <point x="83" y="0" type="line"/>
      <point x="83" y="397" type="line"/>
    </contour>
  </outline>
</glyph>
<glyph name="g" format="1">
  <advance width="583.0"/>
  <unicode hex="0067"/>
  <outline>
    <contour>
      <point x="225" y="348" type="curve" smooth="yes"/>
      <point x="225" y="382"/>
      <point x="236" y="395"/>
      <point x="270" y="395" type="curve" smooth="yes"/>
      <point x="305" y="395" type="line" smooth="yes"/>
      <point x="339" y="395"/>
      <point x="350" y="382"/>
      <point x="350" y="348" type="curve" smooth="yes"/>
      <point x="350" y="314"/>
      <point x="339" y="299"/>
      <point x="305" y="299" type="curve" smooth="yes"/>
      <point x="270" y="299" type="line" smooth="yes"/>
      <point x="236" y="299"/>
      <point x="225" y="314"/>
    </contour>
    <contour>
      <point x="41" y="350" type="curve" smooth="yes"/>
      <point x="41" y="296"/>
      <point x="63" y="237"/>
      <point x="120" y="200" type="curve"/>
      <point x="59.14939035714992" y="185.0367353337254"/>
      <point x="21.0" y="145.5"/>
      <point x="21" y="91" type="curve" smooth="yes"/>
      <point x="21.0" y="23.692307692307693"/>
      <point x="67.0" y="-34"/>
      <point x="262" y="-34" type="curve" smooth="yes"/>
      <point x="340" y="-34" type="line" smooth="yes"/>
      <point x="369" y="-34"/>
      <point x="390" y="-46"/>
      <point x="390" y="-69" type="curve" smooth="yes"/>
      <point x="390" y="-81" type="line" smooth="yes"/>
      <point x="390" y="-104"/>
      <point x="369" y="-116"/>
      <point x="340" y="-116" type="curve" smooth="yes"/>
      <point x="244" y="-116" type="line" smooth="yes"/>
      <point x="209" y="-116"/>
      <point x="195" y="-98"/>
      <point x="195" y="-77" type="curve" smooth="yes"/>
      <point x="195" y="-72" type="line" smooth="yes"/>
      <point x="195" y="-50"/>
      <point x="210" y="-34"/>
      <point x="244" y="-34" type="curve"/>
      <point x="183" y="32" type="line"/>
      <point x="93" y="32"/>
      <point x="11" y="-15"/>
      <point x="11" y="-90" type="curve" smooth="yes"/>
      <point x="11" y="-101" type="line" smooth="yes"/>
      <point x="11" y="-195"/>
      <point x="88" y="-250"/>
      <point x="187" y="-250" type="curve" smooth="yes"/>
      <point x="364" y="-250" type="line" smooth="yes"/>
      <point x="509" y="-250"/>
      <point x="574" y="-182"/>
      <point x="574" y="-70" type="curve" smooth="yes"/>
      <point x="574" y="-61" type="line" smooth="yes"/>
      <point x="574" y="67"/>
      <point x="495" y="110"/>
      <point x="373" y="110" type="curve" smooth="yes"/>
      <point x="235" y="110" type="line" smooth="yes"/>
      <point x="213.0" y="110"/>
      <point x="195.0" y="114.03846153846153"/>
      <point x="195" y="131" type="curve" smooth="yes"/>
      <point x="195" y="148"/>
      <point x="213.0" y="155"/>
      <point x="235" y="155" type="curve" smooth="yes"/>
      <point x="337" y="155" type="line" smooth="yes"/>
      <point x="476" y="155"/>
      <point x="534" y="220"/>
      <point x="534" y="320" type="curve" smooth="yes"/>
      <point x="534" y="366"/>
      <point x="527" y="394"/>
      <point x="513" y="415" type="curve"/>
      <point x="570" y="433" type="line"/>
      <point x="570" y="539" type="line"/>
      <point x="276" y="539" type="line" smooth="yes"/>
      <point x="108" y="539"/>
      <point x="41" y="487"/>
    </contour>
    <contour>
      <point x="290.0" y="650.0" type="move" name="top"/>
    </contour>
  </outline>
</glyph>
<glyph name="h" format="1">
  <advance width="555"/>
  <unicode hex="0068"/>
  <outline>
    <contour>
      <point x="34" y="0" type="line"/>
      <point x="34" y="782" type="line"/>
      <point x="227" y="782" type="line"/>
      <point x="227" y="479" type="line"/>
      <point x="257" y="508"/>
      <point x="293" y="540"/>
      <point x="374" y="540" type="curve" smooth="yes"/>
      <point x="512" y="540"/>
      <point x="528" y="452"/>
      <point x="528" y="340" type="curve" smooth="yes"/>
      <point x="528" y="0" type="line"/>
      <point x="334" y="0" type="line"/>
      <point x="334" y="344" type="line" smooth="yes"/>
      <point x="334" y="386"/>
      <point x="323" y="396"/>
      <point x="301" y="396" type="curve" smooth="yes"/>
      <point x="264" y="396"/>
      <point x="240" y="386"/>
      <point x="228" y="359" type="curve"/>
      <point x="228" y="0" type="line"/>
    </contour>
  </outline>
</glyph>
<glyph name="i" format="1">
  <advance width="280.0"/>
  <unicode hex="0069"/>
  <outline>
    <contour>
      <point x="42" y="614" type="line" smooth="yes"/>
      <point x="42" y="600"/>
      <point x="52" y="591"/>
      <point x="66" y="591" type="curve" smooth="yes"/>
      <point x="216" y="591" type="line" smooth="yes"/>
      <point x="230" y="591"/>
      <point x="238" y="599"/>
      <point x="238" y="614" type="curve" smooth="yes"/>
      <point x="238" y="721" type="line" smooth="yes"/>
      <point x="238" y="735"/>
      <point x="231" y="746"/>
      <point x="216" y="746" type="curve" smooth="yes"/>
      <point x="66" y="746" type="line" smooth="yes"/>
      <point x="50" y="746"/>
      <point x="42" y="736"/>
      <point x="42" y="721" type="curve" smooth="yes"/>
    </contour>
    <component base="dotlessi"/>
  </outline>
</glyph>
<glyph name="j" format="1">
  <advance width="264"/>
  <unicode hex="006A"/>
  <outline>
    <contour>
      <point x="36" y="-270" type="line"/>
      <point x="36" y="531" type="line"/>
      <point x="230" y="531" type="line"/>
      <point x="230" y="-4" type="line"/>
      <point x="231" y="-90"/>
      <point x="229" y="-192"/>
      <point x="184" y="-270" type="curve"/>
    </contour>
    <contour>
      <point x="34" y="604" type="curve" smooth="yes"/>
      <point x="34" y="721" type="line" smooth="yes"/>
      <point x="34" y="736"/>
      <point x="42" y="746"/>
      <point x="58" y="746" type="curve" smooth="yes"/>
      <point x="208" y="746" type="line" smooth="yes"/>
      <point x="223" y="746"/>
      <point x="231" y="735"/>
      <point x="231" y="721" type="curve" smooth="yes"/>
      <point x="231" y="604" type="line" smooth="yes"/>
      <point x="231" y="589"/>
      <point x="222" y="581"/>
      <point x="208" y="581" type="curve" smooth="yes"/>
      <point x="58" y="581" type="line" smooth="yes"/>
      <point x="44" y="581"/>
      <point x="34" y="590"/>
    </contour>
  </outline>
</glyph>
<glyph name="k" format="1">
  <advance width="605"/>
  <unicode hex="006B"/>
  <outline>
    <contour>
      <point x="34" y="0" type="line"/>
      <point x="34" y="782" type="line"/>
      <point x="228" y="782" type="line"/>
      <point x="228" y="362" type="line"/>
      <point x="248" y="362" type="line"/>
      <point x="356" y="531" type="line"/>
      <point x="594" y="531" type="line"/>
      <point x="425" y="295" type="line"/>
      <point x="594" y="0" type="line"/>
      <point x="367" y="0" type="line"/>
      <point x="248" y="228" type="line"/>
      <point x="228" y="228" type="line"/>
      <point x="228" y="0" type="line"/>
    </contour>
  </outline>
</glyph>
<glyph name="l" format="1">
  <advance width="325"/>
  <unicode hex="006C"/>
  <outline>
    <contour>
      <point x="34" y="189" type="curve" smooth="yes"/>
      <point x="34" y="783" type="line"/>
      <point x="228" y="783" type="line"/>
      <point x="228" y="229" type="line" smooth="yes"/>
      <point x="228" y="160"/>
      <point x="243" y="146"/>
      <point x="265" y="134" type="curve"/>
      <point x="265" y="134"/>
      <point x="307" y="113"/>
      <point x="314" y="113" type="curve"/>
      <point x="314" y="0" type="line"/>
      <point x="176" y="0" type="line" smooth="yes"/>
      <point x="81" y="0"/>
      <point x="34" y="48"/>
    </contour>
  </outline>
</glyph>
<glyph name="n" format="1">
  <advance width="605.0"/>
  <unicode hex="006E"/>
  <outline>
    <contour>
      <point x="47" y="0" type="line"/>
      <point x="47" y="531" type="line"/>
      <point x="209" y="531" type="line"/>
      <point x="241" y="479" type="line"/>
      <point x="274" y="509"/>
      <point x="336" y="540"/>
      <point x="393" y="540" type="curve" smooth="yes"/>
      <point x="533" y="540"/>
      <point x="561" y="452"/>
      <point x="561" y="340" type="curve" smooth="yes"/>
      <point x="561" y="0" type="line"/>
      <point x="367" y="0" type="line"/>
      <point x="367" y="344" type="line" smooth="yes"/>
      <point x="367" y="385"/>
      <point x="345" y="396"/>
      <point x="314" y="396" type="curve" smooth="yes"/>
      <point x="287" y="396"/>
      <point x="258" y="382"/>
      <point x="241" y="365" type="curve"/>
      <point x="241" y="0" type="line"/>
    </contour>
  </outline>
</glyph>
<glyph name="o" format="1">
  <advance width="558.0"/>
  <unicode hex="006F"/>
  <outline>
    <contour>
      <point x="224" y="258" type="curve" smooth="yes"/>
      <point x="224" y="153"/>
      <point x="238" y="139"/>
      <point x="279" y="139" type="curve" smooth="yes"/>
      <point x="324" y="139"/>
      <point x="334" y="147"/>
      <point x="334" y="258" type="curve" smooth="yes"/>
      <point x="334" y="373"/>
      <point x="325" y="392"/>
      <point x="279" y="392" type="curve" smooth="yes"/>
      <point x="230" y="392"/>
      <point x="224" y="372"/>
    </contour>
    <contour>
      <point x="30" y="258" type="curve" smooth="yes"/>
      <point x="30" y="475"/>
      <point x="95" y="536"/>
      <point x="279" y="536" type="curve" smooth="yes"/>
      <point x="465" y="536"/>
      <point x="528" y="469"/>
      <point x="528" y="258" type="curve" smooth="yes"/>
      <point x="528" y="61"/>
      <point x="470" y="-5"/>
      <point x="279" y="-5" type="curve" smooth="yes"/>
      <point x="92" y="-5"/>
      <point x="30" y="68"/>
    </contour>
  </outline>
</glyph>
<glyph name="p" format="1">
  <advance width="559"/>
  <unicode hex="0070"/>
  <outline>
    <contour>
      <point x="229" y="146" type="line"/>
      <point x="239" y="135"/>
      <point x="269" y="131"/>
      <point x="294" y="131" type="curve" smooth="yes"/>
      <point x="322" y="131"/>
      <point x="338" y="145"/>
      <point x="338" y="258" type="curve" smooth="yes"/>
      <point x="338" y="367"/>
      <point x="323" y="380"/>
      <point x="294" y="380" type="curve" smooth="yes"/>
      <point x="263" y="380"/>
      <point x="239" y="375"/>
      <point x="229" y="358" type="curve"/>
    </contour>
    <contour>
      <point x="34" y="-270" type="line"/>
      <point x="34" y="531" type="line"/>
      <point x="200" y="531" type="line"/>
      <point x="229" y="482" type="line"/>
      <point x="268" y="515"/>
      <point x="301" y="537"/>
      <point x="360" y="537" type="curve" smooth="yes"/>
      <point x="479" y="537"/>
      <point x="532" y="458"/>
      <point x="532" y="268" type="curve" smooth="yes"/>
      <point x="532" y="100"/>
      <point x="504" y="-8"/>
      <point x="360" y="-8" type="curve" smooth="yes"/>
      <point x="315" y="-8"/>
      <point x="264" y="3"/>
      <point x="228" y="22" type="curve"/>
      <point x="228" y="-270" type="line"/>
    </contour>
  </outline>
</glyph>
<glyph name="q" format="1">
  <advance width="555"/>
  <unicode hex="0071"/>
  <outline>
    <contour>
      <point x="222" y="275" type="curve" smooth="yes"/>
      <point x="222" y="163"/>
      <point x="227" y="130"/>
      <point x="279" y="130" type="curve" smooth="yes"/>
      <point x="299" y="130"/>
      <point x="316" y="134"/>
      <point x="328" y="149" type="curve"/>
      <point x="328" y="403" type="line"/>
      <point x="281" y="403" type="line" smooth="yes"/>
      <point x="223" y="403"/>
      <point x="222" y="335"/>
    </contour>
    <contour>
      <point x="28" y="268" type="curve" smooth="yes"/>
      <point x="28" y="468"/>
      <point x="106" y="537"/>
      <point x="231" y="537" type="curve" smooth="yes"/>
      <point x="337" y="537"/>
      <point x="468" y="523"/>
      <point x="522" y="501" type="curve"/>
      <point x="522" y="-270" type="line"/>
      <point x="328" y="-270" type="line"/>
      <point x="328" y="29" type="line"/>
      <point x="306" y="0"/>
      <point x="276" y="-10"/>
      <point x="231" y="-10" type="curve" smooth="yes"/>
      <point x="78" y="-10"/>
      <point x="28" y="76"/>
    </contour>
  </outline>
</glyph>
<glyph name="r" format="1">
  <advance width="410"/>
  <unicode hex="0072"/>
  <outline>
    <contour>
      <point x="34" y="0" type="line"/>
      <point x="34" y="531" type="line"/>
      <point x="206" y="531" type="line"/>
      <point x="228" y="464" type="line"/>
      <point x="245" y="500"/>
      <point x="290" y="536"/>
      <point x="343" y="536" type="curve" smooth="yes"/>
      <point x="361" y="536"/>
      <point x="374" y="536"/>
      <point x="390" y="531" type="curve"/>
      <point x="390" y="345" type="line"/>
      <point x="374" y="345"/>
      <point x="342" y="345"/>
      <point x="311" y="345" type="curve" smooth="yes"/>
      <point x="271" y="345"/>
      <point x="228" y="345"/>
      <point x="228" y="285" type="curve" smooth="yes"/>
      <point x="228" y="0" type="line"/>
    </contour>
  </outline>
</glyph>
<glyph name="s" format="1">
  <advance width="508.0"/>
  <unicode hex="0073"/>
  <outline>
    <contour>
      <point x="26" y="347" type="line" smooth="yes"/>
      <point x="26" y="239"/>
      <point x="100" y="182"/>
      <point x="211" y="182" type="curve" smooth="yes"/>
      <point x="251" y="182" type="line" smooth="yes"/>
      <point x="283" y="182"/>
      <point x="288" y="174"/>
      <point x="288" y="161" type="curve" smooth="yes"/>
      <point x="288" y="158" type="line" smooth="yes"/>
      <point x="288" y="145"/>
      <point x="284" y="138"/>
      <point x="258" y="138" type="curve" smooth="yes"/>
      <point x="38" y="138" type="line"/>
      <point x="38" y="4" type="line"/>
      <point x="79" y="0"/>
      <point x="170" y="-6"/>
      <point x="247" y="-6" type="curve" smooth="yes"/>
      <point x="405" y="-6"/>
      <point x="482" y="34"/>
      <point x="482" y="143" type="curve" smooth="yes"/>
      <point x="482" y="206" type="line" smooth="yes"/>
      <point x="482" y="285"/>
      <point x="435" y="356"/>
      <point x="303" y="356" type="curve" smooth="yes"/>
      <point x="260" y="356" type="line" smooth="yes"/>
      <point x="230" y="356"/>
      <point x="220" y="361"/>
      <point x="220" y="377" type="curve" smooth="yes"/>
      <point x="220" y="380" type="line" smooth="yes"/>
      <point x="220" y="395"/>
      <point x="229" y="400"/>
      <point x="249" y="400" type="curve" smooth="yes"/>
      <point x="456" y="400" type="line"/>
      <point x="456" y="534" type="line"/>
      <point x="420.3630590046336" y="539.4826063069794"/>
      <point x="333" y="544"/>
      <point x="260" y="544" type="curve" smooth="yes"/>
      <point x="75" y="544"/>
      <point x="26" y="484"/>
      <point x="26" y="380" type="curve" smooth="yes"/>
    </contour>
  </outline>
</glyph>
<glyph name="t" format="1">
  <advance width="403.0"/>
  <unicode hex="0074"/>
  <outline>
    <contour>
      <point x="5" y="385" type="line"/>
      <point x="88" y="385" type="line"/>
      <point x="82" y="203" type="line" smooth="yes"/>
      <point x="77" y="49"/>
      <point x="129" y="0"/>
      <point x="267" y="0" type="curve" smooth="yes"/>
      <point x="379" y="0" type="line"/>
      <point x="379" y="144" type="line"/>
      <point x="310" y="151" type="line" smooth="yes"/>
      <point x="285" y="154"/>
      <point x="274" y="169"/>
      <point x="274" y="204" type="curve" smooth="yes"/>
      <point x="274" y="385" type="line"/>
      <point x="383" y="385" type="line"/>
      <point x="383" y="539" type="line"/>
      <point x="274" y="539" type="line"/>
      <point x="274" y="690" type="line"/>
      <point x="139" y="690" type="line"/>
      <point x="96" y="539" type="line"/>
      <point x="5" y="509" type="line"/>
    </contour>
  </outline>
</glyph>
<glyph name="u" format="1">
  <advance width="555"/>
  <unicode hex="0075"/>
  <outline>
    <contour>
      <point x="28" y="191" type="curve" smooth="yes"/>
      <point x="28" y="531" type="line"/>
      <point x="222" y="531" type="line"/>
      <point x="222" y="187" type="line" smooth="yes"/>
      <point x="222" y="145"/>
      <point x="233" y="135"/>
      <point x="255" y="135" type="curve" smooth="yes"/>
      <point x="292" y="135"/>
      <point x="316" y="145"/>
      <point x="328" y="172" type="curve"/>
      <point x="328" y="531" type="line"/>
      <point x="522" y="531" type="line"/>
      <point x="522" y="0" type="line"/>
      <point x="360" y="0" type="line"/>
      <point x="328" y="52" type="line"/>
      <point x="282" y="23"/>
      <point x="263" y="-9"/>
      <point x="182" y="-9" type="curve" smooth="yes"/>
      <point x="44" y="-9"/>
      <point x="28" y="79"/>
    </contour>
  </outline>
</glyph>
<glyph name="v" format="1">
  <advance width="588"/>
  <unicode hex="0076"/>
  <outline>
    <contour>
      <point x="11" y="531" type="line"/>
      <point x="217" y="531" type="line"/>
      <point x="292" y="209" type="line"/>
      <point x="372" y="531" type="line"/>
      <point x="577" y="531" type="line"/>
      <point x="401" y="0" type="line"/>
      <point x="177" y="0" type="line"/>
    </contour>
  </outline>
</glyph>
<glyph name="w" format="1">
  <advance width="847"/>
  <unicode hex="0077"/>
  <outline>
    <contour>
      <point x="11" y="531" type="line"/>
      <point x="217" y="531" type="line"/>
      <point x="282" y="209" type="line"/>
      <point x="342" y="531" type="line"/>
      <point x="530" y="531" type="line"/>
      <point x="507" y="410" type="line"/>
      <point x="572" y="209" type="line"/>
      <point x="630" y="531" type="line"/>
      <point x="837" y="531" type="line"/>
      <point x="691" y="0" type="line"/>
      <point x="467" y="0" type="line"/>
      <point x="419" y="137" type="line"/>
      <point x="381" y="0" type="line"/>
      <point x="157" y="0" type="line"/>
    </contour>
  </outline>
</glyph>
<glyph name="x" format="1">
  <advance width="564.0"/>
  <unicode hex="0078"/>
  <note>
    GF Latin Plus glyph
  </note>
  <outline>
    <contour>
      <point x="0" y="0" type="line"/>
      <point x="206" y="0" type="line"/>
      <point x="289" y="152" type="line"/>
      <point x="210" y="336" type="line"/>
    </contour>
    <contour>
      <point x="263" y="364" type="line"/>
      <point x="354" y="200" type="line"/>
      <point x="564" y="539" type="line"/>
      <point x="358" y="539" type="line"/>
    </contour>
    <contour>
      <point x="0" y="539" type="line"/>
      <point x="355" y="0" type="line"/>
      <point x="564" y="0" type="line"/>
      <point x="209" y="539" type="line"/>
    </contour>
  </outline>
</glyph>
<glyph name="y" format="1">
  <advance width="599"/>
  <unicode hex="0079"/>
  <outline>
    <contour>
      <point x="12" y="531" type="line"/>
      <point x="213" y="531" type="line"/>
      <point x="274" y="195" type="line" smooth="yes"/>
      <point x="280" y="164"/>
      <point x="301" y="157"/>
      <point x="317" y="156" type="curve"/>
      <point x="386" y="531" type="line"/>
      <point x="583" y="531" type="line"/>
      <point x="440" y="-168" type="line"/>
      <point x="369" y="-270" type="line"/>
      <point x="225" y="-270" type="line"/>
      <point x="284" y="0" type="line"/>
      <point x="167" y="0"/>
      <point x="115" y="66"/>
      <point x="95" y="156" type="curve" smooth="yes"/>
    </contour>
  </outline>
</glyph>
<glyph name="z" format="1">
  <advance width="512.0"/>
  <unicode hex="007A"/>
  <outline>
    <contour>
      <point x="30" y="385" type="line"/>
      <point x="248" y="385" type="line"/>
      <point x="41" y="144" type="line"/>
      <point x="41" y="0" type="line"/>
      <point x="482" y="0" type="line"/>
      <point x="482" y="0"/>
      <point x="483" y="153"/>
      <point x="482" y="154" type="curve"/>
      <point x="275" y="154" type="line"/>
      <point x="482" y="395" type="line"/>
      <point x="482" y="539" type="line"/>
      <point x="30" y="539" type="line"/>
    </contour>
    <contour>
      <point x="250" y="650" type="move" name="top"/>
    </contour>
    <contour>
      <point x="250" y="-150" type="move" name="bottom"/>
    </contour>
  </outline>
</glyph>
<glyph name="braceleft" format="1">
  <advance width="322"/>
  <unicode hex="007B"/>
  <outline>
    <contour>
      <point x="11" y="265" type="curve"/>
      <point x="11" y="402" type="line"/>
      <point x="44" y="405"/>
      <point x="71" y="417"/>
      <point x="71" y="455" type="curve" smooth="yes"/>
      <point x="71" y="656" type="line" smooth="yes"/>
      <point x="71" y="776"/>
      <point x="147" y="842"/>
      <point x="311" y="842" type="curve"/>
      <point x="311" y="688" type="line"/>
      <point x="269" y="688"/>
      <point x="265" y="667"/>
      <point x="265" y="576" type="curve" smooth="yes"/>
      <point x="265" y="440" type="line" smooth="yes"/>
      <point x="265" y="366"/>
      <point x="225" y="339"/>
      <point x="160" y="334" type="curve"/>
      <point x="225" y="321"/>
      <point x="264" y="288"/>
      <point x="264" y="231" type="curve" smooth="yes"/>
      <point x="264" y="32" type="line" smooth="yes"/>
      <point x="264" y="-33"/>
      <point x="265" y="-66"/>
      <point x="311" y="-66" type="curve"/>
      <point x="311" y="-210" type="line"/>
      <point x="135" y="-210"/>
      <point x="70" y="-162"/>
      <point x="70" y="-38" type="curve" smooth="yes"/>
      <point x="70" y="212" type="line" smooth="yes"/>
      <point x="70" y="246"/>
      <point x="51" y="268"/>
    </contour>
  </outline>
</glyph>
<glyph name="bar" format="1">
  <advance width="250"/>
  <unicode hex="007C"/>
  <outline>
    <contour>
      <point x="48" y="-72" type="line"/>
      <point x="202" y="-72" type="line"/>
      <point x="202" y="770" type="line"/>
      <point x="48" y="770" type="line"/>
    </contour>
  </outline>
</glyph>
<glyph name="braceright" format="1">
  <advance width="322"/>
  <unicode hex="007D"/>
  <outline>
    <contour>
      <point x="11" y="-66" type="line"/>
      <point x="57" y="-66"/>
      <point x="58" y="-33"/>
      <point x="58" y="32" type="curve" smooth="yes"/>
      <point x="58" y="231" type="line" smooth="yes"/>
      <point x="58" y="288"/>
      <point x="97" y="321"/>
      <point x="162" y="334" type="curve"/>
      <point x="97" y="339"/>
      <point x="57" y="366"/>
      <point x="57" y="440" type="curve" smooth="yes"/>
      <point x="57" y="576" type="line" smooth="yes"/>
      <point x="57" y="667"/>
      <point x="53" y="688"/>
      <point x="11" y="688" type="curve"/>
      <point x="11" y="842" type="line"/>
      <point x="175" y="842"/>
      <point x="251" y="776"/>
      <point x="251" y="656" type="curve" smooth="yes"/>
      <point x="251" y="455" type="line" smooth="yes"/>
      <point x="251" y="417"/>
      <point x="278" y="405"/>
      <point x="311" y="402" type="curve"/>
      <point x="311" y="265" type="line"/>
      <point x="271" y="268"/>
      <point x="252" y="246"/>
      <point x="252" y="212" type="curve" smooth="yes"/>
      <point x="252" y="-38" type="line" smooth="yes"/>
      <point x="252" y="-162"/>
      <point x="187" y="-210"/>
      <point x="11" y="-210" type="curve"/>
    </contour>
  </outline>
</glyph>
<glyph name="asciitilde" format="1">
  <advance width="404"/>
  <unicode hex="007E"/>
  <outline>
    <contour>
      <point x="28" y="598" type="line"/>
      <point x="53" y="634"/>
      <point x="95" y="672"/>
      <point x="151" y="672" type="curve" smooth="yes"/>
      <point x="195" y="672"/>
      <point x="217" y="637"/>
      <point x="257" y="637" type="curve"/>
      <point x="297" y="635"/>
      <point x="328" y="654"/>
      <point x="350" y="677" type="curve"/>
      <point x="376" y="603" type="line"/>
      <point x="354" y="570"/>
      <point x="315" y="531"/>
      <point x="264" y="531" type="curve" smooth="yes"/>
      <point x="221" y="531"/>
      <point x="187" y="566"/>
      <point x="148" y="566" type="curve" smooth="yes"/>
      <point x="109" y="566"/>
      <point x="86" y="555"/>
      <point x="55" y="531" type="curve"/>
    </contour>
  </outline>
</glyph>
<glyph name="exclamdown" format="1">
  <advance width="282"/>
  <unicode hex="00A1"/>
  <outline>
    <contour>
      <point x="47" y="-270" type="line"/>
      <point x="67" y="265" type="line"/>
      <point x="214" y="265" type="line"/>
      <point x="233" y="-270" type="line"/>
    </contour>
    <contour>
      <point x="59" y="323" type="curve" smooth="yes"/>
      <point x="59" y="438" type="line" smooth="yes"/>
      <point x="59" y="452"/>
      <point x="69" y="460"/>
      <point x="83" y="461" type="curve"/>
      <point x="197" y="461" type="line"/>
      <point x="209" y="460"/>
      <point x="221" y="449"/>
      <point x="221" y="435" type="curve" smooth="yes"/>
      <point x="221" y="323" type="line" smooth="yes"/>
      <point x="221" y="310"/>
      <point x="216" y="296"/>
      <point x="199" y="296" type="curve" smooth="yes"/>
      <point x="83" y="296" type="line" smooth="yes"/>
      <point x="70" y="296"/>
      <point x="59" y="304"/>
    </contour>
  </outline>
</glyph>
<glyph name="cent" format="1">
  <advance width="485"/>
  <unicode hex="00A2"/>
  <outline>
    <contour>
      <point x="22" y="266" type="curve" smooth="yes"/>
      <point x="22" y="474"/>
      <point x="96" y="536"/>
      <point x="198" y="536" type="curve"/>
      <point x="198" y="634" type="line"/>
      <point x="306" y="634" type="line"/>
      <point x="306" y="534" type="line"/>
      <point x="352" y="530"/>
      <point x="404" y="521"/>
      <point x="456" y="500" type="curve"/>
      <point x="456" y="386" type="line"/>
      <point x="456" y="386"/>
      <point x="395" y="392"/>
      <point x="306" y="392" type="curve" smooth="yes"/>
      <point x="238" y="392"/>
      <point x="216" y="394"/>
      <point x="216" y="264" type="curve" smooth="yes"/>
      <point x="216" y="142"/>
      <point x="234" y="139"/>
      <point x="306" y="139" type="curve" smooth="yes"/>
      <point x="398" y="139"/>
      <point x="462" y="147"/>
      <point x="462" y="147" type="curve"/>
      <point x="462" y="33" type="line"/>
      <point x="416" y="1"/>
      <point x="359" y="-6"/>
      <point x="302" y="-6" type="curve"/>
      <point x="302" y="-95" type="line"/>
      <point x="194" y="-95" type="line"/>
      <point x="194" y="-5" type="line"/>
      <point x="97" y="-3"/>
      <point x="22" y="61"/>
    </contour>
  </outline>
</glyph>
<glyph name="sterling" format="1">
  <advance width="572"/>
  <unicode hex="00A3"/>
  <outline>
    <contour>
      <point x="28" y="0" type="line"/>
      <point x="28" y="149" type="line"/>
      <point x="90" y="174" type="line"/>
      <point x="90" y="300" type="line"/>
      <point x="28" y="300" type="line"/>
      <point x="28" y="395" type="line"/>
      <point x="90" y="422" type="line"/>
      <point x="90" y="465" type="line" smooth="yes"/>
      <point x="90" y="692"/>
      <point x="190" y="732"/>
      <point x="368" y="732" type="curve" smooth="yes"/>
      <point x="425" y="732"/>
      <point x="544" y="716"/>
      <point x="544" y="716" type="curve"/>
      <point x="544" y="559" type="line"/>
      <point x="360" y="559" type="line" smooth="yes"/>
      <point x="302" y="559"/>
      <point x="284" y="552"/>
      <point x="284" y="487" type="curve" smooth="yes"/>
      <point x="284" y="422" type="line"/>
      <point x="465" y="405" type="line"/>
      <point x="465" y="300" type="line"/>
      <point x="284" y="300" type="line"/>
      <point x="284" y="174" type="line"/>
      <point x="543" y="174" type="line"/>
      <point x="543" y="0" type="line"/>
    </contour>
  </outline>
</glyph>
<glyph name="currency" format="1">
  <advance width="437"/>
  <unicode hex="00A4"/>
  <outline>
    <contour>
      <point x="158" y="309" type="curve" smooth="yes"/>
      <point x="158" y="274"/>
      <point x="186" y="246"/>
      <point x="221" y="246" type="curve" smooth="yes"/>
      <point x="256" y="246"/>
      <point x="284" y="274"/>
      <point x="284" y="309" type="curve" smooth="yes"/>
      <point x="284" y="344"/>
      <point x="256" y="373"/>
      <point x="221" y="373" type="curve" smooth="yes"/>
      <point x="186" y="373"/>
      <point x="158" y="344"/>
    </contour>
    <contour>
      <point x="29" y="429" type="line"/>
      <point x="84" y="488" type="line"/>
      <point x="133" y="441" type="line"/>
      <point x="158" y="458"/>
      <point x="189" y="468"/>
      <point x="221" y="468" type="curve" smooth="yes"/>
      <point x="251" y="468"/>
      <point x="279" y="459"/>
      <point x="303" y="444" type="curve"/>
      <point x="348" y="492" type="line"/>
      <point x="409" y="439" type="line"/>
      <point x="359" y="387" type="line"/>
      <point x="372" y="364"/>
      <point x="379" y="337"/>
      <point x="379" y="309" type="curve" smooth="yes"/>
      <point x="379" y="274"/>
      <point x="368" y="242"/>
      <point x="349" y="216" type="curve"/>
      <point x="394" y="173" type="line"/>
      <point x="342" y="112" type="line"/>
      <point x="286" y="165" type="line"/>
      <point x="266" y="156"/>
      <point x="244" y="151"/>
      <point x="221" y="151" type="curve" smooth="yes"/>
      <point x="191" y="151"/>
      <point x="162" y="160"/>
      <point x="138" y="175" type="curve"/>
      <point x="92" y="126" type="line"/>
      <point x="33" y="182" type="line"/>
      <point x="83" y="233" type="line"/>
      <point x="71" y="256"/>
      <point x="63" y="281"/>
      <point x="63" y="309" type="curve" smooth="yes"/>
      <point x="63" y="335"/>
      <point x="69" y="360"/>
      <point x="80" y="381" type="curve"/>
    </contour>
  </outline>
</glyph>
<glyph name="yen" format="1">
  <advance width="662"/>
  <unicode hex="00A5"/>
  <outline>
    <contour>
      <point x="11" y="732" type="line"/>
      <point x="222" y="732" type="line"/>
      <point x="327" y="408" type="line"/>
      <point x="440" y="732" type="line"/>
      <point x="651" y="732" type="line"/>
      <point x="485" y="351" type="line"/>
      <point x="538" y="351" type="line"/>
      <point x="538" y="252" type="line"/>
      <point x="420" y="252" type="line"/>
      <point x="420" y="227" type="line"/>
      <point x="538" y="227" type="line"/>
      <point x="538" y="128" type="line"/>
      <point x="420" y="128" type="line"/>
      <point x="420" y="0" type="line"/>
      <point x="226" y="0" type="line"/>
      <point x="226" y="128" type="line"/>
      <point x="111" y="128" type="line"/>
      <point x="111" y="227" type="line"/>
      <point x="226" y="227" type="line"/>
      <point x="226" y="252" type="line"/>
      <point x="111" y="252" type="line"/>
      <point x="111" y="351" type="line"/>
      <point x="165" y="351" type="line"/>
    </contour>
  </outline>
</glyph>
<glyph name="section" format="1">
  <advance width="532"/>
  <unicode hex="00A7"/>
  <outline>
    <contour>
      <point x="225" y="377" type="line" smooth="yes"/>
      <point x="225" y="348"/>
      <point x="239" y="344"/>
      <point x="261" y="344" type="curve" smooth="yes"/>
      <point x="271" y="344" type="line" smooth="yes"/>
      <point x="302" y="344"/>
      <point x="309" y="350"/>
      <point x="309" y="378" type="curve"/>
      <point x="310" y="379"/>
      <point x="309" y="396"/>
      <point x="309" y="396" type="curve" smooth="yes"/>
      <point x="309" y="416"/>
      <point x="307" y="430"/>
      <point x="271" y="430" type="curve" smooth="yes"/>
      <point x="261" y="430" type="line" smooth="yes"/>
      <point x="225" y="430"/>
      <point x="225" y="414"/>
      <point x="225" y="394" type="curve" smooth="yes"/>
    </contour>
    <contour>
      <point x="32" y="323" type="curve" smooth="yes"/>
      <point x="32" y="335" type="line" smooth="yes"/>
      <point x="32" y="367"/>
      <point x="25" y="443"/>
      <point x="106" y="468" type="curve"/>
      <point x="33" y="503"/>
      <point x="31" y="559"/>
      <point x="31" y="590" type="curve" smooth="yes"/>
      <point x="31" y="620" type="line" smooth="yes"/>
      <point x="31" y="718"/>
      <point x="77" y="784"/>
      <point x="181" y="784" type="curve" smooth="yes"/>
      <point x="279" y="784"/>
      <point x="399" y="782"/>
      <point x="465" y="765" type="curve"/>
      <point x="465" y="630" type="line"/>
      <point x="251" y="630" type="line" smooth="yes"/>
      <point x="230" y="630"/>
      <point x="225" y="620"/>
      <point x="225" y="606" type="curve" smooth="yes"/>
      <point x="225" y="600" type="line" smooth="yes"/>
      <point x="225" y="591"/>
      <point x="227" y="575"/>
      <point x="253" y="575" type="curve" smooth="yes"/>
      <point x="330" y="575" type="line" smooth="yes"/>
      <point x="443" y="575"/>
      <point x="503" y="541"/>
      <point x="503" y="450" type="curve" smooth="yes"/>
      <point x="503" y="438" type="line" smooth="yes"/>
      <point x="503" y="399"/>
      <point x="497" y="337"/>
      <point x="431" y="315" type="curve"/>
      <point x="493" y="305"/>
      <point x="502" y="236"/>
      <point x="502" y="203" type="curve" smooth="yes"/>
      <point x="502" y="160" type="line" smooth="yes"/>
      <point x="502" y="29"/>
      <point x="428" y="-8"/>
      <point x="364" y="-8" type="curve" smooth="yes"/>
      <point x="253" y="-8"/>
      <point x="127" y="-7"/>
      <point x="68" y="11" type="curve"/>
      <point x="68" y="146" type="line"/>
      <point x="282" y="146" type="line" smooth="yes"/>
      <point x="304" y="146"/>
      <point x="309" y="151"/>
      <point x="309" y="167" type="curve" smooth="yes"/>
      <point x="309" y="179" type="line" smooth="yes"/>
      <point x="309" y="193"/>
      <point x="302" y="200"/>
      <point x="281" y="200" type="curve" smooth="yes"/>
      <point x="201" y="200" type="line" smooth="yes"/>
      <point x="101" y="200"/>
      <point x="32" y="227"/>
    </contour>
  </outline>
</glyph>
<glyph name="copyright" format="1">
  <advance width="792"/>
  <unicode hex="00A9"/>
  <outline>
    <contour>
      <point x="217" y="365" type="curve" smooth="yes"/>
      <point x="217" y="526"/>
      <point x="271" y="583"/>
      <point x="361" y="583" type="curve" smooth="yes"/>
      <point x="402" y="583"/>
      <point x="491" y="581"/>
      <point x="549" y="559" type="curve"/>
      <point x="549" y="467" type="line"/>
      <point x="486" y="476"/>
      <point x="434" y="479"/>
      <point x="401" y="479" type="curve" smooth="yes"/>
      <point x="347" y="479"/>
      <point x="331" y="457"/>
      <point x="331" y="362" type="curve" smooth="yes"/>
      <point x="331" y="278"/>
      <point x="355" y="251"/>
      <point x="408" y="251" type="curve" smooth="yes"/>
      <point x="466" y="251"/>
      <point x="515" y="259"/>
      <point x="555" y="267" type="curve"/>
      <point x="555" y="175" type="line"/>
      <point x="503" y="147"/>
      <point x="437" y="147"/>
      <point x="370" y="147" type="curve" smooth="yes"/>
      <point x="291" y="147"/>
      <point x="217" y="188"/>
    </contour>
    <contour>
      <point x="145" y="368" type="curve" smooth="yes"/>
      <point x="145" y="209"/>
      <point x="194" y="104"/>
      <point x="308" y="104" type="curve" smooth="yes"/>
      <point x="498" y="104" type="line" smooth="yes"/>
      <point x="588" y="104"/>
      <point x="648" y="164"/>
      <point x="648" y="368" type="curve" smooth="yes"/>
      <point x="648" y="488"/>
      <point x="639" y="628"/>
      <point x="508" y="628" type="curve" smooth="yes"/>
      <point x="308" y="628" type="line" smooth="yes"/>
      <point x="219" y="628"/>
      <point x="145" y="583"/>
    </contour>
    <contour>
      <point x="31" y="368" type="curve" smooth="yes"/>
      <point x="31" y="563"/>
      <point x="79" y="732"/>
      <point x="308" y="732" type="curve" smooth="yes"/>
      <point x="508" y="732" type="line" smooth="yes"/>
      <point x="711" y="732"/>
      <point x="762" y="583"/>
      <point x="762" y="368" type="curve" smooth="yes"/>
      <point x="762" y="109"/>
      <point x="659" y="0"/>
      <point x="508" y="0" type="curve" smooth="yes"/>
      <point x="308" y="0" type="line" smooth="yes"/>
      <point x="115" y="0"/>
      <point x="31" y="147"/>
    </contour>
  </outline>
</glyph>
<glyph name="ordfeminine" format="1">
  <advance width="368"/>
  <unicode hex="00AA"/>
  <outline>
    <contour>
      <point x="151" y="492" type="line" smooth="yes"/>
      <point x="151" y="468"/>
      <point x="166" y="470"/>
      <point x="179" y="470" type="curve" smooth="yes"/>
      <point x="209" y="470"/>
      <point x="206" y="490"/>
      <point x="206" y="490" type="curve"/>
      <point x="206" y="526" type="line"/>
      <point x="170" y="523" type="line" smooth="yes"/>
      <point x="148" y="521"/>
      <point x="151" y="506"/>
      <point x="151" y="496" type="curve" smooth="yes"/>
    </contour>
    <contour>
      <point x="17" y="469" type="curve" smooth="yes"/>
      <point x="17" y="495" type="line" smooth="yes"/>
      <point x="17" y="543"/>
      <point x="41" y="594"/>
      <point x="137" y="594" type="curve" smooth="yes"/>
      <point x="137" y="594"/>
      <point x="206" y="593"/>
      <point x="206" y="594" type="curve" smooth="yes"/>
      <point x="206" y="594"/>
      <point x="207" y="597"/>
      <point x="206" y="598" type="curve"/>
      <point x="206" y="632"/>
      <point x="191" y="631"/>
      <point x="163" y="631" type="curve" smooth="yes"/>
      <point x="82" y="631"/>
      <point x="29" y="622"/>
      <point x="29" y="622" type="curve"/>
      <point x="29" y="708" type="line"/>
      <point x="76" y="733"/>
      <point x="118" y="738"/>
      <point x="185" y="738" type="curve" smooth="yes"/>
      <point x="290" y="738"/>
      <point x="352" y="715"/>
      <point x="352" y="616" type="curve" smooth="yes"/>
      <point x="352" y="378" type="line"/>
      <point x="236" y="378" type="line"/>
      <point x="206" y="419" type="line"/>
      <point x="200" y="403"/>
      <point x="179" y="372"/>
      <point x="130" y="374" type="curve" smooth="yes"/>
      <point x="43" y="377"/>
      <point x="17" y="433"/>
    </contour>
    <contour>
      <point x="17" y="258" type="line"/>
      <point x="17" y="336" type="line"/>
      <point x="352" y="336" type="line"/>
      <point x="352" y="258" type="line"/>
    </contour>
  </outline>
</glyph>
<glyph name="guillemotleft" format="1">
  <advance width="607"/>
  <unicode hex="00AB"/>
  <outline>
    <contour>
      <point x="275" y="354" type="line"/>
      <point x="481" y="557" type="line"/>
      <point x="578" y="462" type="line"/>
      <point x="468" y="354" type="line"/>
      <point x="579" y="244" type="line"/>
      <point x="486" y="146" type="line"/>
    </contour>
    <contour>
      <point x="28" y="354" type="line"/>
      <point x="234" y="557" type="line"/>
      <point x="331" y="462" type="line"/>
      <point x="221" y="354" type="line"/>
      <point x="332" y="244" type="line"/>
      <point x="239" y="146" type="line"/>
    </contour>
  </outline>
</glyph>
<glyph name="logicalnot" format="1">
  <advance width="467"/>
  <unicode hex="00AC"/>
  <outline>
    <contour>
      <point x="20" y="226" type="line"/>
      <point x="20" y="370" type="line"/>
      <point x="447" y="370" type="line"/>
      <point x="447" y="313"/>
      <point x="447" y="216"/>
      <point x="447" y="159" type="curve"/>
      <point x="303" y="159" type="line"/>
      <point x="303" y="226" type="line"/>
    </contour>
  </outline>
</glyph>
<glyph name="registered" format="1">
  <advance width="792"/>
  <unicode hex="00AE"/>
  <outline>
    <contour>
      <point x="351" y="399" type="line"/>
      <point x="351" y="476" type="line"/>
      <point x="390" y="476" type="line" smooth="yes"/>
      <point x="435" y="476"/>
      <point x="444" y="469"/>
      <point x="444" y="441" type="curve" smooth="yes"/>
      <point x="444" y="403"/>
      <point x="434" y="399"/>
      <point x="390" y="399" type="curve" smooth="yes"/>
    </contour>
    <contour>
      <point x="237" y="153" type="line"/>
      <point x="351" y="153" type="line"/>
      <point x="351" y="315" type="line"/>
      <point x="380" y="315" type="line"/>
      <point x="457" y="153" type="line"/>
      <point x="578" y="153" type="line"/>
      <point x="494" y="311" type="line"/>
      <point x="539" y="327"/>
      <point x="558" y="365"/>
      <point x="558" y="442" type="curve" smooth="yes"/>
      <point x="558" y="553"/>
      <point x="490" y="580"/>
      <point x="424" y="580" type="curve" smooth="yes"/>
      <point x="237" y="580" type="line"/>
    </contour>
    <contour>
      <point x="145" y="368" type="curve" smooth="yes"/>
      <point x="145" y="583"/>
      <point x="219" y="628"/>
      <point x="308" y="628" type="curve" smooth="yes"/>
      <point x="508" y="628" type="line" smooth="yes"/>
      <point x="639" y="628"/>
      <point x="648" y="488"/>
      <point x="648" y="368" type="curve" smooth="yes"/>
      <point x="648" y="164"/>
      <point x="588" y="104"/>
      <point x="498" y="104" type="curve" smooth="yes"/>
      <point x="308" y="104" type="line" smooth="yes"/>
      <point x="194" y="104"/>
      <point x="145" y="209"/>
    </contour>
    <contour>
      <point x="31" y="368" type="curve" smooth="yes"/>
      <point x="31" y="147"/>
      <point x="115" y="0"/>
      <point x="308" y="0" type="curve" smooth="yes"/>
      <point x="508" y="0" type="line" smooth="yes"/>
      <point x="659" y="0"/>
      <point x="762" y="109"/>
      <point x="762" y="368" type="curve" smooth="yes"/>
      <point x="762" y="583"/>
      <point x="711" y="732"/>
      <point x="508" y="732" type="curve" smooth="yes"/>
      <point x="308" y="732" type="line" smooth="yes"/>
      <point x="79" y="732"/>
      <point x="31" y="563"/>
    </contour>
  </outline>
</glyph>
<glyph name="macron" format="1">
  <advance width="348"/>
  <unicode hex="00AF"/>
  <outline>
    <contour>
      <point x="28" y="531" type="line"/>
      <point x="28" y="624" type="line"/>
      <point x="320" y="624" type="line"/>
      <point x="320" y="531" type="line"/>
    </contour>
  </outline>
</glyph>
<glyph name="degree" format="1">
  <advance width="279.0"/>
  <unicode hex="00B0"/>
  <outline>
    <contour>
      <point x="84" y="642" type="curve" smooth="yes"/>
      <point x="84" y="676"/>
      <point x="106" y="698"/>
      <point x="140" y="698" type="curve" smooth="yes"/>
      <point x="174" y="698"/>
      <point x="195" y="676"/>
      <point x="195" y="642" type="curve" smooth="yes"/>
      <point x="195" y="608"/>
      <point x="173" y="587"/>
      <point x="140" y="587" type="curve" smooth="yes"/>
      <point x="107" y="587"/>
      <point x="84" y="608"/>
    </contour>
    <contour>
      <point x="18" y="642" type="curve" smooth="yes"/>
      <point x="18" y="569"/>
      <point x="70" y="520"/>
      <point x="140" y="520" type="curve" smooth="yes"/>
      <point x="212" y="520"/>
      <point x="261" y="569"/>
      <point x="261" y="642" type="curve" smooth="yes"/>
      <point x="261" y="715"/>
      <point x="212" y="765"/>
      <point x="140" y="765" type="curve" smooth="yes"/>
      <point x="70" y="765"/>
      <point x="18" y="715"/>
    </contour>
  </outline>
</glyph>
<glyph name="plusminus" format="1">
  <advance width="479"/>
  <unicode hex="00B1"/>
  <outline>
    <contour>
      <point x="32" y="377" type="line"/>
      <point x="32" y="531" type="line"/>
      <point x="162" y="531" type="line"/>
      <point x="162" y="662" type="line"/>
      <point x="316" y="662" type="line"/>
      <point x="316" y="531" type="line"/>
      <point x="448" y="531" type="line"/>
      <point x="448" y="377" type="line"/>
      <point x="316" y="377" type="line"/>
      <point x="316" y="246" type="line"/>
      <point x="162" y="246" type="line"/>
      <point x="162" y="377" type="line"/>
    </contour>
    <contour>
      <point x="32" y="57" type="line"/>
      <point x="32" y="211" type="line"/>
      <point x="448" y="211" type="line"/>
      <point x="448" y="57" type="line"/>
    </contour>
  </outline>
</glyph>
<glyph name="twosuperior" format="1">
  <advance width="411"/>
  <unicode hex="00B2"/>
  <outline>
    <contour>
      <point x="17" y="718" type="line"/>
      <point x="17" y="827" type="line"/>
      <point x="74" y="840"/>
      <point x="129" y="849"/>
      <point x="229" y="849" type="curve" smooth="yes"/>
      <point x="338" y="849"/>
      <point x="388" y="785"/>
      <point x="388" y="696" type="curve" smooth="yes"/>
      <point x="388" y="608"/>
      <point x="282" y="522"/>
      <point x="236" y="486" type="curve"/>
      <point x="388" y="486" type="line"/>
      <point x="388" y="355" type="line"/>
      <point x="21" y="355" type="line"/>
      <point x="21" y="481" type="line"/>
      <point x="75" y="513"/>
      <point x="242" y="634"/>
      <point x="242" y="678" type="curve" smooth="yes"/>
      <point x="242" y="714"/>
      <point x="219" y="718"/>
      <point x="165" y="718" type="curve" smooth="yes"/>
    </contour>
  </outline>
</glyph>
<glyph name="threesuperior" format="1">
  <advance width="411"/>
  <unicode hex="00B3"/>
  <outline>
    <contour>
      <point x="17" y="713" type="line"/>
      <point x="17" y="822" type="line"/>
      <point x="78" y="845"/>
      <point x="164" y="846"/>
      <point x="246" y="844" type="curve" smooth="yes"/>
      <point x="323" y="843"/>
      <point x="378" y="799"/>
      <point x="378" y="720" type="curve" smooth="yes"/>
      <point x="378" y="694" type="line" smooth="yes"/>
      <point x="378" y="645"/>
      <point x="361" y="612"/>
      <point x="315" y="597" type="curve"/>
      <point x="362" y="584"/>
      <point x="378" y="545"/>
      <point x="378" y="494" type="curve" smooth="yes"/>
      <point x="378" y="475" type="line" smooth="yes"/>
      <point x="378" y="394"/>
      <point x="326" y="350"/>
      <point x="241" y="350" type="curve" smooth="yes"/>
      <point x="161" y="350"/>
      <point x="82" y="348"/>
      <point x="21" y="371" type="curve"/>
      <point x="22" y="481" type="line"/>
      <point x="167" y="481" type="line" smooth="yes"/>
      <point x="219" y="481"/>
      <point x="232" y="481"/>
      <point x="232" y="503" type="curve" smooth="yes"/>
      <point x="232" y="507" type="line" smooth="yes"/>
      <point x="232" y="528"/>
      <point x="214" y="530"/>
      <point x="171" y="531" type="curve" smooth="yes"/>
      <point x="63" y="536" type="line"/>
      <point x="63" y="655" type="line"/>
      <point x="171" y="662" type="line"/>
      <point x="217" y="663"/>
      <point x="234" y="663"/>
      <point x="234" y="685" type="curve" smooth="yes"/>
      <point x="234" y="689" type="line" smooth="yes"/>
      <point x="234" y="713"/>
      <point x="206" y="713"/>
      <point x="171" y="713" type="curve" smooth="yes"/>
    </contour>
  </outline>
</glyph>
<glyph name="uni00B5" format="1">
  <advance width="584"/>
  <unicode hex="00B5"/>
  <outline>
    <contour>
      <point x="51" y="191" type="line"/>
      <point x="51" y="531" type="line"/>
      <point x="245" y="531" type="line"/>
      <point x="245" y="187" type="line" smooth="yes"/>
      <point x="245" y="145"/>
      <point x="256" y="135"/>
      <point x="278" y="135" type="curve" smooth="yes"/>
      <point x="315" y="135"/>
      <point x="339" y="145"/>
      <point x="351" y="172" type="curve"/>
      <point x="351" y="531" type="line"/>
      <point x="545" y="531" type="line"/>
      <point x="545" y="0" type="line"/>
      <point x="383" y="0" type="line"/>
      <point x="351" y="52" type="line"/>
      <point x="325" y="35"/>
      <point x="306" y="18"/>
      <point x="281" y="6" type="curve" smooth="yes"/>
      <point x="271" y="1"/>
      <point x="259" y="-3"/>
      <point x="245" y="-6" type="curve"/>
      <point x="245" y="-270" type="line"/>
      <point x="51" y="-270" type="line"/>
    </contour>
  </outline>
</glyph>
<glyph name="paragraph" format="1">
  <advance width="574"/>
  <unicode hex="00B6"/>
  <outline>
    <contour>
      <point x="146" y="519" type="line" smooth="yes"/>
      <point x="146" y="480"/>
      <point x="160" y="479"/>
      <point x="188" y="479" type="curve" smooth="yes"/>
      <point x="232" y="479" type="line"/>
      <point x="232" y="608" type="line"/>
      <point x="188" y="608" type="line" smooth="yes"/>
      <point x="148" y="608"/>
      <point x="146" y="600"/>
      <point x="146" y="558" type="curve" smooth="yes"/>
    </contour>
    <contour>
      <point x="22" y="499" type="curve" smooth="yes"/>
      <point x="22" y="592" type="line" smooth="yes"/>
      <point x="22" y="687"/>
      <point x="84" y="732"/>
      <point x="178" y="732" type="curve" smooth="yes"/>
      <point x="564" y="732" type="line"/>
      <point x="564" y="606" type="line"/>
      <point x="524" y="606" type="line"/>
      <point x="524" y="0" type="line"/>
      <point x="400" y="0" type="line"/>
      <point x="400" y="608" type="line"/>
      <point x="356" y="608" type="line"/>
      <point x="356" y="-270" type="line"/>
      <point x="232" y="-270" type="line"/>
      <point x="232" y="372" type="line"/>
      <point x="226" y="370"/>
      <point x="214" y="355"/>
      <point x="178" y="355" type="curve" smooth="yes"/>
      <point x="64" y="355"/>
      <point x="22" y="421"/>
    </contour>
  </outline>
</glyph>
<glyph name="periodcentered" format="1">
  <advance width="257"/>
  <unicode hex="00B7"/>
  <outline>
    <contour>
      <point x="48" y="328" type="curve" smooth="yes"/>
      <point x="48" y="445" type="line" smooth="yes"/>
      <point x="48" y="460"/>
      <point x="56" y="470"/>
      <point x="72" y="470" type="curve" smooth="yes"/>
      <point x="185" y="470" type="line" smooth="yes"/>
      <point x="203" y="470"/>
      <point x="210" y="461"/>
      <point x="210" y="445" type="curve" smooth="yes"/>
      <point x="210" y="328" type="line" smooth="yes"/>
      <point x="210" y="310"/>
      <point x="199" y="305"/>
      <point x="185" y="305" type="curve" smooth="yes"/>
      <point x="72" y="305" type="line" smooth="yes"/>
      <point x="58" y="305"/>
      <point x="48" y="314"/>
    </contour>
  </outline>
</glyph>
<glyph name="cedilla" format="1">
  <advance width="238"/>
  <unicode hex="00B8"/>
  <outline>
    <contour>
      <point x="28" y="-104" type="line"/>
      <point x="28" y="-183" type="line"/>
      <point x="117" y="-183" type="line" smooth="yes"/>
      <point x="181" y="-183"/>
      <point x="210" y="-150"/>
      <point x="210" y="-97" type="curve" smooth="yes"/>
      <point x="210" y="-47"/>
      <point x="173" y="-27"/>
      <point x="128" y="-27" type="curve"/>
      <point x="43" y="-42" type="line"/>
      <point x="57" y="-48"/>
      <point x="72" y="-62"/>
      <point x="72" y="-75" type="curve" smooth="yes"/>
      <point x="72" y="-84"/>
      <point x="66" y="-97"/>
      <point x="50" y="-100" type="curve" smooth="yes"/>
    </contour>
    <contour>
      <point x="179" y="20" type="line"/>
      <point x="93" y="20" type="line"/>
      <point x="43" y="-42" type="line"/>
      <point x="129" y="-42" type="line"/>
    </contour>
  </outline>
</glyph>
<glyph name="onesuperior" format="1">
  <advance width="270"/>
  <unicode hex="00B9"/>
  <outline>
    <contour>
      <point x="9" y="707" type="line"/>
      <point x="9" y="787" type="line"/>
      <point x="90" y="842" type="line"/>
      <point x="234" y="842" type="line"/>
      <point x="234" y="355" type="line"/>
      <point x="88" y="355" type="line"/>
      <point x="88" y="720" type="line"/>
    </contour>
  </outline>
</glyph>
<glyph name="ordmasculine" format="1">
  <advance width="424.0"/>
  <unicode hex="00BA"/>
  <note>
    GF Latin Plus glyph
  </note>
  <outline>
    <contour>
      <point x="24" y="248" type="line"/>
      <point x="400" y="248" type="line"/>
      <point x="400" y="336" type="line"/>
      <point x="24" y="336" type="line"/>
    </contour>
    <component base="o.superior" yOffset="80"/>
  </outline>
</glyph>
<glyph name="guillemotright" format="1">
  <advance width="607"/>
  <unicode hex="00BB"/>
  <outline>
    <contour>
      <point x="275" y="244" type="line"/>
      <point x="386" y="354" type="line"/>
      <point x="276" y="462" type="line"/>
      <point x="373" y="557" type="line"/>
      <point x="579" y="354" type="line"/>
      <point x="368" y="146" type="line"/>
    </contour>
    <contour>
      <point x="28" y="244" type="line"/>
      <point x="139" y="354" type="line"/>
      <point x="29" y="462" type="line"/>
      <point x="126" y="557" type="line"/>
      <point x="332" y="354" type="line"/>
      <point x="121" y="146" type="line"/>
    </contour>
  </outline>
</glyph>
<glyph name="onequarter" format="1">
  <advance width="954"/>
  <unicode hex="00BC"/>
  <outline>
    <contour>
      <point x="512" y="146" type="line"/>
      <point x="653" y="487" type="line"/>
      <point x="802" y="487" type="line"/>
      <point x="697" y="214" type="line"/>
      <point x="757" y="214" type="line"/>
      <point x="757" y="301" type="line"/>
      <point x="778" y="352" type="line"/>
      <point x="903" y="352" type="line"/>
      <point x="903" y="214" type="line"/>
      <point x="943" y="214" type="line"/>
      <point x="943" y="102" type="line"/>
      <point x="903" y="80" type="line"/>
      <point x="903" y="2" type="line"/>
      <point x="757" y="2" type="line"/>
      <point x="757" y="80" type="line"/>
      <point x="535" y="80" type="line"/>
    </contour>
    <contour>
      <point x="139" y="0" type="line"/>
      <point x="605" y="770" type="line"/>
      <point x="736" y="770" type="line"/>
      <point x="270" y="0" type="line"/>
    </contour>
    <contour>
      <point x="9" y="607" type="line"/>
      <point x="9" y="687" type="line"/>
      <point x="90" y="742" type="line"/>
      <point x="234" y="742" type="line"/>
      <point x="234" y="255" type="line"/>
      <point x="88" y="255" type="line"/>
      <point x="88" y="620" type="line"/>
    </contour>
  </outline>
</glyph>
<glyph name="onehalf" format="1">
  <advance width="1005"/>
  <unicode hex="00BD"/>
  <outline>
    <contour>
      <point x="606" y="363" type="line"/>
      <point x="606" y="472" type="line"/>
      <point x="664" y="485"/>
      <point x="719" y="494"/>
      <point x="821" y="494" type="curve" smooth="yes"/>
      <point x="932" y="494"/>
      <point x="983" y="430"/>
      <point x="983" y="341" type="curve" smooth="yes"/>
      <point x="983" y="253"/>
      <point x="873" y="167"/>
      <point x="826" y="131" type="curve"/>
      <point x="983" y="131" type="line"/>
      <point x="983" y="0" type="line"/>
      <point x="610" y="0" type="line"/>
      <point x="610" y="127" type="line"/>
      <point x="665" y="161"/>
      <point x="837" y="288"/>
      <point x="837" y="335" type="curve" smooth="yes"/>
      <point x="837" y="360"/>
      <point x="814" y="363"/>
      <point x="758" y="363" type="curve" smooth="yes"/>
    </contour>
    <contour>
      <point x="129" y="0" type="line"/>
      <point x="595" y="770" type="line"/>
      <point x="726" y="770" type="line"/>
      <point x="260" y="0" type="line"/>
    </contour>
    <contour>
      <point x="9" y="607" type="line"/>
      <point x="9" y="687" type="line"/>
      <point x="90" y="742" type="line"/>
      <point x="234" y="742" type="line"/>
      <point x="234" y="255" type="line"/>
      <point x="88" y="255" type="line"/>
      <point x="88" y="620" type="line"/>
    </contour>
  </outline>
</glyph>
<glyph name="threequarters" format="1">
  <advance width="1066"/>
  <unicode hex="00BE"/>
  <outline>
    <contour>
      <point x="607" y="146" type="line"/>
      <point x="748" y="487" type="line"/>
      <point x="897" y="487" type="line"/>
      <point x="792" y="214" type="line"/>
      <point x="852" y="214" type="line"/>
      <point x="852" y="301" type="line"/>
      <point x="873" y="352" type="line"/>
      <point x="998" y="352" type="line"/>
      <point x="998" y="214" type="line"/>
      <point x="1038" y="214" type="line"/>
      <point x="1038" y="102" type="line"/>
      <point x="998" y="80" type="line"/>
      <point x="998" y="2" type="line"/>
      <point x="852" y="2" type="line"/>
      <point x="852" y="80" type="line"/>
      <point x="630" y="80" type="line"/>
    </contour>
    <contour>
      <point x="244" y="0" type="line"/>
      <point x="710" y="770" type="line"/>
      <point x="841" y="770" type="line"/>
      <point x="375" y="0" type="line"/>
    </contour>
    <contour>
      <point x="17" y="614" type="line"/>
      <point x="17" y="723" type="line"/>
      <point x="79" y="746"/>
      <point x="167" y="746"/>
      <point x="250" y="744" type="curve" smooth="yes"/>
      <point x="328" y="743"/>
      <point x="384" y="699"/>
      <point x="384" y="620" type="curve" smooth="yes"/>
      <point x="384" y="594" type="line" smooth="yes"/>
      <point x="384" y="545"/>
      <point x="367" y="512"/>
      <point x="321" y="497" type="curve"/>
      <point x="368" y="484"/>
      <point x="384" y="445"/>
      <point x="384" y="394" type="curve" smooth="yes"/>
      <point x="384" y="375" type="line" smooth="yes"/>
      <point x="384" y="295"/>
      <point x="332" y="250"/>
      <point x="245" y="250" type="curve" smooth="yes"/>
      <point x="164" y="250"/>
      <point x="84" y="248"/>
      <point x="21" y="271" type="curve"/>
      <point x="22" y="381" type="line"/>
      <point x="171" y="381" type="line" smooth="yes"/>
      <point x="224" y="381"/>
      <point x="238" y="381"/>
      <point x="238" y="403" type="curve" smooth="yes"/>
      <point x="238" y="407" type="line" smooth="yes"/>
      <point x="238" y="428"/>
      <point x="219" y="430"/>
      <point x="175" y="431" type="curve" smooth="yes"/>
      <point x="63" y="436" type="line"/>
      <point x="63" y="554" type="line"/>
      <point x="175" y="562" type="line"/>
      <point x="223" y="563"/>
      <point x="240" y="563"/>
      <point x="240" y="585" type="curve" smooth="yes"/>
      <point x="240" y="590" type="line" smooth="yes"/>
      <point x="240" y="614"/>
      <point x="211" y="614"/>
      <point x="175" y="614" type="curve" smooth="yes"/>
    </contour>
  </outline>
</glyph>
<glyph name="questiondown" format="1">
  <advance width="544"/>
  <unicode hex="00BF"/>
  <outline>
    <contour>
      <point x="227" y="332" type="curve" smooth="yes"/>
      <point x="227" y="449" type="line" smooth="yes"/>
      <point x="227" y="467"/>
      <point x="238" y="472"/>
      <point x="252" y="472" type="curve" smooth="yes"/>
      <point x="365" y="472" type="line" smooth="yes"/>
      <point x="379" y="472"/>
      <point x="389" y="463"/>
      <point x="389" y="449" type="curve" smooth="yes"/>
      <point x="389" y="332" type="line" smooth="yes"/>
      <point x="389" y="317"/>
      <point x="381" y="307"/>
      <point x="365" y="307" type="curve" smooth="yes"/>
      <point x="252" y="307" type="line" smooth="yes"/>
      <point x="234" y="307"/>
      <point x="227" y="316"/>
    </contour>
    <contour>
      <point x="22" y="-11" type="line" smooth="yes"/>
      <point x="22" y="124"/>
      <point x="69" y="202"/>
      <point x="235" y="196" type="curve"/>
      <point x="235" y="277" type="line"/>
      <point x="380" y="277" type="line"/>
      <point x="380" y="55" type="line"/>
      <point x="288" y="55" type="line"/>
      <point x="239" y="53"/>
      <point x="215" y="38"/>
      <point x="215" y="-15" type="curve" smooth="yes"/>
      <point x="215" y="-30" type="line" smooth="yes"/>
      <point x="215" y="-74"/>
      <point x="245" y="-92"/>
      <point x="302" y="-92" type="curve" smooth="yes"/>
      <point x="533" y="-92" type="line"/>
      <point x="533" y="-237" type="line"/>
      <point x="447" y="-260"/>
      <point x="366" y="-272"/>
      <point x="251" y="-267" type="curve"/>
      <point x="99" y="-267"/>
      <point x="22" y="-160"/>
      <point x="22" y="-62" type="curve" smooth="yes"/>
    </contour>
  </outline>
</glyph>
<glyph name="Acircumflex" format="1">
  <advance width="711"/>
  <unicode hex="00C2"/>
  <outline>
    <contour>
      <point x="207.5" y="797" type="line"/>
      <point x="307.5" y="937" type="line"/>
      <point x="438.5" y="937" type="line"/>
      <point x="529.5" y="797" type="line"/>
      <point x="418.5" y="797" type="line"/>
      <point x="369.5" y="848" type="line"/>
      <point x="319.5" y="797" type="line"/>
    </contour>
    <contour>
      <point x="310" y="293" type="line"/>
      <point x="424" y="293" type="line"/>
      <point x="371" y="489" type="line"/>
    </contour>
    <contour>
      <point x="25" y="0" type="line"/>
      <point x="254" y="732" type="line"/>
      <point x="483" y="732" type="line"/>
      <point x="705" y="0" type="line"/>
      <point x="506" y="0" type="line"/>
      <point x="463" y="128" type="line"/>
      <point x="266" y="128" type="line"/>
      <point x="224" y="0" type="line"/>
    </contour>
  </outline>
</glyph>
<glyph name="Atilde" format="1">
  <advance width="711"/>
  <unicode hex="00C3"/>
  <outline>
    <contour>
      <point x="194.5" y="864" type="line"/>
      <point x="219.5" y="900"/>
      <point x="261.5" y="938"/>
      <point x="317.5" y="938" type="curve" smooth="yes"/>
      <point x="361.5" y="938"/>
      <point x="383.5" y="903"/>
      <point x="423.5" y="903" type="curve"/>
      <point x="463.5" y="901"/>
      <point x="494.5" y="920"/>
      <point x="516.5" y="943" type="curve"/>
      <point x="542.5" y="869" type="line"/>
      <point x="520.5" y="836"/>
      <point x="481.5" y="797"/>
      <point x="430.5" y="797" type="curve" smooth="yes"/>
      <point x="387.5" y="797"/>
      <point x="353.5" y="832"/>
      <point x="314.5" y="832" type="curve" smooth="yes"/>
      <point x="275.5" y="832"/>
      <point x="252.5" y="821"/>
      <point x="221.5" y="797" type="curve"/>
    </contour>
    <contour>
      <point x="310" y="293" type="line"/>
      <point x="424" y="293" type="line"/>
      <point x="371" y="489" type="line"/>
    </contour>
    <contour>
      <point x="25" y="0" type="line"/>
      <point x="254" y="732" type="line"/>
      <point x="483" y="732" type="line"/>
      <point x="705" y="0" type="line"/>
      <point x="506" y="0" type="line"/>
      <point x="463" y="128" type="line"/>
      <point x="266" y="128" type="line"/>
      <point x="224" y="0" type="line"/>
    </contour>
  </outline>
</glyph>
<glyph name="Adieresis" format="1">
  <advance width="711"/>
  <unicode hex="00C4"/>
  <outline>
    <contour>
      <point x="430.5" y="863" type="curve" smooth="yes"/>
      <point x="430.5" y="899"/>
      <point x="460.5" y="928"/>
      <point x="496.5" y="928" type="curve" smooth="yes"/>
      <point x="532.5" y="928"/>
      <point x="561.5" y="899"/>
      <point x="561.5" y="863" type="curve" smooth="yes"/>
      <point x="561.5" y="827"/>
      <point x="532.5" y="797"/>
      <point x="496.5" y="797" type="curve" smooth="yes"/>
      <point x="460.5" y="797"/>
      <point x="430.5" y="827"/>
    </contour>
    <contour>
      <point x="175.5" y="863" type="curve" smooth="yes"/>
      <point x="175.5" y="899"/>
      <point x="205.5" y="928"/>
      <point x="241.5" y="928" type="curve" smooth="yes"/>
      <point x="277.5" y="928"/>
      <point x="306.5" y="899"/>
      <point x="306.5" y="863" type="curve" smooth="yes"/>
      <point x="306.5" y="827"/>
      <point x="277.5" y="797"/>
      <point x="241.5" y="797" type="curve" smooth="yes"/>
      <point x="205.5" y="797"/>
      <point x="175.5" y="827"/>
    </contour>
    <contour>
      <point x="310" y="293" type="line"/>
      <point x="424" y="293" type="line"/>
      <point x="371" y="489" type="line"/>
    </contour>
    <contour>
      <point x="25" y="0" type="line"/>
      <point x="254" y="732" type="line"/>
      <point x="483" y="732" type="line"/>
      <point x="705" y="0" type="line"/>
      <point x="506" y="0" type="line"/>
      <point x="463" y="128" type="line"/>
      <point x="266" y="128" type="line"/>
      <point x="224" y="0" type="line"/>
    </contour>
  </outline>
</glyph>
<glyph name="Aring" format="1">
  <advance width="711"/>
  <unicode hex="00C5"/>
  <outline>
    <contour>
      <point x="335" y="832.167" type="curve" smooth="yes"/>
      <point x="335" y="813.167"/>
      <point x="350" y="799.167"/>
      <point x="369" y="799.167" type="curve" smooth="yes"/>
      <point x="388" y="799.167"/>
      <point x="402" y="813.167"/>
      <point x="402" y="832.167" type="curve" smooth="yes"/>
      <point x="402" y="851.167"/>
      <point x="388" y="866.167"/>
      <point x="369" y="866.167" type="curve" smooth="yes"/>
      <point x="350" y="866.167"/>
      <point x="335" y="851.167"/>
    </contour>
    <contour>
      <point x="267" y="832.167" type="curve" smooth="yes"/>
      <point x="267" y="889.167"/>
      <point x="313" y="935.167"/>
      <point x="369" y="935.167" type="curve" smooth="yes"/>
      <point x="425" y="935.167"/>
      <point x="470" y="889.167"/>
      <point x="470" y="832.167" type="curve" smooth="yes"/>
      <point x="470" y="781.907"/>
      <point x="435.013" y="740.977"/>
      <point x="388.348" y="732" type="curve"/>
      <point x="483" y="732" type="line"/>
      <point x="705" y="0" type="line"/>
      <point x="506" y="0" type="line"/>
      <point x="463" y="128" type="line"/>
      <point x="266" y="128" type="line"/>
      <point x="224" y="0" type="line"/>
      <point x="25" y="0" type="line"/>
      <point x="254" y="732" type="line"/>
      <point x="349.614" y="732" type="line"/>
      <point x="302.765" y="740.977"/>
      <point x="267" y="781.907"/>
    </contour>
    <contour>
      <point x="310" y="293" type="line"/>
      <point x="424" y="293" type="line"/>
      <point x="371" y="489" type="line"/>
    </contour>
  </outline>
</glyph>
<glyph name="AE" format="1">
  <advance width="981"/>
  <unicode hex="00C6"/>
  <outline>
    <contour>
      <point x="394" y="331" type="line"/>
      <point x="463" y="331" type="line"/>
      <point x="463" y="482" type="line"/>
    </contour>
    <contour>
      <point x="17" y="0" type="line"/>
      <point x="288" y="552" type="line" smooth="yes"/>
      <point x="369" y="717"/>
      <point x="510" y="739"/>
      <point x="649" y="732" type="curve" smooth="yes"/>
      <point x="649" y="732"/>
      <point x="839" y="732"/>
      <point x="956" y="716" type="curve"/>
      <point x="956" y="553" type="line"/>
      <point x="709" y="553" type="line" smooth="yes"/>
      <point x="657" y="553"/>
      <point x="657" y="524"/>
      <point x="657" y="497" type="curve" smooth="yes"/>
      <point x="657" y="453" type="line"/>
      <point x="906" y="442" type="line"/>
      <point x="906" y="281" type="line"/>
      <point x="657" y="272" type="line"/>
      <point x="657" y="228" type="line" smooth="yes"/>
      <point x="657" y="175"/>
      <point x="690" y="176"/>
      <point x="719" y="176" type="curve" smooth="yes"/>
      <point x="956" y="176" type="line"/>
      <point x="956" y="14" type="line"/>
      <point x="853" y="0"/>
      <point x="659" y="-3"/>
      <point x="659" y="-3" type="curve" smooth="yes"/>
      <point x="589" y="-7"/>
      <point x="463" y="8"/>
      <point x="463" y="121" type="curve" smooth="yes"/>
      <point x="463" y="167" type="line"/>
      <point x="316" y="167" type="line"/>
      <point x="232" y="0" type="line"/>
    </contour>
  </outline>
</glyph>
<glyph name="Ccedilla" format="1">
  <advance width="567"/>
  <unicode hex="00C7"/>
  <outline>
    <contour>
      <point x="31" y="368" type="curve" smooth="yes"/>
      <point x="31" y="602"/>
      <point x="85" y="740"/>
      <point x="284" y="740" type="curve" smooth="yes"/>
      <point x="428" y="740"/>
      <point x="462" y="732"/>
      <point x="548" y="700" type="curve"/>
      <point x="548" y="549" type="line"/>
      <point x="547" y="549"/>
      <point x="447" y="566"/>
      <point x="344" y="566" type="curve" smooth="yes"/>
      <point x="260" y="566"/>
      <point x="225" y="570"/>
      <point x="225" y="366" type="curve" smooth="yes"/>
      <point x="225" y="202"/>
      <point x="244" y="168"/>
      <point x="345" y="168" type="curve" smooth="yes"/>
      <point x="450" y="168"/>
      <point x="548" y="177"/>
      <point x="548" y="177" type="curve"/>
      <point x="548" y="26" type="line"/>
      <point x="486" y="0"/>
      <point x="432" y="-9"/>
      <point x="284" y="-6" type="curve" smooth="yes"/>
      <point x="99" y="-3"/>
      <point x="31" y="122"/>
    </contour>
    <contour>
      <point x="187" y="-103" type="line"/>
      <point x="224" y="-88" type="line" smooth="yes"/>
      <point x="252" y="-76"/>
      <point x="252" y="-74"/>
      <point x="252" y="-36" type="curve"/>
      <point x="369" y="-36" type="line"/>
      <point x="369" y="-138"/>
      <point x="340" y="-182"/>
      <point x="248" y="-182" type="curve" smooth="yes"/>
      <point x="187" y="-182" type="line"/>
    </contour>
  </outline>
</glyph>
<glyph name="Igrave" format="1">
  <advance width="272"/>
  <unicode hex="00CC"/>
  <outline>
    <contour>
      <point x="-25.5" y="940" type="line"/>
      <point x="119.5" y="940" type="line"/>
      <point x="196.5" y="797" type="line"/>
      <point x="87.5" y="797" type="line"/>
    </contour>
    <contour>
      <point x="45" y="0" type="line"/>
      <point x="45" y="732" type="line"/>
      <point x="239" y="732" type="line"/>
      <point x="239" y="0" type="line"/>
    </contour>
  </outline>
</glyph>
<glyph name="Iacute" format="1">
  <advance width="272"/>
  <unicode hex="00CD"/>
  <outline>
    <contour>
      <point x="87.5" y="797" type="line"/>
      <point x="164.5" y="940" type="line"/>
      <point x="309.5" y="940" type="line"/>
      <point x="196.5" y="797" type="line"/>
    </contour>
    <contour>
      <point x="45" y="0" type="line"/>
      <point x="45" y="732" type="line"/>
      <point x="239" y="732" type="line"/>
      <point x="239" y="0" type="line"/>
    </contour>
  </outline>
</glyph>
<glyph name="Icircumflex" format="1">
  <advance width="272"/>
  <unicode hex="00CE"/>
  <outline>
    <contour>
      <point x="-19" y="797" type="line"/>
      <point x="81" y="937" type="line"/>
      <point x="212" y="937" type="line"/>
      <point x="303" y="797" type="line"/>
      <point x="192" y="797" type="line"/>
      <point x="143" y="848" type="line"/>
      <point x="93" y="797" type="line"/>
    </contour>
    <contour>
      <point x="45" y="0" type="line"/>
      <point x="45" y="732" type="line"/>
      <point x="239" y="732" type="line"/>
      <point x="239" y="0" type="line"/>
    </contour>
  </outline>
</glyph>
<glyph name="Idieresis" format="1">
  <advance width="272"/>
  <unicode hex="00CF"/>
  <outline>
    <contour>
      <point x="204" y="863" type="curve" smooth="yes"/>
      <point x="204" y="899"/>
      <point x="234" y="928"/>
      <point x="270" y="928" type="curve" smooth="yes"/>
      <point x="306" y="928"/>
      <point x="335" y="899"/>
      <point x="335" y="863" type="curve" smooth="yes"/>
      <point x="335" y="827"/>
      <point x="306" y="797"/>
      <point x="270" y="797" type="curve" smooth="yes"/>
      <point x="234" y="797"/>
      <point x="204" y="827"/>
    </contour>
    <contour>
      <point x="-51" y="863" type="curve" smooth="yes"/>
      <point x="-51" y="899"/>
      <point x="-21" y="928"/>
      <point x="15" y="928" type="curve" smooth="yes"/>
      <point x="51" y="928"/>
      <point x="80" y="899"/>
      <point x="80" y="863" type="curve" smooth="yes"/>
      <point x="80" y="827"/>
      <point x="51" y="797"/>
      <point x="15" y="797" type="curve" smooth="yes"/>
      <point x="-21" y="797"/>
      <point x="-51" y="827"/>
    </contour>
    <contour>
      <point x="45" y="0" type="line"/>
      <point x="45" y="732" type="line"/>
      <point x="239" y="732" type="line"/>
      <point x="239" y="0" type="line"/>
    </contour>
  </outline>
</glyph>
<glyph name="Eth" format="1">
  <advance width="667"/>
  <unicode hex="00D0"/>
  <outline>
    <contour>
      <point x="239" y="164" type="line"/>
      <point x="368" y="164" type="line" smooth="yes"/>
      <point x="425" y="164"/>
      <point x="443" y="223"/>
      <point x="443" y="364" type="curve" smooth="yes"/>
      <point x="443" y="545"/>
      <point x="415" y="568"/>
      <point x="368" y="568" type="curve" smooth="yes"/>
      <point x="239" y="568" type="line"/>
      <point x="239" y="410" type="line"/>
      <point x="328" y="410" type="line"/>
      <point x="328" y="336" type="line"/>
      <point x="239" y="336" type="line"/>
    </contour>
    <contour>
      <point x="-20" y="336" type="line"/>
      <point x="-20" y="410" type="line"/>
      <point x="45" y="410" type="line"/>
      <point x="45" y="732" type="line"/>
      <point x="388" y="732" type="line" smooth="yes"/>
      <point x="587" y="732"/>
      <point x="637" y="570"/>
      <point x="637" y="363" type="curve" smooth="yes"/>
      <point x="637" y="107"/>
      <point x="555" y="0"/>
      <point x="388" y="0" type="curve" smooth="yes"/>
      <point x="45" y="0" type="line"/>
      <point x="45" y="336" type="line"/>
    </contour>
  </outline>
</glyph>
<glyph name="Ntilde" format="1">
  <advance width="677"/>
  <unicode hex="00D1"/>
  <outline>
    <contour>
      <point x="170.5" y="864" type="line"/>
      <point x="195.5" y="900"/>
      <point x="237.5" y="938"/>
      <point x="293.5" y="938" type="curve" smooth="yes"/>
      <point x="337.5" y="938"/>
      <point x="359.5" y="903"/>
      <point x="399.5" y="903" type="curve"/>
      <point x="439.5" y="901"/>
      <point x="470.5" y="920"/>
      <point x="492.5" y="943" type="curve"/>
      <point x="518.5" y="869" type="line"/>
      <point x="496.5" y="836"/>
      <point x="457.5" y="797"/>
      <point x="406.5" y="797" type="curve" smooth="yes"/>
      <point x="363.5" y="797"/>
      <point x="329.5" y="832"/>
      <point x="290.5" y="832" type="curve" smooth="yes"/>
      <point x="251.5" y="832"/>
      <point x="228.5" y="821"/>
      <point x="197.5" y="797" type="curve"/>
    </contour>
    <contour>
      <point x="45" y="0" type="line"/>
      <point x="45" y="732" type="line"/>
      <point x="241" y="732" type="line"/>
      <point x="450" y="358" type="line"/>
      <point x="450" y="732" type="line"/>
      <point x="644" y="732" type="line"/>
      <point x="644" y="0" type="line"/>
      <point x="450" y="0" type="line"/>
      <point x="240" y="364" type="line"/>
      <point x="240" y="0" type="line"/>
    </contour>
  </outline>
</glyph>
<glyph name="Ograve" format="1">
  <advance width="667"/>
  <unicode hex="00D2"/>
  <outline>
    <contour>
      <point x="172.5" y="940" type="line"/>
      <point x="317.5" y="940" type="line"/>
      <point x="394.5" y="797" type="line"/>
      <point x="285.5" y="797" type="line"/>
    </contour>
    <contour>
      <point x="231" y="361" type="curve" smooth="yes"/>
      <point x="231" y="208"/>
      <point x="242" y="170"/>
      <point x="340" y="170" type="curve" smooth="yes"/>
      <point x="426" y="170"/>
      <point x="449" y="206"/>
      <point x="449" y="361" type="curve" smooth="yes"/>
      <point x="449" y="531"/>
      <point x="431" y="563"/>
      <point x="340" y="563" type="curve" smooth="yes"/>
      <point x="252" y="563"/>
      <point x="231" y="540"/>
    </contour>
    <contour>
      <point x="37" y="361" type="curve" smooth="yes"/>
      <point x="37" y="704"/>
      <point x="172" y="737"/>
      <point x="340" y="737" type="curve" smooth="yes"/>
      <point x="513" y="737"/>
      <point x="643" y="704"/>
      <point x="643" y="361" type="curve" smooth="yes"/>
      <point x="643" y="38"/>
      <point x="520" y="-4"/>
      <point x="340" y="-4" type="curve" smooth="yes"/>
      <point x="160" y="-4"/>
      <point x="37" y="28"/>
    </contour>
  </outline>
</glyph>
<glyph name="Otilde" format="1">
  <advance width="667"/>
  <unicode hex="00D5"/>
  <outline>
    <contour>
      <point x="166" y="864" type="line"/>
      <point x="191" y="900"/>
      <point x="233" y="938"/>
      <point x="289" y="938" type="curve" smooth="yes"/>
      <point x="333" y="938"/>
      <point x="355" y="903"/>
      <point x="395" y="903" type="curve"/>
      <point x="435" y="901"/>
      <point x="466" y="920"/>
      <point x="488" y="943" type="curve"/>
      <point x="514" y="869" type="line"/>
      <point x="492" y="836"/>
      <point x="453" y="797"/>
      <point x="402" y="797" type="curve" smooth="yes"/>
      <point x="359" y="797"/>
      <point x="325" y="832"/>
      <point x="286" y="832" type="curve" smooth="yes"/>
      <point x="247" y="832"/>
      <point x="224" y="821"/>
      <point x="193" y="797" type="curve"/>
    </contour>
    <contour>
      <point x="231" y="361" type="curve" smooth="yes"/>
      <point x="231" y="208"/>
      <point x="242" y="170"/>
      <point x="340" y="170" type="curve" smooth="yes"/>
      <point x="426" y="170"/>
      <point x="449" y="206"/>
      <point x="449" y="361" type="curve" smooth="yes"/>
      <point x="449" y="531"/>
      <point x="431" y="563"/>
      <point x="340" y="563" type="curve" smooth="yes"/>
      <point x="252" y="563"/>
      <point x="231" y="540"/>
    </contour>
    <contour>
      <point x="37" y="361" type="curve" smooth="yes"/>
      <point x="37" y="704"/>
      <point x="172" y="737"/>
      <point x="340" y="737" type="curve" smooth="yes"/>
      <point x="513" y="737"/>
      <point x="643" y="704"/>
      <point x="643" y="361" type="curve" smooth="yes"/>
      <point x="643" y="38"/>
      <point x="520" y="-4"/>
      <point x="340" y="-4" type="curve" smooth="yes"/>
      <point x="160" y="-4"/>
      <point x="37" y="28"/>
    </contour>
  </outline>
</glyph>
<glyph name="Odieresis" format="1">
  <advance width="667"/>
  <unicode hex="00D6"/>
  <outline>
    <contour>
      <point x="402" y="863" type="curve" smooth="yes"/>
      <point x="402" y="899"/>
      <point x="432" y="928"/>
      <point x="468" y="928" type="curve" smooth="yes"/>
      <point x="504" y="928"/>
      <point x="533" y="899"/>
      <point x="533" y="863" type="curve" smooth="yes"/>
      <point x="533" y="827"/>
      <point x="504" y="797"/>
      <point x="468" y="797" type="curve" smooth="yes"/>
      <point x="432" y="797"/>
      <point x="402" y="827"/>
    </contour>
    <contour>
      <point x="147" y="863" type="curve" smooth="yes"/>
      <point x="147" y="899"/>
      <point x="177" y="928"/>
      <point x="213" y="928" type="curve" smooth="yes"/>
      <point x="249" y="928"/>
      <point x="278" y="899"/>
      <point x="278" y="863" type="curve" smooth="yes"/>
      <point x="278" y="827"/>
      <point x="249" y="797"/>
      <point x="213" y="797" type="curve" smooth="yes"/>
      <point x="177" y="797"/>
      <point x="147" y="827"/>
    </contour>
    <contour>
      <point x="231" y="361" type="curve" smooth="yes"/>
      <point x="231" y="208"/>
      <point x="242" y="170"/>
      <point x="340" y="170" type="curve" smooth="yes"/>
      <point x="426" y="170"/>
      <point x="449" y="206"/>
      <point x="449" y="361" type="curve" smooth="yes"/>
      <point x="449" y="531"/>
      <point x="431" y="563"/>
      <point x="340" y="563" type="curve" smooth="yes"/>
      <point x="252" y="563"/>
      <point x="231" y="540"/>
    </contour>
    <contour>
      <point x="37" y="361" type="curve" smooth="yes"/>
      <point x="37" y="704"/>
      <point x="172" y="737"/>
      <point x="340" y="737" type="curve" smooth="yes"/>
      <point x="513" y="737"/>
      <point x="643" y="704"/>
      <point x="643" y="361" type="curve" smooth="yes"/>
      <point x="643" y="38"/>
      <point x="520" y="-4"/>
      <point x="340" y="-4" type="curve" smooth="yes"/>
      <point x="160" y="-4"/>
      <point x="37" y="28"/>
    </contour>
  </outline>
</glyph>
<glyph name="Oslash" format="1">
  <advance width="682"/>
  <unicode hex="00D8"/>
  <outline>
    <contour>
      <point x="262" y="202" type="line"/>
      <point x="278" y="178"/>
      <point x="304" y="170"/>
      <point x="349" y="170" type="curve" smooth="yes"/>
      <point x="435" y="170"/>
      <point x="458" y="206"/>
      <point x="458" y="361" type="curve" smooth="yes"/>
      <point x="458" y="406"/>
      <point x="457" y="441"/>
      <point x="453" y="469" type="curve"/>
    </contour>
    <contour>
      <point x="240" y="361" type="curve" smooth="yes"/>
      <point x="240" y="335"/>
      <point x="240" y="313"/>
      <point x="241" y="293" type="curve"/>
      <point x="422" y="545" type="line"/>
      <point x="406" y="559"/>
      <point x="382" y="563"/>
      <point x="349" y="563" type="curve" smooth="yes"/>
      <point x="261" y="563"/>
      <point x="240" y="540"/>
    </contour>
    <contour>
      <point x="46" y="361" type="curve" smooth="yes"/>
      <point x="46" y="704"/>
      <point x="181" y="737"/>
      <point x="349" y="737" type="curve" smooth="yes"/>
      <point x="420" y="737"/>
      <point x="484" y="731"/>
      <point x="534" y="701" type="curve"/>
      <point x="556" y="732" type="line"/>
      <point x="642" y="732" type="line"/>
      <point x="586" y="654" type="line"/>
      <point x="627" y="599"/>
      <point x="652" y="509"/>
      <point x="652" y="361" type="curve" smooth="yes"/>
      <point x="652" y="38"/>
      <point x="529" y="-4"/>
      <point x="349" y="-4" type="curve" smooth="yes"/>
      <point x="268" y="-4"/>
      <point x="198" y="2"/>
      <point x="146" y="40" type="curve"/>
      <point x="117" y="0" type="line"/>
      <point x="31" y="0" type="line"/>
      <point x="98" y="93" type="line"/>
      <point x="65" y="147"/>
      <point x="46" y="231"/>
    </contour>
  </outline>
</glyph>
<glyph name="Ugrave" format="1">
  <advance width="655"/>
  <unicode hex="00D9"/>
  <outline>
    <contour>
      <point x="166" y="940" type="line"/>
      <point x="311" y="940" type="line"/>
      <point x="388" y="797" type="line"/>
      <point x="279" y="797" type="line"/>
    </contour>
    <contour>
      <point x="45" y="320" type="curve" smooth="yes"/>
      <point x="45" y="732" type="line"/>
      <point x="239" y="732" type="line"/>
      <point x="239" y="320" type="line" smooth="yes"/>
      <point x="239" y="226"/>
      <point x="241" y="169"/>
      <point x="336" y="169" type="curve" smooth="yes"/>
      <point x="425" y="169"/>
      <point x="427" y="230"/>
      <point x="427" y="320" type="curve" smooth="yes"/>
      <point x="427" y="732" type="line"/>
      <point x="622" y="732" type="line"/>
      <point x="622" y="320" type="line" smooth="yes"/>
      <point x="622" y="-3"/>
      <point x="457" y="-5"/>
      <point x="336" y="-5" type="curve" smooth="yes"/>
      <point x="200" y="-5"/>
      <point x="45" y="-13"/>
    </contour>
  </outline>
</glyph>
<glyph name="Ucircumflex" format="1">
  <advance width="655"/>
  <unicode hex="00DB"/>
  <outline>
    <contour>
      <point x="172.5" y="797" type="line"/>
      <point x="272.5" y="937" type="line"/>
      <point x="403.5" y="937" type="line"/>
      <point x="494.5" y="797" type="line"/>
      <point x="383.5" y="797" type="line"/>
      <point x="334.5" y="848" type="line"/>
      <point x="284.5" y="797" type="line"/>
    </contour>
    <contour>
      <point x="45" y="320" type="curve" smooth="yes"/>
      <point x="45" y="732" type="line"/>
      <point x="239" y="732" type="line"/>
      <point x="239" y="320" type="line" smooth="yes"/>
      <point x="239" y="226"/>
      <point x="241" y="169"/>
      <point x="336" y="169" type="curve" smooth="yes"/>
      <point x="425" y="169"/>
      <point x="427" y="230"/>
      <point x="427" y="320" type="curve" smooth="yes"/>
      <point x="427" y="732" type="line"/>
      <point x="622" y="732" type="line"/>
      <point x="622" y="320" type="line" smooth="yes"/>
      <point x="622" y="-3"/>
      <point x="457" y="-5"/>
      <point x="336" y="-5" type="curve" smooth="yes"/>
      <point x="200" y="-5"/>
      <point x="45" y="-13"/>
    </contour>
  </outline>
</glyph>
<glyph name="Udieresis" format="1">
  <advance width="655"/>
  <unicode hex="00DC"/>
  <outline>
    <contour>
      <point x="395.5" y="863" type="curve" smooth="yes"/>
      <point x="395.5" y="899"/>
      <point x="425.5" y="928"/>
      <point x="461.5" y="928" type="curve" smooth="yes"/>
      <point x="497.5" y="928"/>
      <point x="526.5" y="899"/>
      <point x="526.5" y="863" type="curve" smooth="yes"/>
      <point x="526.5" y="827"/>
      <point x="497.5" y="797"/>
      <point x="461.5" y="797" type="curve" smooth="yes"/>
      <point x="425.5" y="797"/>
      <point x="395.5" y="827"/>
    </contour>
    <contour>
      <point x="140.5" y="863" type="curve" smooth="yes"/>
      <point x="140.5" y="899"/>
      <point x="170.5" y="928"/>
      <point x="206.5" y="928" type="curve" smooth="yes"/>
      <point x="242.5" y="928"/>
      <point x="271.5" y="899"/>
      <point x="271.5" y="863" type="curve" smooth="yes"/>
      <point x="271.5" y="827"/>
      <point x="242.5" y="797"/>
      <point x="206.5" y="797" type="curve" smooth="yes"/>
      <point x="170.5" y="797"/>
      <point x="140.5" y="827"/>
    </contour>
    <contour>
      <point x="45" y="320" type="curve" smooth="yes"/>
      <point x="45" y="732" type="line"/>
      <point x="239" y="732" type="line"/>
      <point x="239" y="320" type="line" smooth="yes"/>
      <point x="239" y="226"/>
      <point x="241" y="169"/>
      <point x="336" y="169" type="curve" smooth="yes"/>
      <point x="425" y="169"/>
      <point x="427" y="230"/>
      <point x="427" y="320" type="curve" smooth="yes"/>
      <point x="427" y="732" type="line"/>
      <point x="622" y="732" type="line"/>
      <point x="622" y="320" type="line" smooth="yes"/>
      <point x="622" y="-3"/>
      <point x="457" y="-5"/>
      <point x="336" y="-5" type="curve" smooth="yes"/>
      <point x="200" y="-5"/>
      <point x="45" y="-13"/>
    </contour>
  </outline>
</glyph>
<glyph name="Yacute" format="1">
  <advance width="679"/>
  <unicode hex="00DD"/>
  <outline>
    <contour>
      <point x="290.5" y="797" type="line"/>
      <point x="367.5" y="940" type="line"/>
      <point x="512.5" y="940" type="line"/>
      <point x="399.5" y="797" type="line"/>
    </contour>
    <contour>
      <point x="25" y="732" type="line"/>
      <point x="236" y="732" type="line"/>
      <point x="341" y="408" type="line"/>
      <point x="454" y="732" type="line"/>
      <point x="665" y="732" type="line"/>
      <point x="434" y="200" type="line"/>
      <point x="434" y="0" type="line"/>
      <point x="240" y="0" type="line"/>
      <point x="240" y="200" type="line"/>
    </contour>
  </outline>
</glyph>
<glyph name="Thorn" format="1">
  <advance width="538"/>
  <unicode hex="00DE"/>
  <outline>
    <contour>
      <point x="228" y="313" type="line"/>
      <point x="255" y="313" type="line" smooth="yes"/>
      <point x="307" y="313"/>
      <point x="316" y="317"/>
      <point x="316" y="372" type="curve" smooth="yes"/>
      <point x="316" y="423"/>
      <point x="295" y="424"/>
      <point x="255" y="424" type="curve" smooth="yes"/>
      <point x="228" y="424" type="line"/>
    </contour>
    <contour>
      <point x="34" y="0" type="line"/>
      <point x="34" y="243"/>
      <point x="34" y="486"/>
      <point x="34" y="729" type="curve"/>
      <point x="228" y="729" type="line"/>
      <point x="228" y="588" type="line"/>
      <point x="335" y="588" type="line" smooth="yes"/>
      <point x="414" y="588"/>
      <point x="511" y="554"/>
      <point x="511" y="375" type="curve" smooth="yes"/>
      <point x="511" y="171"/>
      <point x="409" y="152"/>
      <point x="335" y="149" type="curve" smooth="yes"/>
      <point x="289" y="147"/>
      <point x="271" y="147"/>
      <point x="228" y="168" type="curve"/>
      <point x="228" y="0" type="line"/>
    </contour>
  </outline>
</glyph>
<glyph name="germandbls" format="1">
  <advance width="620.0"/>
  <unicode hex="00DF"/>
  <outline>
    <contour>
      <point x="34" y="0" type="line"/>
      <point x="228" y="0" type="line"/>
      <point x="228" y="526" type="line" smooth="yes"/>
      <point x="228" y="600.6451612903227"/>
      <point x="246" y="630"/>
      <point x="306" y="630" type="curve" smooth="yes"/>
      <point x="350.33333333333337" y="630.0"/>
      <point x="376.0" y="616.0"/>
      <point x="376" y="562" type="curve" smooth="yes"/>
      <point x="376.0" y="497.0"/>
      <point x="301.0" y="434.0"/>
      <point x="301" y="333" type="curve" smooth="yes"/>
      <point x="301" y="225"/>
      <point x="420" y="194"/>
      <point x="420" y="162" type="curve" smooth="yes"/>
      <point x="420" y="156" type="line" smooth="yes"/>
      <point x="420" y="146"/>
      <point x="402" y="138"/>
      <point x="359" y="138" type="curve" smooth="yes"/>
      <point x="330" y="138"/>
      <point x="298" y="139"/>
      <point x="270" y="141" type="curve"/>
      <point x="270" y="10" type="line"/>
      <point x="300.04469860576694" y="-0.014899535255649354"/>
      <point x="354" y="-6"/>
      <point x="411" y="-6" type="curve" smooth="yes"/>
      <point x="481.0" y="-6.0"/>
      <point x="604" y="24"/>
      <point x="604" y="152" type="curve" smooth="yes"/>
      <point x="604" y="179" type="line" smooth="yes"/>
      <point x="604" y="298"/>
      <point x="485" y="332"/>
      <point x="485" y="370" type="curve" smooth="yes"/>
      <point x="485.0" y="403.0"/>
      <point x="560.0" y="465.0"/>
      <point x="560" y="574" type="curve" smooth="yes"/>
      <point x="560.0" y="698.0"/>
      <point x="485.92775665399245" y="784.0"/>
      <point x="307" y="784" type="curve" smooth="yes"/>
      <point x="115" y="784"/>
      <point x="34" y="682"/>
      <point x="34" y="547" type="curve" smooth="yes"/>
    </contour>
  </outline>
</glyph>
<glyph name="ae" format="1">
  <advance width="832.0"/>
  <unicode hex="00E6"/>
  <outline>
    <contour>
      <point x="516" y="317" type="line"/>
      <point x="516" y="378"/>
      <point x="523" y="404"/>
      <point x="565" y="404" type="curve" smooth="yes"/>
      <point x="589" y="404"/>
      <point x="608" y="398"/>
      <point x="608" y="362" type="curve" smooth="yes"/>
      <point x="608" y="343"/>
      <point x="605" y="317"/>
      <point x="578" y="317" type="curve" smooth="yes"/>
    </contour>
    <contour>
      <point x="224" y="170" type="curve" smooth="yes"/>
      <point x="224" y="179" type="line" smooth="yes"/>
      <point x="224" y="195"/>
      <point x="234" y="213"/>
      <point x="256" y="217" type="curve" smooth="yes"/>
      <point x="319" y="229" type="line"/>
      <point x="319" y="143" type="line"/>
      <point x="310" y="137"/>
      <point x="290" y="130"/>
      <point x="271" y="130" type="curve" smooth="yes"/>
      <point x="246" y="130"/>
      <point x="224" y="136"/>
    </contour>
    <contour>
      <point x="26" y="133" type="line" smooth="yes"/>
      <point x="26" y="77"/>
      <point x="64" y="-6"/>
      <point x="175" y="-6" type="curve" smooth="yes"/>
      <point x="251" y="-6"/>
      <point x="331" y="34"/>
      <point x="367" y="70" type="curve"/>
      <point x="397" y="23"/>
      <point x="474" y="-6"/>
      <point x="542" y="-6" type="curve" smooth="yes"/>
      <point x="625" y="-6"/>
      <point x="703" y="0"/>
      <point x="773" y="25" type="curve"/>
      <point x="773" y="151" type="line"/>
      <point x="698" y="140"/>
      <point x="714" y="138"/>
      <point x="642" y="138" type="curve" smooth="yes"/>
      <point x="568" y="138"/>
      <point x="521" y="145"/>
      <point x="521" y="217" type="curve"/>
      <point x="644" y="217" type="line" smooth="yes"/>
      <point x="740" y="217"/>
      <point x="802" y="240"/>
      <point x="802" y="349" type="curve" smooth="yes"/>
      <point x="802" y="507"/>
      <point x="735" y="548"/>
      <point x="581" y="548" type="curve" smooth="yes"/>
      <point x="506" y="548"/>
      <point x="459" y="523"/>
      <point x="422" y="501" type="curve"/>
      <point x="387" y="524"/>
      <point x="328" y="545"/>
      <point x="250" y="545" type="curve" smooth="yes"/>
      <point x="181" y="545"/>
      <point x="129" y="538"/>
      <point x="62" y="506" type="curve"/>
      <point x="62" y="375" type="line"/>
      <point x="104" y="386"/>
      <point x="202" y="399"/>
      <point x="232" y="399" type="curve" smooth="yes"/>
      <point x="292" y="399"/>
      <point x="320" y="387"/>
      <point x="320" y="347" type="curve" smooth="yes"/>
      <point x="320" y="326" type="line"/>
      <point x="200" y="326" type="line" smooth="yes"/>
      <point x="61" y="326"/>
      <point x="26" y="249"/>
      <point x="26" y="174" type="curve" smooth="yes"/>
    </contour>
  </outline>
</glyph>
<glyph name="ccedilla" format="1">
  <advance width="490"/>
  <unicode hex="00E7"/>
  <outline>
    <contour>
      <point x="144" y="-105" type="line"/>
      <point x="181" y="-90" type="line" smooth="yes"/>
      <point x="209" y="-78"/>
      <point x="209" y="-76"/>
      <point x="209" y="-38" type="curve"/>
      <point x="326" y="-38" type="line"/>
      <point x="326" y="-140"/>
      <point x="297" y="-184"/>
      <point x="205" y="-184" type="curve" smooth="yes"/>
      <point x="144" y="-184" type="line"/>
    </contour>
    <contour>
      <point x="28" y="266" type="curve" smooth="yes"/>
      <point x="28" y="474"/>
      <point x="101" y="536"/>
      <point x="203" y="536" type="curve" smooth="yes"/>
      <point x="255" y="536"/>
      <point x="359" y="541"/>
      <point x="461" y="500" type="curve"/>
      <point x="461" y="386" type="line"/>
      <point x="461" y="386"/>
      <point x="401" y="392"/>
      <point x="312" y="392" type="curve" smooth="yes"/>
      <point x="244" y="392"/>
      <point x="222" y="394"/>
      <point x="222" y="264" type="curve" smooth="yes"/>
      <point x="222" y="142"/>
      <point x="240" y="139"/>
      <point x="312" y="139" type="curve" smooth="yes"/>
      <point x="404" y="139"/>
      <point x="468" y="147"/>
      <point x="468" y="147" type="curve"/>
      <point x="468" y="33" type="line"/>
      <point x="393" y="-20"/>
      <point x="286" y="-4"/>
      <point x="203" y="-5" type="curve"/>
      <point x="104" y="-5"/>
      <point x="28" y="58"/>
    </contour>
  </outline>
</glyph>
<glyph name="egrave" format="1">
  <advance width="525"/>
  <unicode hex="00E8"/>
  <outline>
    <contour>
      <point x="99.5" y="739" type="line"/>
      <point x="244.5" y="739" type="line"/>
      <point x="321.5" y="596" type="line"/>
      <point x="212.5" y="596" type="line"/>
    </contour>
    <contour>
      <point x="222" y="318" type="curve"/>
      <point x="280" y="318" type="line" smooth="yes"/>
      <point x="297" y="318"/>
      <point x="309" y="331"/>
      <point x="309" y="350" type="curve" smooth="yes"/>
      <point x="309" y="386"/>
      <point x="308" y="401"/>
      <point x="274" y="401" type="curve" smooth="yes"/>
      <point x="232" y="401"/>
      <point x="220" y="394"/>
    </contour>
    <contour>
      <point x="28" y="268" type="curve" smooth="yes"/>
      <point x="28" y="489"/>
      <point x="88" y="535"/>
      <point x="260" y="535" type="curve" smooth="yes"/>
      <point x="437" y="535"/>
      <point x="503" y="513"/>
      <point x="503" y="337" type="curve" smooth="yes"/>
      <point x="503" y="228"/>
      <point x="442" y="195"/>
      <point x="346" y="195" type="curve" smooth="yes"/>
      <point x="222" y="195" type="line"/>
      <point x="222" y="123"/>
      <point x="269" y="138"/>
      <point x="343" y="138" type="curve" smooth="yes"/>
      <point x="415" y="138"/>
      <point x="418" y="138"/>
      <point x="493" y="149" type="curve"/>
      <point x="493" y="23" type="line"/>
      <point x="423" y="-9"/>
      <point x="286" y="-5"/>
      <point x="203" y="-5" type="curve" smooth="yes"/>
      <point x="68" y="-5"/>
      <point x="28" y="84"/>
    </contour>
  </outline>
</glyph>
<glyph name="igrave" format="1">
  <advance width="261"/>
  <unicode hex="00EC"/>
  <outline>
    <contour>
      <point x="-36.5" y="739" type="line"/>
      <point x="108.5" y="739" type="line"/>
      <point x="185.5" y="596" type="line"/>
      <point x="76.5" y="596" type="line"/>
    </contour>
    <contour>
      <point x="34" y="0" type="line"/>
      <point x="34" y="531" type="line"/>
      <point x="228" y="531" type="line"/>
      <point x="228" y="0" type="line"/>
    </contour>
  </outline>
</glyph>
<glyph name="iacute" format="1">
  <advance width="261"/>
  <unicode hex="00ED"/>
  <outline>
    <contour>
      <point x="76.5" y="596" type="line"/>
      <point x="153.5" y="739" type="line"/>
      <point x="298.5" y="739" type="line"/>
      <point x="185.5" y="596" type="line"/>
    </contour>
    <contour>
      <point x="34" y="0" type="line"/>
      <point x="34" y="531" type="line"/>
      <point x="228" y="531" type="line"/>
      <point x="228" y="0" type="line"/>
    </contour>
  </outline>
</glyph>
<glyph name="icircumflex" format="1">
  <advance width="261"/>
  <unicode hex="00EE"/>
  <outline>
    <contour>
      <point x="-30" y="596" type="line"/>
      <point x="70" y="736" type="line"/>
      <point x="201" y="736" type="line"/>
      <point x="292" y="596" type="line"/>
      <point x="181" y="596" type="line"/>
      <point x="132" y="647" type="line"/>
      <point x="82" y="596" type="line"/>
    </contour>
    <contour>
      <point x="34" y="0" type="line"/>
      <point x="34" y="531" type="line"/>
      <point x="228" y="531" type="line"/>
      <point x="228" y="0" type="line"/>
    </contour>
  </outline>
</glyph>
<glyph name="idieresis" format="1">
  <advance width="261"/>
  <unicode hex="00EF"/>
  <outline>
    <contour>
      <point x="193" y="662" type="curve" smooth="yes"/>
      <point x="193" y="698"/>
      <point x="223" y="727"/>
      <point x="259" y="727" type="curve" smooth="yes"/>
      <point x="295" y="727"/>
      <point x="324" y="698"/>
      <point x="324" y="662" type="curve" smooth="yes"/>
      <point x="324" y="626"/>
      <point x="295" y="596"/>
      <point x="259" y="596" type="curve" smooth="yes"/>
      <point x="223" y="596"/>
      <point x="193" y="626"/>
    </contour>
    <contour>
      <point x="-62" y="662" type="curve" smooth="yes"/>
      <point x="-62" y="698"/>
      <point x="-32" y="727"/>
      <point x="4" y="727" type="curve" smooth="yes"/>
      <point x="40" y="727"/>
      <point x="69" y="698"/>
      <point x="69" y="662" type="curve" smooth="yes"/>
      <point x="69" y="626"/>
      <point x="40" y="596"/>
      <point x="4" y="596" type="curve" smooth="yes"/>
      <point x="-32" y="596"/>
      <point x="-62" y="626"/>
    </contour>
    <contour>
      <point x="34" y="0" type="line"/>
      <point x="34" y="531" type="line"/>
      <point x="228" y="531" type="line"/>
      <point x="228" y="0" type="line"/>
    </contour>
  </outline>
</glyph>
<glyph name="eth" format="1">
  <advance width="543"/>
  <unicode hex="00F0"/>
  <outline>
    <contour>
      <point x="216" y="264" type="curve" smooth="yes"/>
      <point x="216" y="192"/>
      <point x="216" y="176"/>
      <point x="258" y="176" type="curve" smooth="yes"/>
      <point x="286" y="176" type="line" smooth="yes"/>
      <point x="326" y="176"/>
      <point x="326" y="184"/>
      <point x="326" y="264" type="curve" smooth="yes"/>
      <point x="326" y="352"/>
      <point x="326" y="357"/>
      <point x="286" y="357" type="curve" smooth="yes"/>
      <point x="258" y="357" type="line" smooth="yes"/>
      <point x="224" y="357"/>
      <point x="216" y="342"/>
    </contour>
    <contour>
      <point x="22" y="264" type="curve" smooth="yes"/>
      <point x="22" y="434"/>
      <point x="81" y="531"/>
      <point x="216" y="531" type="curve" smooth="yes"/>
      <point x="236" y="531" type="line" smooth="yes"/>
      <point x="242" y="531"/>
      <point x="296" y="531"/>
      <point x="316" y="526" type="curve"/>
      <point x="307" y="557"/>
      <point x="292" y="578"/>
      <point x="272" y="594" type="curve"/>
      <point x="184" y="544" type="line"/>
      <point x="152" y="600" type="line"/>
      <point x="194" y="624" type="line"/>
      <point x="161" y="629"/>
      <point x="120" y="629"/>
      <point x="72" y="628" type="curve"/>
      <point x="72" y="783" type="line"/>
      <point x="206" y="783"/>
      <point x="299" y="762"/>
      <point x="366" y="722" type="curve"/>
      <point x="438" y="762" type="line"/>
      <point x="470" y="706" type="line"/>
      <point x="422" y="679" type="line"/>
      <point x="504" y="594"/>
      <point x="520" y="455"/>
      <point x="520" y="264" type="curve" smooth="yes"/>
      <point x="520" y="65"/>
      <point x="433" y="0"/>
      <point x="326" y="0" type="curve" smooth="yes"/>
      <point x="216" y="0" type="line" smooth="yes"/>
      <point x="79" y="0"/>
      <point x="22" y="85"/>
    </contour>
  </outline>
</glyph>
<glyph name="ntilde" format="1">
  <advance width="555"/>
  <unicode hex="00F1"/>
  <outline>
    <contour>
      <point x="107" y="667" type="line"/>
      <point x="132" y="703"/>
      <point x="174" y="741"/>
      <point x="230" y="741" type="curve" smooth="yes"/>
      <point x="274" y="741"/>
      <point x="296" y="706"/>
      <point x="336" y="706" type="curve"/>
      <point x="376" y="704"/>
      <point x="407" y="723"/>
      <point x="429" y="746" type="curve"/>
      <point x="455" y="672" type="line"/>
      <point x="433" y="639"/>
      <point x="394" y="600"/>
      <point x="343" y="600" type="curve" smooth="yes"/>
      <point x="300" y="600"/>
      <point x="266" y="635"/>
      <point x="227" y="635" type="curve" smooth="yes"/>
      <point x="188" y="635"/>
      <point x="165" y="624"/>
      <point x="134" y="600" type="curve"/>
    </contour>
    <contour>
      <point x="34" y="0" type="line"/>
      <point x="34" y="531" type="line"/>
      <point x="196" y="531" type="line"/>
      <point x="228" y="479" type="line"/>
      <point x="261" y="510"/>
      <point x="293" y="540"/>
      <point x="374" y="540" type="curve" smooth="yes"/>
      <point x="512" y="540"/>
      <point x="528" y="452"/>
      <point x="528" y="340" type="curve" smooth="yes"/>
      <point x="528" y="0" type="line"/>
      <point x="334" y="0" type="line"/>
      <point x="334" y="344" type="line" smooth="yes"/>
      <point x="334" y="386"/>
      <point x="323" y="396"/>
      <point x="301" y="396" type="curve" smooth="yes"/>
      <point x="264" y="396"/>
      <point x="240" y="386"/>
      <point x="228" y="359" type="curve"/>
      <point x="228" y="0" type="line"/>
    </contour>
  </outline>
</glyph>
<glyph name="ograve" format="1">
  <advance width="554"/>
  <unicode hex="00F2"/>
  <outline>
    <contour>
      <point x="109.5" y="739" type="line"/>
      <point x="254.5" y="739" type="line"/>
      <point x="331.5" y="596" type="line"/>
      <point x="222.5" y="596" type="line"/>
    </contour>
    <contour>
      <point x="222" y="258" type="curve" smooth="yes"/>
      <point x="222" y="153"/>
      <point x="226" y="139"/>
      <point x="277" y="139" type="curve" smooth="yes"/>
      <point x="332" y="139"/>
      <point x="332" y="147"/>
      <point x="332" y="258" type="curve" smooth="yes"/>
      <point x="332" y="373"/>
      <point x="333" y="392"/>
      <point x="277" y="392" type="curve" smooth="yes"/>
      <point x="218" y="392"/>
      <point x="222" y="372"/>
    </contour>
    <contour>
      <point x="28" y="258" type="curve" smooth="yes"/>
      <point x="28" y="475"/>
      <point x="93" y="536"/>
      <point x="277" y="536" type="curve" smooth="yes"/>
      <point x="463" y="536"/>
      <point x="526" y="469"/>
      <point x="526" y="258" type="curve" smooth="yes"/>
      <point x="526" y="61"/>
      <point x="468" y="-5"/>
      <point x="277" y="-5" type="curve" smooth="yes"/>
      <point x="90" y="-5"/>
      <point x="28" y="68"/>
    </contour>
  </outline>
</glyph>
<glyph name="otilde" format="1">
  <advance width="554"/>
  <unicode hex="00F5"/>
  <outline>
    <contour>
      <point x="103" y="663" type="line"/>
      <point x="128" y="699"/>
      <point x="170" y="737"/>
      <point x="226" y="737" type="curve" smooth="yes"/>
      <point x="270" y="737"/>
      <point x="292" y="702"/>
      <point x="332" y="702" type="curve"/>
      <point x="372" y="700"/>
      <point x="403" y="719"/>
      <point x="425" y="742" type="curve"/>
      <point x="451" y="668" type="line"/>
      <point x="429" y="635"/>
      <point x="390" y="596"/>
      <point x="339" y="596" type="curve" smooth="yes"/>
      <point x="296" y="596"/>
      <point x="262" y="631"/>
      <point x="223" y="631" type="curve" smooth="yes"/>
      <point x="184" y="631"/>
      <point x="161" y="620"/>
      <point x="130" y="596" type="curve"/>
    </contour>
    <contour>
      <point x="222" y="258" type="curve" smooth="yes"/>
      <point x="222" y="153"/>
      <point x="226" y="139"/>
      <point x="277" y="139" type="curve" smooth="yes"/>
      <point x="332" y="139"/>
      <point x="332" y="147"/>
      <point x="332" y="258" type="curve" smooth="yes"/>
      <point x="332" y="373"/>
      <point x="333" y="392"/>
      <point x="277" y="392" type="curve" smooth="yes"/>
      <point x="218" y="392"/>
      <point x="222" y="372"/>
    </contour>
    <contour>
      <point x="28" y="258" type="curve" smooth="yes"/>
      <point x="28" y="475"/>
      <point x="93" y="536"/>
      <point x="277" y="536" type="curve" smooth="yes"/>
      <point x="463" y="536"/>
      <point x="526" y="469"/>
      <point x="526" y="258" type="curve" smooth="yes"/>
      <point x="526" y="61"/>
      <point x="468" y="-5"/>
      <point x="277" y="-5" type="curve" smooth="yes"/>
      <point x="90" y="-5"/>
      <point x="28" y="68"/>
    </contour>
  </outline>
</glyph>
<glyph name="odieresis" format="1">
  <advance width="554"/>
  <unicode hex="00F6"/>
  <outline>
    <contour>
      <point x="339" y="662" type="curve" smooth="yes"/>
      <point x="339" y="698"/>
      <point x="369" y="727"/>
      <point x="405" y="727" type="curve" smooth="yes"/>
      <point x="441" y="727"/>
      <point x="470" y="698"/>
      <point x="470" y="662" type="curve" smooth="yes"/>
      <point x="470" y="626"/>
      <point x="441" y="596"/>
      <point x="405" y="596" type="curve" smooth="yes"/>
      <point x="369" y="596"/>
      <point x="339" y="626"/>
    </contour>
    <contour>
      <point x="84" y="662" type="curve" smooth="yes"/>
      <point x="84" y="698"/>
      <point x="114" y="727"/>
      <point x="150" y="727" type="curve" smooth="yes"/>
      <point x="186" y="727"/>
      <point x="215" y="698"/>
      <point x="215" y="662" type="curve" smooth="yes"/>
      <point x="215" y="626"/>
      <point x="186" y="596"/>
      <point x="150" y="596" type="curve" smooth="yes"/>
      <point x="114" y="596"/>
      <point x="84" y="626"/>
    </contour>
    <contour>
      <point x="222" y="258" type="curve" smooth="yes"/>
      <point x="222" y="153"/>
      <point x="226" y="139"/>
      <point x="277" y="139" type="curve" smooth="yes"/>
      <point x="332" y="139"/>
      <point x="332" y="147"/>
      <point x="332" y="258" type="curve" smooth="yes"/>
      <point x="332" y="373"/>
      <point x="333" y="392"/>
      <point x="277" y="392" type="curve" smooth="yes"/>
      <point x="218" y="392"/>
      <point x="222" y="372"/>
    </contour>
    <contour>
      <point x="28" y="258" type="curve" smooth="yes"/>
      <point x="28" y="475"/>
      <point x="93" y="536"/>
      <point x="277" y="536" type="curve" smooth="yes"/>
      <point x="463" y="536"/>
      <point x="526" y="469"/>
      <point x="526" y="258" type="curve" smooth="yes"/>
      <point x="526" y="61"/>
      <point x="468" y="-5"/>
      <point x="277" y="-5" type="curve" smooth="yes"/>
      <point x="90" y="-5"/>
      <point x="28" y="68"/>
    </contour>
  </outline>
</glyph>
<glyph name="divide" format="1">
  <advance width="483"/>
  <unicode hex="00F7"/>
  <outline>
    <contour>
      <point x="165" y="483" type="curve" smooth="yes"/>
      <point x="165" y="560" type="line" smooth="yes"/>
      <point x="165" y="575"/>
      <point x="173" y="585"/>
      <point x="189" y="585" type="curve" smooth="yes"/>
      <point x="282" y="585" type="line" smooth="yes"/>
      <point x="300" y="585"/>
      <point x="307" y="576"/>
      <point x="307" y="560" type="curve" smooth="yes"/>
      <point x="307" y="483" type="line" smooth="yes"/>
      <point x="307" y="465"/>
      <point x="296" y="460"/>
      <point x="282" y="460" type="curve" smooth="yes"/>
      <point x="189" y="460" type="line" smooth="yes"/>
      <point x="175" y="460"/>
      <point x="165" y="469"/>
    </contour>
    <contour>
      <point x="165" y="140" type="curve" smooth="yes"/>
      <point x="165" y="217" type="line" smooth="yes"/>
      <point x="165" y="232"/>
      <point x="173" y="242"/>
      <point x="189" y="242" type="curve" smooth="yes"/>
      <point x="282" y="242" type="line" smooth="yes"/>
      <point x="300" y="242"/>
      <point x="307" y="233"/>
      <point x="307" y="217" type="curve" smooth="yes"/>
      <point x="307" y="140" type="line" smooth="yes"/>
      <point x="307" y="122"/>
      <point x="296" y="117"/>
      <point x="282" y="117" type="curve" smooth="yes"/>
      <point x="189" y="117" type="line" smooth="yes"/>
      <point x="175" y="117"/>
      <point x="165" y="126"/>
    </contour>
    <contour>
      <point x="28" y="276" type="line"/>
      <point x="28" y="430" type="line"/>
      <point x="455" y="430" type="line"/>
      <point x="455" y="276" type="line"/>
    </contour>
  </outline>
</glyph>
<glyph name="oslash" format="1">
  <advance width="592"/>
  <unicode hex="00F8"/>
  <outline>
    <contour>
      <point x="250" y="160" type="line"/>
      <point x="257" y="142"/>
      <point x="271" y="139"/>
      <point x="297" y="139" type="curve" smooth="yes"/>
      <point x="352" y="139"/>
      <point x="352" y="147"/>
      <point x="352" y="258" type="curve" smooth="yes"/>
      <point x="352" y="266"/>
      <point x="352" y="274"/>
      <point x="352" y="281" type="curve"/>
    </contour>
    <contour>
      <point x="242" y="258" type="curve" smooth="yes"/>
      <point x="242" y="256"/>
      <point x="242" y="254"/>
      <point x="242" y="252" type="curve"/>
      <point x="344" y="372" type="line"/>
      <point x="337" y="388"/>
      <point x="323" y="392"/>
      <point x="297" y="392" type="curve" smooth="yes"/>
      <point x="238" y="392"/>
      <point x="242" y="372"/>
    </contour>
    <contour>
      <point x="48" y="258" type="curve" smooth="yes"/>
      <point x="48" y="475"/>
      <point x="113" y="536"/>
      <point x="297" y="536" type="curve" smooth="yes"/>
      <point x="366" y="536"/>
      <point x="418" y="527"/>
      <point x="456" y="505" type="curve"/>
      <point x="478" y="531" type="line"/>
      <point x="564" y="531" type="line"/>
      <point x="504" y="460" type="line"/>
      <point x="534" y="416"/>
      <point x="546" y="351"/>
      <point x="546" y="258" type="curve" smooth="yes"/>
      <point x="546" y="61"/>
      <point x="488" y="-5"/>
      <point x="297" y="-5" type="curve" smooth="yes"/>
      <point x="228" y="-5"/>
      <point x="175" y="5"/>
      <point x="137" y="27" type="curve"/>
      <point x="114" y="0" type="line"/>
      <point x="28" y="0" type="line"/>
      <point x="89" y="72" type="line"/>
      <point x="60" y="114"/>
      <point x="48" y="175"/>
    </contour>
  </outline>
</glyph>
<glyph name="udieresis" format="1">
  <advance width="555"/>
  <unicode hex="00FC"/>
  <outline>
    <contour>
      <point x="337" y="662" type="curve" smooth="yes"/>
      <point x="337" y="698"/>
      <point x="367" y="727"/>
      <point x="403" y="727" type="curve" smooth="yes"/>
      <point x="439" y="727"/>
      <point x="468" y="698"/>
      <point x="468" y="662" type="curve" smooth="yes"/>
      <point x="468" y="626"/>
      <point x="439" y="596"/>
      <point x="403" y="596" type="curve" smooth="yes"/>
      <point x="367" y="596"/>
      <point x="337" y="626"/>
    </contour>
    <contour>
      <point x="82" y="662" type="curve" smooth="yes"/>
      <point x="82" y="698"/>
      <point x="112" y="727"/>
      <point x="148" y="727" type="curve" smooth="yes"/>
      <point x="184" y="727"/>
      <point x="213" y="698"/>
      <point x="213" y="662" type="curve" smooth="yes"/>
      <point x="213" y="626"/>
      <point x="184" y="596"/>
      <point x="148" y="596" type="curve" smooth="yes"/>
      <point x="112" y="596"/>
      <point x="82" y="626"/>
    </contour>
    <contour>
      <point x="28" y="191" type="curve" smooth="yes"/>
      <point x="28" y="531" type="line"/>
      <point x="222" y="531" type="line"/>
      <point x="222" y="187" type="line" smooth="yes"/>
      <point x="222" y="145"/>
      <point x="233" y="135"/>
      <point x="255" y="135" type="curve" smooth="yes"/>
      <point x="292" y="135"/>
      <point x="316" y="145"/>
      <point x="328" y="172" type="curve"/>
      <point x="328" y="531" type="line"/>
      <point x="522" y="531" type="line"/>
      <point x="522" y="0" type="line"/>
      <point x="360" y="0" type="line"/>
      <point x="328" y="52" type="line"/>
      <point x="282" y="23"/>
      <point x="263" y="-9"/>
      <point x="182" y="-9" type="curve" smooth="yes"/>
      <point x="44" y="-9"/>
      <point x="28" y="79"/>
    </contour>
  </outline>
</glyph>
<glyph name="yacute" format="1">
  <advance width="599"/>
  <unicode hex="00FD"/>
  <outline>
    <contour>
      <point x="243" y="596" type="line"/>
      <point x="320" y="739" type="line"/>
      <point x="465" y="739" type="line"/>
      <point x="352" y="596" type="line"/>
    </contour>
    <contour>
      <point x="12" y="531" type="line"/>
      <point x="213" y="531" type="line"/>
      <point x="274" y="195" type="line" smooth="yes"/>
      <point x="280" y="164"/>
      <point x="301" y="157"/>
      <point x="317" y="156" type="curve"/>
      <point x="386" y="531" type="line"/>
      <point x="583" y="531" type="line"/>
      <point x="440" y="-168" type="line"/>
      <point x="369" y="-270" type="line"/>
      <point x="225" y="-270" type="line"/>
      <point x="284" y="0" type="line"/>
      <point x="167" y="0"/>
      <point x="115" y="66"/>
      <point x="95" y="156" type="curve" smooth="yes"/>
    </contour>
  </outline>
</glyph>
<glyph name="thorn" format="1">
  <advance width="558"/>
  <unicode hex="00FE"/>
  <outline>
    <contour>
      <point x="233" y="139" type="line"/>
      <point x="243" y="128"/>
      <point x="273" y="124"/>
      <point x="298" y="124" type="curve" smooth="yes"/>
      <point x="326" y="124"/>
      <point x="342" y="138"/>
      <point x="342" y="251" type="curve" smooth="yes"/>
      <point x="342" y="360"/>
      <point x="327" y="373"/>
      <point x="298" y="373" type="curve" smooth="yes"/>
      <point x="267" y="373"/>
      <point x="243" y="368"/>
      <point x="233" y="351" type="curve"/>
    </contour>
    <contour>
      <point x="39" y="-270" type="line"/>
      <point x="39" y="782" type="line"/>
      <point x="233" y="782" type="line"/>
      <point x="233" y="475" type="line"/>
      <point x="272" y="508"/>
      <point x="305" y="530"/>
      <point x="364" y="530" type="curve" smooth="yes"/>
      <point x="483" y="530"/>
      <point x="536" y="451"/>
      <point x="536" y="261" type="curve" smooth="yes"/>
      <point x="536" y="93"/>
      <point x="508" y="-15"/>
      <point x="364" y="-15" type="curve" smooth="yes"/>
      <point x="319" y="-15"/>
      <point x="268" y="-4"/>
      <point x="233" y="19" type="curve"/>
      <point x="233" y="-270" type="line"/>
    </contour>
  </outline>
</glyph>
<glyph name="ydieresis" format="1">
  <advance width="599"/>
  <unicode hex="00FF"/>
  <outline>
    <contour>
      <point x="359.5" y="662" type="curve" smooth="yes"/>
      <point x="359.5" y="698"/>
      <point x="389.5" y="727"/>
      <point x="425.5" y="727" type="curve" smooth="yes"/>
      <point x="461.5" y="727"/>
      <point x="490.5" y="698"/>
      <point x="490.5" y="662" type="curve" smooth="yes"/>
      <point x="490.5" y="626"/>
      <point x="461.5" y="596"/>
      <point x="425.5" y="596" type="curve" smooth="yes"/>
      <point x="389.5" y="596"/>
      <point x="359.5" y="626"/>
    </contour>
    <contour>
      <point x="104.5" y="662" type="curve" smooth="yes"/>
      <point x="104.5" y="698"/>
      <point x="134.5" y="727"/>
      <point x="170.5" y="727" type="curve" smooth="yes"/>
      <point x="206.5" y="727"/>
      <point x="235.5" y="698"/>
      <point x="235.5" y="662" type="curve" smooth="yes"/>
      <point x="235.5" y="626"/>
      <point x="206.5" y="596"/>
      <point x="170.5" y="596" type="curve" smooth="yes"/>
      <point x="134.5" y="596"/>
      <point x="104.5" y="626"/>
    </contour>
    <contour>
      <point x="12" y="531" type="line"/>
      <point x="213" y="531" type="line"/>
      <point x="274" y="195" type="line" smooth="yes"/>
      <point x="280" y="164"/>
      <point x="301" y="157"/>
      <point x="317" y="156" type="curve"/>
      <point x="386" y="531" type="line"/>
      <point x="583" y="531" type="line"/>
      <point x="440" y="-168" type="line"/>
      <point x="369" y="-270" type="line"/>
      <point x="225" y="-270" type="line"/>
      <point x="284" y="0" type="line"/>
      <point x="167" y="0"/>
      <point x="115" y="66"/>
      <point x="95" y="156" type="curve" smooth="yes"/>
    </contour>
  </outline>
</glyph>
<glyph name="amacron" format="1">
  <advance width="519"/>
  <unicode hex="0101"/>
  <outline>
    <contour>
      <point x="122" y="601" type="line"/>
      <point x="122" y="694" type="line"/>
      <point x="414" y="694" type="line"/>
      <point x="414" y="601" type="line"/>
    </contour>
    <contour>
      <point x="216" y="175" type="line" smooth="yes"/>
      <point x="216" y="134"/>
      <point x="239" y="138"/>
      <point x="258" y="138" type="curve" smooth="yes"/>
      <point x="299" y="138"/>
      <point x="298" y="171"/>
      <point x="298" y="171" type="curve"/>
      <point x="298" y="231" type="line"/>
      <point x="246" y="226" type="line" smooth="yes"/>
      <point x="214" y="223"/>
      <point x="216" y="197"/>
      <point x="216" y="181" type="curve" smooth="yes"/>
    </contour>
    <contour>
      <point x="22" y="143" type="curve" smooth="yes"/>
      <point x="22" y="184" type="line" smooth="yes"/>
      <point x="22" y="259"/>
      <point x="57" y="340"/>
      <point x="196" y="340" type="curve" smooth="yes"/>
      <point x="196" y="340"/>
      <point x="298" y="339"/>
      <point x="298" y="340" type="curve" smooth="yes"/>
      <point x="298" y="340"/>
      <point x="299" y="346"/>
      <point x="298" y="347" type="curve"/>
      <point x="298" y="400"/>
      <point x="276" y="399"/>
      <point x="236" y="399" type="curve" smooth="yes"/>
      <point x="211" y="399"/>
      <point x="40" y="388"/>
      <point x="40" y="388" type="curve"/>
      <point x="40" y="501" type="line"/>
      <point x="109" y="534"/>
      <point x="169" y="541"/>
      <point x="268" y="541" type="curve" smooth="yes"/>
      <point x="408" y="541"/>
      <point x="492" y="506"/>
      <point x="492" y="357" type="curve" smooth="yes"/>
      <point x="492" y="0" type="line"/>
      <point x="336" y="0" type="line"/>
      <point x="298" y="54" type="line"/>
      <point x="289" y="33"/>
      <point x="259" y="-9"/>
      <point x="186" y="-6" type="curve" smooth="yes"/>
      <point x="60" y="-1"/>
      <point x="22" y="87"/>
    </contour>
  </outline>
</glyph>
<glyph name="Abreve" format="1">
  <advance width="711"/>
  <unicode hex="0102"/>
  <outline>
    <contour>
      <point x="253.5" y="911" type="curve"/>
      <point x="320.5" y="911" type="line"/>
      <point x="320.5" y="881"/>
      <point x="335.5" y="864"/>
      <point x="367.5" y="864" type="curve" smooth="yes"/>
      <point x="405.5" y="864"/>
      <point x="416.5" y="883"/>
      <point x="416.5" y="911" type="curve"/>
      <point x="483.5" y="911" type="line"/>
      <point x="483.5" y="843"/>
      <point x="438.5" y="797"/>
      <point x="367.5" y="797" type="curve" smooth="yes"/>
      <point x="298.5" y="797"/>
      <point x="253.5" y="843"/>
    </contour>
    <contour>
      <point x="310" y="293" type="line"/>
      <point x="424" y="293" type="line"/>
      <point x="371" y="489" type="line"/>
    </contour>
    <contour>
      <point x="25" y="0" type="line"/>
      <point x="254" y="732" type="line"/>
      <point x="483" y="732" type="line"/>
      <point x="705" y="0" type="line"/>
      <point x="506" y="0" type="line"/>
      <point x="463" y="128" type="line"/>
      <point x="266" y="128" type="line"/>
      <point x="224" y="0" type="line"/>
    </contour>
  </outline>
</glyph>
<glyph name="abreve" format="1">
  <advance width="519"/>
  <unicode hex="0103"/>
  <outline>
    <contour>
      <point x="153" y="715" type="curve"/>
      <point x="220" y="715" type="line"/>
      <point x="220" y="685"/>
      <point x="235" y="668"/>
      <point x="267" y="668" type="curve" smooth="yes"/>
      <point x="305" y="668"/>
      <point x="316" y="687"/>
      <point x="316" y="715" type="curve"/>
      <point x="383" y="715" type="line"/>
      <point x="383" y="647"/>
      <point x="338" y="601"/>
      <point x="267" y="601" type="curve" smooth="yes"/>
      <point x="198" y="601"/>
      <point x="153" y="647"/>
    </contour>
    <contour>
      <point x="216" y="175" type="line" smooth="yes"/>
      <point x="216" y="134"/>
      <point x="239" y="138"/>
      <point x="258" y="138" type="curve" smooth="yes"/>
      <point x="299" y="138"/>
      <point x="298" y="171"/>
      <point x="298" y="171" type="curve"/>
      <point x="298" y="231" type="line"/>
      <point x="246" y="226" type="line" smooth="yes"/>
      <point x="214" y="223"/>
      <point x="216" y="197"/>
      <point x="216" y="181" type="curve" smooth="yes"/>
    </contour>
    <contour>
      <point x="22" y="143" type="curve" smooth="yes"/>
      <point x="22" y="184" type="line" smooth="yes"/>
      <point x="22" y="259"/>
      <point x="57" y="340"/>
      <point x="196" y="340" type="curve" smooth="yes"/>
      <point x="196" y="340"/>
      <point x="298" y="339"/>
      <point x="298" y="340" type="curve" smooth="yes"/>
      <point x="298" y="340"/>
      <point x="299" y="346"/>
      <point x="298" y="347" type="curve"/>
      <point x="298" y="400"/>
      <point x="276" y="399"/>
      <point x="236" y="399" type="curve" smooth="yes"/>
      <point x="211" y="399"/>
      <point x="40" y="388"/>
      <point x="40" y="388" type="curve"/>
      <point x="40" y="501" type="line"/>
      <point x="109" y="534"/>
      <point x="169" y="541"/>
      <point x="268" y="541" type="curve" smooth="yes"/>
      <point x="408" y="541"/>
      <point x="492" y="506"/>
      <point x="492" y="357" type="curve" smooth="yes"/>
      <point x="492" y="0" type="line"/>
      <point x="336" y="0" type="line"/>
      <point x="298" y="54" type="line"/>
      <point x="289" y="33"/>
      <point x="259" y="-9"/>
      <point x="186" y="-6" type="curve" smooth="yes"/>
      <point x="60" y="-1"/>
      <point x="22" y="87"/>
    </contour>
  </outline>
</glyph>
<glyph name="Aogonek" format="1">
  <advance width="711"/>
  <unicode hex="0104"/>
  <outline>
    <contour>
      <point x="310" y="293" type="line"/>
      <point x="424" y="293" type="line"/>
      <point x="371" y="489" type="line"/>
    </contour>
    <contour>
      <point x="25" y="0" type="line"/>
      <point x="254" y="732" type="line"/>
      <point x="483" y="732" type="line"/>
      <point x="705" y="0" type="line"/>
      <point x="641.808" y="0" type="line"/>
      <point x="568.04" y="-52.5022"/>
      <point x="621.347" y="-105.408"/>
      <point x="657" y="-99.4658" type="curve"/>
      <point x="657" y="-189.466" type="line"/>
      <point x="558.645" y="-223.244"/>
      <point x="440.551" y="-78.3747"/>
      <point x="572.373" y="1.25447e-06" type="curve"/>
      <point x="506" y="0" type="line"/>
      <point x="463" y="128" type="line"/>
      <point x="266" y="128" type="line"/>
      <point x="224" y="0" type="line"/>
    </contour>
  </outline>
</glyph>
<glyph name="cacute" format="1">
  <advance width="490"/>
  <unicode hex="0107"/>
  <outline>
    <contour>
      <point x="224.679" y="596.192" type="line"/>
      <point x="301.679" y="739.192" type="line"/>
      <point x="446.679" y="739.192" type="line"/>
      <point x="333.679" y="596.192" type="line"/>
    </contour>
    <contour>
      <point x="28" y="266" type="curve" smooth="yes"/>
      <point x="28" y="474"/>
      <point x="101" y="536"/>
      <point x="203" y="536" type="curve" smooth="yes"/>
      <point x="255" y="536"/>
      <point x="359" y="541"/>
      <point x="461" y="500" type="curve"/>
      <point x="461" y="386" type="line"/>
      <point x="461" y="386"/>
      <point x="401" y="392"/>
      <point x="312" y="392" type="curve" smooth="yes"/>
      <point x="244" y="392"/>
      <point x="222" y="394"/>
      <point x="222" y="264" type="curve" smooth="yes"/>
      <point x="222" y="142"/>
      <point x="240" y="139"/>
      <point x="312" y="139" type="curve" smooth="yes"/>
      <point x="404" y="139"/>
      <point x="468" y="147"/>
      <point x="468" y="147" type="curve"/>
      <point x="468" y="33" type="line"/>
      <point x="393" y="-20"/>
      <point x="286" y="-4"/>
      <point x="203" y="-5" type="curve"/>
      <point x="104" y="-5"/>
      <point x="28" y="58"/>
    </contour>
  </outline>
</glyph>
<glyph name="ccircumflex" format="1">
  <advance width="490"/>
  <unicode hex="0109"/>
  <outline>
    <contour>
      <point x="98" y="596" type="line"/>
      <point x="198" y="736" type="line"/>
      <point x="329" y="736" type="line"/>
      <point x="420" y="596" type="line"/>
      <point x="309" y="596" type="line"/>
      <point x="260" y="647" type="line"/>
      <point x="210" y="596" type="line"/>
    </contour>
    <contour>
      <point x="28" y="266" type="curve" smooth="yes"/>
      <point x="28" y="474"/>
      <point x="101" y="536"/>
      <point x="203" y="536" type="curve" smooth="yes"/>
      <point x="255" y="536"/>
      <point x="359" y="541"/>
      <point x="461" y="500" type="curve"/>
      <point x="461" y="386" type="line"/>
      <point x="461" y="386"/>
      <point x="401" y="392"/>
      <point x="312" y="392" type="curve" smooth="yes"/>
      <point x="244" y="392"/>
      <point x="222" y="394"/>
      <point x="222" y="264" type="curve" smooth="yes"/>
      <point x="222" y="142"/>
      <point x="240" y="139"/>
      <point x="312" y="139" type="curve" smooth="yes"/>
      <point x="404" y="139"/>
      <point x="468" y="147"/>
      <point x="468" y="147" type="curve"/>
      <point x="468" y="33" type="line"/>
      <point x="393" y="-20"/>
      <point x="286" y="-4"/>
      <point x="203" y="-5" type="curve"/>
      <point x="104" y="-5"/>
      <point x="28" y="58"/>
    </contour>
  </outline>
</glyph>
